<?xml version="1.0" encoding="UTF-8"?>
<svg width="158px" height="161px" viewBox="0 0 158 161" version="1.1" xmlns="http://www.w3.org/2000/svg" xmlns:xlink="http://www.w3.org/1999/xlink">
    <!-- Generator: Sketch 51.3 (57544) - http://www.bohemiancoding.com/sketch -->
    <title>strat icon</title>
    <desc>Created with Sketch.</desc>
    <defs></defs>
    <g id="Comp" stroke="none" stroke-width="1" fill="none" fill-rule="evenodd" opacity="0.32" stroke-linecap="round" stroke-linejoin="round">
        <g id="Strategy" transform="translate(-987.000000, -215.000000)" stroke="#FFFFFF" stroke-width="3">
            <g id="strategy" transform="translate(866.000000, 217.000000)">
                <g id="strat-icon" transform="translate(123.000000, 0.000000)">
                    <path d="M133,79 C138.031336,76.6561404 142.469489,73.2385965 146,69" id="Stroke-1"></path>
                    <path d="M154.1,49 C154.59,43.5805325 153.876,38.1121781 152,33" id="Stroke-3"></path>
                    <path d="M139,16.356 C134.555817,13.129 129.426284,10.959 124,10" id="Stroke-5"></path>
                    <path d="M18,88 C12.8575283,90.5770218 8.40259039,94.3401797 5,99" id="Stroke-7"></path>
                    <path d="M0.00873342768,120 C-0.117266572,125.882403 1.12173343,131.707276 3.62073343,137" id="Stroke-9"></path>
                    <path d="M20,153 C24.9199143,155.744 30.4017131,157.263 36,157.466" id="Stroke-11"></path>
                    <path d="M74.5,0 C83.0628889,0 90,7.16088889 90,16 C90,24.8391111 83.0628889,32 74.5,32 C65.9371111,32 59,24.8391111 59,16 C59,7.16088889 65.9371111,0 74.5,0 Z" id="Stroke-17"></path>
                </g>
            </g>
        </g>
    </g>
</svg>