<svg xmlns="http://www.w3.org/2000/svg" viewBox="0 0 364.78 50.41"><defs><style>.cls-1{fill:#083147;}.cls-2{fill:#00b549;}</style></defs><title>Asset 1</title><g id="Layer_2" data-name="Layer 2"><g id="Layer_1-2" data-name="Layer 1"><path class="cls-1" d="M.35,46,20.26,2.45A3.62,3.62,0,0,1,23.77,0h.28a3.53,3.53,0,0,1,3.43,2.45L47.4,45.92a3.74,3.74,0,0,1,.35,1.41A2.67,2.67,0,0,1,45.08,50a3,3,0,0,1-2.73-2L37.23,36.67H10.31L5.19,48.1A2.77,2.77,0,0,1,2.52,50,2.51,2.51,0,0,1,0,47.47,3.2,3.2,0,0,1,.35,46ZM35.06,31.62,23.77,6.52,12.48,31.62Z"/><path class="cls-1" d="M59.87,29.1V3a2.77,2.77,0,1,1,5.54,0V28.75c0,10.58,5.68,16.54,15,16.54,9,0,14.79-5.47,14.79-16.19V3a2.77,2.77,0,1,1,5.54,0V28.68c0,14.3-8.2,21.73-20.47,21.73S59.87,43,59.87,29.1Z"/><path class="cls-1" d="M117.71,3.37A2.81,2.81,0,0,1,120.45.56h14.3c15.42,0,26.08,10.59,26.08,24.4v.14c0,13.81-10.66,24.54-26.08,24.54h-14.3a2.81,2.81,0,0,1-2.74-2.81Zm17,41.15c12.41,0,20.33-8.41,20.33-19.28V25.1c0-10.87-7.92-19.42-20.33-19.42h-11.5V44.52Z"/><path class="cls-1" d="M176.89,3a2.77,2.77,0,1,1,5.53,0V47.18a2.77,2.77,0,1,1-5.53,0Z"/><path class="cls-1" d="M213.62,5.68H199.39a2.57,2.57,0,0,1-2.59-2.53A2.63,2.63,0,0,1,199.39.56h34.07a2.63,2.63,0,0,1,2.6,2.59,2.57,2.57,0,0,1-2.6,2.53H219.23v41.5a2.81,2.81,0,1,1-5.61,0Z"/><path class="cls-2" d="M244.61,41.93a3.21,3.21,0,0,1,3.3,3.29v1.4a3.33,3.33,0,1,1-6.66,0v-1.4A3.22,3.22,0,0,1,244.61,41.93Z"/><path class="cls-1" d="M264,3.08A2.78,2.78,0,0,1,266.69.35h.64a3,3,0,0,1,2.59,1.47l17.53,26.36L305,1.82A3,3,0,0,1,307.57.35h.63a2.78,2.78,0,0,1,2.73,2.73v44.1A2.8,2.8,0,0,1,308.2,50a2.86,2.86,0,0,1-2.8-2.81V10.59L289.69,33.65a2.72,2.72,0,0,1-2.31,1.41A2.85,2.85,0,0,1,285,33.65l-15.63-23v36.6a2.7,2.7,0,1,1-5.4,0Z"/><path class="cls-1" d="M328.67,46.83V3.37A2.8,2.8,0,0,1,331.41.56H361.9a2.53,2.53,0,1,1,0,5.05H334.21V22.37h24.54a2.55,2.55,0,0,1,2.52,2.52,2.51,2.51,0,0,1-2.52,2.52H334.21V44.59h28a2.53,2.53,0,1,1,0,5H331.41A2.8,2.8,0,0,1,328.67,46.83Z"/></g></g></svg>
