<?xml version="1.0" encoding="UTF-8"?>
<svg width="120px" height="27px" viewBox="0 0 120 27" version="1.1" xmlns="http://www.w3.org/2000/svg" xmlns:xlink="http://www.w3.org/1999/xlink">
    <!-- Generator: Sketch 51.3 (57544) - http://www.bohemiancoding.com/sketch -->
    <title>eliinova logo</title>
    <desc>Created with Sketch.</desc>
    <defs></defs>
    <g id="Comp" stroke="none" stroke-width="1" fill="none" fill-rule="evenodd">
        <g id="Landing" transform="translate(-32.000000, -32.000000)">
            <g id="Menu" transform="translate(32.000000, 28.000000)">
                <g id="eliinova-logo" transform="translate(0.000000, 4.000000)">
                    <path d="M24.6629137,18.09243 C23.9275783,20.4271586 19.7206773,21.0936729 18.6280256,21.2186443 C17.529623,21.3440014 16.6094952,21.3285729 16.4128179,21.28113 C15.9481534,21.1789157 15.5432971,21.0520157 15.4374824,20.7264729 C14.8056613,18.8337729 19.1720511,14.84973 19.3614441,14.6190729 C17.9107093,15.0406586 16.0900064,16.3081157 15.3174824,16.9514871 C12.0793994,19.6541871 12.2963962,21.0292586 11.4387604,20.8996586 C11.0787604,20.8742014 10.598377,20.6609014 10.5493035,20.2979443 C8.73511821,21.3922157 7.57000639,21.8072443 6.51952716,21.5627014 C5.49665176,21.3166157 5.1355016,20.5239729 5.20527796,19.5176443 C5.38776997,16.8797443 8.54419169,12.8459443 10.890901,13.4989586 C11.164639,13.5529586 11.3939042,13.7435014 11.5495591,13.9984586 C12.4244473,15.3851014 6.55211502,19.08873 6.3355016,19.2133157 L6.30904792,19.5951729 C6.26342492,20.2543586 6.55709904,20.5193443 7.00527796,20.5505871 C8.01895208,20.6215586 9.67748243,19.9307443 11.015885,19.02123 C11.942147,16.8060729 13.5316677,13.4804443 14.865853,13.9552586 C15.422147,14.15313 14.889623,14.6194586 14.5549265,14.9446157 C13.7985048,15.8005157 13.0229137,17.0039443 12.5363962,18.0149014 C15.0399105,15.8633871 17.5595272,14.2244871 19.3273227,13.6952871 C19.9599105,13.5059014 20.4042556,13.5761014 20.764639,13.88043 C22.3131374,15.2366014 17.9498147,15.8529729 16.6972907,19.8289157 C16.6834888,19.9727871 16.2349265,20.7947443 18.570901,20.47923 C20.5169712,20.2161729 22.2847668,19.3417586 22.8874505,18.8391729 C24.9055974,17.15553 22.0022109,17.26083 21.4639361,16.8866871 C20.2022109,16.0088014 22.4990799,14.1998014 26.5568435,13.3018586 L26.5568435,0.000115714286 L3.83386581e-05,0.000115714286 L3.83386581e-05,26.7181586 L26.5568435,26.7181586 L26.5568435,14.4134871 C24.5939042,14.5531157 22.8115399,15.4456586 22.3116038,15.8313729 C21.7786965,16.24293 25.2019553,16.3821729 24.6629137,18.09243" id="Fill-1" fill="#00ACC1"></path>
                    <path d="M10.3214952,14.7144214 L10.2179808,14.7070929 C9.73491374,14.67315 7.97976997,15.4920214 6.93389137,17.58105 C7.47791693,17.23545 8.20366773,16.7633357 9.08200639,16.0925786 C9.96302875,15.3871071 10.274722,14.8856786 10.3214952,14.7144214" id="Fill-3" fill="#00ACC1"></path>
                    <path d="M10.2179808,14.7070543 L10.3214952,14.7143829 C10.274722,14.88564 9.96302875,15.3870686 9.08200639,16.09254 C8.20366773,16.7632971 7.47791693,17.2354114 6.93389137,17.5810114 C7.97976997,15.4919829 9.73491374,14.6731114 10.2179808,14.7070543 M21.4638594,16.88634 C22.0021342,17.2608686 24.9059042,17.1555686 22.8873738,18.8388257 C22.2846901,19.3417971 20.5168946,20.2162114 18.5712077,20.4792686 C16.2348498,20.7947829 16.6834121,19.9728257 16.6972141,19.8289543 C17.949738,15.8530114 22.3130607,15.23664 20.7645623,13.8804686 C20.4041789,13.5757543 19.9602173,13.50594 19.3276294,13.6953257 C17.5594505,14.2245257 15.0402173,15.8634257 12.5363195,18.01494 C13.0228371,17.0039829 13.7984281,15.8001686 14.5548498,14.9446543 C14.8895463,14.6194971 15.4220703,14.1531686 14.8661597,13.9552971 C13.5319744,13.4804829 11.9420703,16.8057257 11.0161917,19.0212686 C9.67740575,19.9307829 8.01925879,20.6215971 7.00558466,20.5506257 C6.55702236,20.5189971 6.26334824,20.2543971 6.30897125,19.5948257 L6.33542492,19.2133543 C6.55203834,19.0887686 12.4243706,15.38514 11.5498658,13.9984971 C11.3938275,13.7431543 11.1645623,13.5529971 10.8908243,13.4989971 C8.54411502,12.8459829 5.38769329,16.8797829 5.20520128,19.5176829 C5.13542492,20.5240114 5.49657508,21.3166543 6.51945048,21.56274 C7.56992971,21.8072829 8.73504153,21.3922543 10.5492268,20.2979829 C10.5983003,20.66094 11.0786837,20.87424 11.4386837,20.8996971 C12.2963195,21.0292971 12.0793227,19.6542257 15.3174058,16.9515257 C16.0899297,16.3077686 17.9106326,15.0406971 19.3613674,14.6191114 C19.1719744,14.8497686 14.8055847,18.8338114 15.4374058,20.7265114 C15.5436038,21.0520543 15.9480767,21.1789543 16.4127412,21.2811686 C16.6094185,21.3286114 17.5295463,21.34404 18.6279489,21.2186829 C19.7206006,21.0937114 23.9275016,20.4271971 24.6628371,18.0924686 C25.2018786,16.3822114 21.7786198,16.2425829 22.3115272,15.8314114 C22.8118466,15.4456971 24.5938275,14.5531543 26.5567668,14.4135257 L26.5567668,13.3018971 C22.4990032,14.19984 20.2021342,16.00884 21.4638594,16.88634" id="Fill-5" fill="#FFFFFF"></path>
                    <path d="M35.5781981,26.6058386 C35.2734058,26.5090243 35.0345559,26.3867529 34.8624153,26.2397957 L35.1127668,25.79931 C35.284524,25.9358529 35.5011374,26.0469386 35.7618403,26.1337243 C36.0221597,26.2201243 36.2939808,26.2633243 36.5750032,26.2633243 C36.9503387,26.2633243 37.2279105,26.2039243 37.4073355,26.0862814 C37.5879105,25.9686386 37.677623,25.80201 37.677623,25.5867814 C37.677623,25.43481 37.6273994,25.3156243 37.528869,25.2292243 C37.4299553,25.1424386 37.3049712,25.0768671 37.1535335,25.0321243 C37.0020958,24.9877671 36.8015847,24.9441814 36.5516166,24.9025243 C36.2176869,24.8396529 35.9496997,24.7752386 35.7465048,24.7096671 C35.5425431,24.6444814 35.3696358,24.5326243 35.2266326,24.3752529 C35.0824792,24.2182671 35.0111693,24.0003386 35.0111693,23.7222386 C35.0111693,23.3762529 35.1549393,23.0931386 35.4409457,22.8728957 C35.7277188,22.6526529 36.1264409,22.5423386 36.6371118,22.5423386 C36.9035655,22.5423386 37.1696358,22.5778243 37.4345559,22.6487957 C37.7010096,22.7193814 37.9199233,22.8127243 38.0920639,22.9280529 L37.8493802,23.3762529 C37.5108498,23.1401957 37.106377,23.0217814 36.6371118,23.0217814 C36.2824792,23.0217814 36.0156422,23.0850386 35.8358339,23.2111671 C35.6564089,23.33691 35.5659297,23.5023814 35.5659297,23.7064243 C35.5659297,23.8641814 35.6169201,23.9899243 35.7192843,24.0840386 C35.8208818,24.1789243 35.9466326,24.2483529 36.0980703,24.29271 C36.2487412,24.3374529 36.4573035,24.3833529 36.7237572,24.43041 C37.0519361,24.4932814 37.3153227,24.5565386 37.5135335,24.61941 C37.7109776,24.6822814 37.8804345,24.78951 38.0215208,24.9418671 C38.162607,25.0938386 38.2331502,25.3040529 38.2331502,25.5709671 C38.2331502,25.9331529 38.0828626,26.2201243 37.7826709,26.4326529 C37.4836294,26.6451814 37.0680383,26.7508671 36.5355144,26.7508671 C36.2027348,26.7508671 35.8829904,26.7026529 35.5781981,26.6058386" id="Fill-7" fill="#494F51"></path>
                    <path d="M47.9796805,26.0551157 C48.2120128,25.9212729 48.3925879,25.7311157 48.5233227,25.4846443 C48.6532907,25.2381729 48.7188498,24.9573729 48.7188498,24.6430157 C48.7188498,24.3282729 48.6532907,24.0478586 48.5233227,23.8013871 C48.3925879,23.5549157 48.2120128,23.3643729 47.9796805,23.23053 C47.7473482,23.0966871 47.4858786,23.0299586 47.1945048,23.0299586 C46.9019808,23.0299586 46.6405112,23.0966871 46.4081789,23.23053 C46.1758466,23.3643729 45.9933546,23.5549157 45.8607029,23.8013871 C45.7280511,24.0478586 45.6613419,24.3282729 45.6613419,24.6430157 C45.6613419,24.9573729 45.7280511,25.2381729 45.8607029,25.4846443 C45.9933546,25.7311157 46.1758466,25.9212729 46.4081789,26.0551157 C46.6405112,26.1885729 46.9019808,26.2556871 47.1945048,26.2556871 C47.4858786,26.2556871 47.7473482,26.1885729 47.9796805,26.0551157 M46.1233227,26.4794014 C45.804345,26.2988871 45.5539936,26.0485586 45.371885,25.72803 C45.189393,25.4082729 45.098147,25.0468586 45.098147,24.6430157 C45.098147,24.2387871 45.189393,23.8769871 45.371885,23.55723 C45.5539936,23.2370871 45.804345,22.9879157 46.1233227,22.8101014 C46.4411502,22.6319014 46.7976997,22.5424157 47.1945048,22.5424157 C47.5901597,22.5424157 47.9467093,22.6319014 48.2656869,22.8101014 C48.5835144,22.9879157 48.8319489,23.2370871 49.012524,23.55723 C49.1919489,23.8769871 49.281278,24.2387871 49.281278,24.6430157 C49.281278,25.0468586 49.1919489,25.4082729 49.012524,25.72803 C48.8319489,26.0485586 48.5835144,26.2988871 48.2656869,26.4794014 C47.9467093,26.6606871 47.5901597,26.7509443 47.1945048,26.7509443 C46.7976997,26.7509443 46.4411502,26.6606871 46.1233227,26.4794014" id="Fill-9" fill="#494F51"></path>
                    <polygon id="Fill-11" fill="#494F51" points="56.6710543 26.7117557 57.2258147 26.7117557 57.2258147 20.8743557 56.6710543 20.8743557"></polygon>
                    <path d="M68.735885,22.5740829 L68.735885,26.7120257 L68.2045112,26.7120257 L68.2045112,25.9567971 C68.0576741,26.2082829 67.8571629,26.40384 67.6018275,26.5426971 C67.346492,26.6815543 67.0543514,26.7509829 66.7257891,26.7509829 C66.1886645,26.7509829 65.7657891,26.6005543 65.455246,26.2989257 C65.1450863,25.9972971 64.9905815,25.5552686 64.9905815,24.9732257 L64.9905815,22.5740829 L65.5457252,22.5740829 L65.5457252,24.9184543 C65.5457252,25.35354 65.6519233,25.6837114 65.8662364,25.9093543 C66.0797827,26.1349971 66.3845751,26.2476257 66.7806134,26.2476257 C67.2130735,26.2476257 67.5554377,26.1153257 67.8057891,25.85034 C68.0557572,25.58574 68.1807412,25.2173829 68.1807412,24.7448829 L68.1807412,22.5740829 L68.735885,22.5740829 Z" id="Fill-13" fill="#494F51"></path>
                    <path d="M78.7136741,26.4600386 C78.609393,26.5541529 78.4805751,26.6266671 78.3272204,26.6764243 C78.1727157,26.7257957 78.0128435,26.7508671 77.8456869,26.7508671 C77.46,26.7508671 77.1628754,26.6463386 76.9539297,26.43651 C76.7461342,26.2270671 76.641853,25.9300671 76.641853,25.5474386 L76.641853,23.0456957 L75.9061342,23.0456957 L75.9061342,22.5739671 L76.641853,22.5739671 L76.641853,21.6690814 L77.1966134,21.6690814 L77.1966134,22.5739671 L78.4476038,22.5739671 L78.4476038,23.0456957 L77.1966134,23.0456957 L77.1966134,25.5161957 C77.1966134,25.7626671 77.2579553,25.9501243 77.3810224,26.0781814 C77.5033227,26.20701 77.6792971,26.2714243 77.9085623,26.2714243 C78.0231949,26.2714243 78.1332268,26.25291 78.2405751,26.2158814 C78.3479233,26.1796243 78.4399361,26.1271671 78.518147,26.0588957 L78.7136741,26.4600386 Z" id="Fill-14" fill="#494F51"></path>
                    <path d="M85.9771246,26.7121414 L86.531885,26.7121414 L86.531885,22.5741986 L85.9771246,22.5741986 L85.9771246,26.7121414 Z M85.9698403,21.5512843 C85.8916294,21.4725986 85.8521406,21.3780986 85.8521406,21.2677843 C85.8521406,21.1632557 85.8916294,21.0714557 85.9698403,20.9923843 C86.0476677,20.9140843 86.1435144,20.8743557 86.2585304,20.8743557 C86.3731629,20.8743557 86.4701597,20.9129271 86.5483706,20.9885271 C86.6261981,21.0648986 86.6656869,21.1551557 86.6656869,21.26007 C86.6656869,21.3757843 86.6261981,21.4725986 86.5483706,21.5512843 C86.4701597,21.6295843 86.3731629,21.6689271 86.2585304,21.6689271 C86.1435144,21.6689271 86.0476677,21.6295843 85.9698403,21.5512843 Z" id="Fill-15" fill="#494F51"></path>
                    <path d="M96.8034249,26.0551157 C97.0357572,25.9212729 97.2163323,25.7311157 97.3470671,25.4846443 C97.4766518,25.2381729 97.5425942,24.9573729 97.5425942,24.6430157 C97.5425942,24.3282729 97.4766518,24.0478586 97.3470671,23.8013871 C97.2163323,23.5549157 97.0357572,23.3643729 96.8034249,23.23053 C96.5710927,23.0966871 96.309623,23.0299586 96.0182492,23.0299586 C95.7257252,23.0299586 95.4642556,23.0966871 95.2319233,23.23053 C94.9995911,23.3643729 94.817099,23.5549157 94.6844473,23.8013871 C94.5517955,24.0478586 94.4850863,24.3282729 94.4850863,24.6430157 C94.4850863,24.9573729 94.5517955,25.2381729 94.6844473,25.4846443 C94.817099,25.7311157 94.9995911,25.9212729 95.2319233,26.0551157 C95.4642556,26.1885729 95.7257252,26.2556871 96.0182492,26.2556871 C96.309623,26.2556871 96.5710927,26.1885729 96.8034249,26.0551157 M94.9470671,26.4794014 C94.6280895,26.2988871 94.377738,26.0485586 94.195246,25.72803 C94.0131374,25.4082729 93.921508,25.0468586 93.921508,24.6430157 C93.921508,24.2387871 94.0131374,23.8769871 94.195246,23.55723 C94.377738,23.2370871 94.6280895,22.9879157 94.9470671,22.8101014 C95.2648946,22.6319014 95.6214441,22.5424157 96.0182492,22.5424157 C96.4139042,22.5424157 96.7704537,22.6319014 97.0894313,22.8101014 C97.4072588,22.9879157 97.6556933,23.2370871 97.8362684,23.55723 C98.0156933,23.8769871 98.1050224,24.2387871 98.1050224,24.6430157 C98.1050224,25.0468586 98.0156933,25.4082729 97.8362684,25.72803 C97.6556933,26.0485586 97.4072588,26.2988871 97.0894313,26.4794014 C96.7704537,26.6606871 96.4139042,26.7509443 96.0182492,26.7509443 C95.6214441,26.7509443 95.2648946,26.6606871 94.9470671,26.4794014" id="Fill-16" fill="#494F51"></path>
                    <path d="M108.822288,22.9946657 C109.12708,23.2962943 109.279284,23.7356229 109.279284,24.3122657 L109.279284,26.7117943 L108.724524,26.7117943 L108.724524,24.3678086 C108.724524,23.9373514 108.617176,23.6094943 108.403629,23.3838514 C108.190466,23.1585943 107.884524,23.04558 107.488486,23.04558 C107.045674,23.04558 106.694875,23.1782657 106.43724,23.4432514 C106.17922,23.7082371 106.049636,24.0738943 106.049636,24.5406086 L106.049636,26.7117943 L105.494875,26.7117943 L105.494875,22.5742371 L106.026249,22.5742371 L106.026249,23.33718 C106.177687,23.0849229 106.387016,22.8901371 106.656153,22.7508943 C106.924141,22.6120371 107.23545,22.5422229 107.590083,22.5422229 C108.106505,22.5422229 108.516728,22.6934229 108.822288,22.9946657" id="Fill-17" fill="#494F51"></path>
                    <path d="M117.18901,26.6058386 C116.884217,26.5090243 116.645367,26.3867529 116.473227,26.2397957 L116.723578,25.79931 C116.895335,25.9358529 117.111949,26.0469386 117.372652,26.1337243 C117.632971,26.2201243 117.904792,26.2633243 118.185815,26.2633243 C118.56115,26.2633243 118.838722,26.2039243 119.018147,26.0862814 C119.198722,25.9686386 119.288435,25.80201 119.288435,25.5867814 C119.288435,25.43481 119.238211,25.3156243 119.139681,25.2292243 C119.040767,25.1424386 118.915783,25.0768671 118.764345,25.0321243 C118.612907,24.9877671 118.412396,24.9441814 118.162428,24.9025243 C117.828498,24.8396529 117.560511,24.7752386 117.357316,24.7096671 C117.153355,24.6444814 116.980447,24.5326243 116.837444,24.3752529 C116.693291,24.2182671 116.621981,24.0003386 116.621981,23.7222386 C116.621981,23.3762529 116.765751,23.0931386 117.051757,22.8728957 C117.33853,22.6526529 117.737252,22.5423386 118.247923,22.5423386 C118.514377,22.5423386 118.780447,22.5778243 119.045367,22.6487957 C119.311821,22.7193814 119.530735,22.8127243 119.702875,22.9280529 L119.460192,23.3762529 C119.121661,23.1401957 118.717188,23.0217814 118.247923,23.0217814 C117.893291,23.0217814 117.626454,23.0850386 117.446645,23.2111671 C117.26722,23.33691 117.176741,23.5023814 117.176741,23.7064243 C117.176741,23.8641814 117.227732,23.9899243 117.330096,24.0840386 C117.431693,24.1789243 117.557444,24.2483529 117.708882,24.29271 C117.859553,24.3374529 118.068115,24.3833529 118.334569,24.43041 C118.662748,24.4932814 118.926134,24.5565386 119.124345,24.61941 C119.322173,24.6822814 119.491246,24.78951 119.632332,24.9418671 C119.773419,25.0938386 119.843962,25.3040529 119.843962,25.5709671 C119.843962,25.9331529 119.693674,26.2201243 119.393482,26.4326529 C119.094441,26.6451814 118.67885,26.7508671 118.146326,26.7508671 C117.813546,26.7508671 117.493802,26.7026529 117.18901,26.6058386" id="Fill-18" fill="#494F51"></path>
                    <path d="M38.433393,8.14636286 C37.7693674,8.71722 37.3656613,9.47784857 37.221508,10.4270914 L44.4912843,10.4270914 C44.3624665,9.49404857 43.9714121,8.73727714 43.3154377,8.15832 C42.6594633,7.57897714 41.8436166,7.28969143 40.8686645,7.28969143 C39.9082812,7.28969143 39.0966518,7.57550571 38.433393,8.14636286 M47.2980575,12.4304914 L37.2456613,12.4304914 C37.4212524,13.38012 37.8813163,14.1322629 38.6250863,14.6873057 C39.3688562,15.2423486 40.2920511,15.5196771 41.3958211,15.5196771 C42.8028498,15.5196771 43.9629776,15.0533486 44.8742875,14.11992 L46.4822109,15.9786771 C45.9067476,16.6706486 45.1786965,17.1936771 44.2988243,17.5473771 C43.4189521,17.9018486 42.427131,18.0785057 41.3237444,18.0785057 C39.9163323,18.0785057 38.6768435,17.79732 37.605278,17.2337914 C36.5340958,16.6706486 35.7063642,15.8861057 35.1224665,14.8801629 C34.5385687,13.8746057 34.2464281,12.7363629 34.2464281,11.4650486 C34.2464281,10.2099343 34.5301342,9.07940571 35.0983131,8.07384857 C35.6653419,7.06867714 36.4535847,6.28374857 37.4611246,5.72022 C38.4694313,5.15707714 39.604639,4.87589143 40.8686645,4.87589143 C42.1154377,4.87589143 43.2310927,5.15360571 44.2144792,5.70826286 C45.199016,6.26369143 45.9657891,7.04437714 46.5182492,8.04954857 C47.0695591,9.05549143 47.3452141,10.21842 47.3452141,11.5375629 C47.3452141,11.74662 47.3294952,12.0443914 47.2980575,12.4304914" id="Fill-19" fill="#494F51"></path>
                    <polygon id="Fill-20" fill="#494F51" points="49.5044089 17.90937 52.5036422 17.90937 52.5036422 -0.000115714286 49.5044089 -0.000115714286"></polygon>
                    <polygon id="Fill-21" fill="#494F51" points="54.9979553 17.90937 57.9971885 17.90937 57.9971885 5.02034143 54.9979553 5.02034143"></polygon>
                    <polygon id="Fill-22" fill="#494F51" points="60.4915016 17.90937 63.4907348 17.90937 63.4907348 5.02034143 60.4915016 5.02034143"></polygon>
                    <path d="M77.1410224,6.29971714 C78.1159744,7.24973143 78.6044089,8.65720286 78.6044089,10.5236743 L78.6044089,17.9097171 L75.6051757,17.9097171 L75.6051757,10.9097743 C75.6051757,9.78348857 75.3417891,8.93491714 74.8142492,8.36367429 C74.2859425,7.79281714 73.533738,7.50661714 72.5587859,7.50661714 C71.455016,7.50661714 70.5835783,7.84064571 69.9433227,8.50870286 C69.3042173,9.17637429 68.9840895,10.1375743 68.9840895,11.3930743 L68.9840895,17.9097171 L65.9848562,17.9097171 L65.9848562,5.02068857 L68.8399361,5.02068857 L68.8399361,6.68581714 C69.335655,6.09066 69.9590415,5.64053143 70.711246,5.33427429 C71.4634505,5.02878857 72.3107348,4.87566 73.2546326,4.87566 C74.8698403,4.87566 76.1649201,5.35047429 77.1410224,6.29971714" id="Fill-23" fill="#494F51"></path>
                    <path d="M90.3120767,14.3855614 C91.0309265,13.6457614 91.3905431,12.6718329 91.3905431,11.4649329 C91.3905431,10.2580329 91.0309265,9.28449 90.3120767,8.54430429 C89.5924601,7.80450429 88.68,7.43460429 87.57623,7.43460429 C86.4728435,7.43460429 85.5653674,7.80450429 84.8538019,8.54430429 C84.1414696,9.28449 83.7860703,10.2580329 83.7860703,11.4649329 C83.7860703,12.6718329 84.1414696,13.6457614 84.8538019,14.3855614 C85.5653674,15.1261329 86.4728435,15.4960329 87.57623,15.4960329 C88.68,15.4960329 89.5924601,15.1261329 90.3120767,14.3855614 M84.0739936,17.2336757 C83.0342492,16.6705329 82.2226198,15.88599 81.638722,14.8804329 C81.0552077,13.87449 80.7626837,12.7362471 80.7626837,11.4649329 C80.7626837,10.1940043 81.0552077,9.05923286 81.638722,8.06139 C82.2226198,7.06431857 83.0342492,6.28401857 84.0739936,5.72049 C85.113738,5.15734714 86.2811502,4.87577571 87.57623,4.87577571 C88.8881789,4.87577571 90.0632588,5.15734714 91.1030032,5.72049 C92.1427476,6.28401857 92.954377,7.06431857 93.5378914,8.06139 C94.1217891,9.05923286 94.4139297,10.1940043 94.4139297,11.4649329 C94.4139297,12.7362471 94.1217891,13.87449 93.5378914,14.8804329 C92.954377,15.88599 92.1427476,16.6705329 91.1030032,17.2336757 C90.0632588,17.7972043 88.8881789,18.07839 87.57623,18.07839 C86.2811502,18.07839 85.113738,17.7972043 84.0739936,17.2336757" id="Fill-24" fill="#494F51"></path>
                    <polygon id="Fill-25" fill="#494F51" points="108.208639 5.02053429 102.714326 17.9095629 99.6196294 17.9095629 94.1253163 5.02053429 97.2449329 5.02053429 101.226786 14.57892 105.329789 5.02053429"></polygon>
                    <path d="M115.609802,15.3508114 C116.193316,15.0052114 116.605073,14.51034 116.84584,13.8665829 L116.84584,12.3700114 L113.749994,12.3700114 C112.02322,12.3700114 111.159834,12.94164 111.159834,14.08374 C111.159834,14.6310686 111.375681,15.0653829 111.807374,15.3870686 C112.23945,15.70914 112.839067,15.8695971 113.606607,15.8695971 C114.358045,15.8695971 115.025904,15.6971829 115.609802,15.3508114 M118.344498,6.22712571 C119.344371,7.13664 119.843923,8.50862571 119.843923,10.3426971 L119.843923,17.8972971 L117.01338,17.8972971 L117.01338,16.3285971 C116.644946,16.8921257 116.12124,17.3221971 115.442262,17.6199686 C114.762518,17.9173543 113.942454,18.06624 112.98322,18.06624 C112.02322,18.06624 111.183987,17.9011543 110.464371,17.5717543 C109.744371,17.2419686 109.18846,16.7833543 108.796256,16.1959114 C108.404818,15.6084686 108.208524,14.9446543 108.208524,14.2044686 C108.208524,13.0457829 108.636,12.1165971 109.491719,11.4165257 C110.347438,10.7164543 111.695425,10.3666114 113.53453,10.3666114 L116.84584,10.3666114 L116.84584,10.1737543 C116.84584,9.27272571 116.57747,8.58075429 116.041879,8.09784 C115.505904,7.61531143 114.710377,7.37385429 113.654914,7.37385429 C112.935297,7.37385429 112.227565,7.48648286 111.531719,7.71174 C110.835872,7.93738286 110.247757,8.25096857 109.768524,8.65326857 L108.592677,6.45662571 C109.264371,5.94169714 110.071783,5.54749714 111.015681,5.27402571 C111.959195,5.00055429 112.959067,4.86362571 114.014914,4.86362571 C115.901176,4.86362571 117.345393,5.31838286 118.344498,6.22712571" id="Fill-26" fill="#494F51"></path>
                    <path d="M57.9971502,1.50879857 C57.9971502,0.675655714 57.3258403,-0.000115714286 56.4973419,-0.000115714286 C55.6692268,-0.000115714286 54.9979169,0.675655714 54.9979169,1.50879857 C54.9979169,2.34194143 55.6692268,3.01771286 56.4973419,3.01771286 C57.3258403,3.01771286 57.9971502,2.34194143 57.9971502,1.50879857" id="Fill-27" fill="#494F51"></path>
                    <path d="M63.4905431,1.50879857 C63.4905431,0.675655714 62.8192332,-0.000115714286 61.9911182,-0.000115714286 C61.1626198,-0.000115714286 60.4913099,0.675655714 60.4913099,1.50879857 C60.4913099,2.34194143 61.1626198,3.01771286 61.9911182,3.01771286 C62.8192332,3.01771286 63.4905431,2.34194143 63.4905431,1.50879857" id="Fill-28" fill="#494F51"></path>
                </g>
            </g>
        </g>
    </g>
</svg>