<?xml version="1.0" encoding="utf-8"?>
<!-- Generator: Adobe Illustrator 23.0.1, SVG Export Plug-In . SVG Version: 6.00 Build 0)  -->
<svg version="1.1" id="Layer_1" xmlns="http://www.w3.org/2000/svg" xmlns:xlink="http://www.w3.org/1999/xlink" x="0px" y="0px"
	 viewBox="0 0 212.7 76.6" style="enable-background:new 0 0 212.7 76.6;" xml:space="preserve">
<style type="text/css">
	.st0{fill:#7D3F98;}
</style>
<path class="st0" d="M187.6,45.3c0-2.5,0.3-6.1,0.3-10.3c0-7.8-3.2-10.7-11.9-10.7c-4.2,0-7.9,0.6-10.2,1.6l0.3,6.2
	c2-1.1,4.9-2.1,7.7-2.1c4,0,5.1,1.6,5.1,5.5v0.6c-0.3,0-1,0-1.3,0c-9.8,0-14.4,3-14.4,8.5c0,5.7,2.8,9,10.9,9
	c4.3,0,8.4-0.6,13.9-0.6C187.6,50.9,187.6,47.6,187.6,45.3z M176.2,48.3c-3,0-4.3-1-4.3-3.5c0-2.4,1.6-3.8,5.7-3.8
	c0.4,0,0.8,0,1.2,0c0,2.3-0.1,5.1,0.1,7C178.2,48.2,177.2,48.3,176.2,48.3z M100.6,48c-4.9,0-7.5-2.5-7.5-6.5v-0.2
	c0.9,0,2.6,0.1,3.6,0.1c8.7,0,13.1-2.7,13.1-8.6c0-5.1-3.7-8.4-11.6-8.4c-9.7,0-13.5,4.3-14.4,12c-1.4-0.1-3-0.1-5.1-0.1
	c0-0.4,0-0.8,0-1.3c0-7.8-3.2-10.7-11.9-10.7c-4.2,0-7.9,0.6-10.2,1.6l0.3,6.2c2-1.1,4.9-2.1,7.7-2.1c4,0,5.2,1.6,5.2,5.5l0,0.6
	c-0.3,0-1,0-1.3,0c-9.8,0-14.4,3-14.4,8.5c0,5.7,2.8,9,10.9,9c4.3,0,8.4-0.6,13.9-0.6c-0.4-2.3-0.4-5.6-0.4-7.8
	c0-1.2,0.1-2.6,0.1-4.2c2.3,0,4,0.1,5.1,0.1c0.8,9.2,5.6,12.5,15.4,12.5c3.6,0,7.3-0.6,9.3-1.5l-0.3-6.2
	C106.2,47.1,103.5,48,100.6,48z M67.1,48.3c-3,0-4.3-1-4.3-3.5c0-2.4,1.6-3.8,5.7-3.8c0.4,0,0.8,0,1.2,0c0,2.3-0.1,5.1,0.1,7
	C69.1,48.2,68,48.3,67.1,48.3z M93,36.4c0-3.9,1.2-6.8,4.8-6.8c2,0,3.4,1.1,3.4,3c0,2.7-1.8,4-5.6,4c-0.9,0-1.9,0-2.6-0.1V36.4z
	 M159.6,40.1c0-2.4,0-5.5,0-5.5c0-7.1-3.1-10.2-11.9-10.2c-4.9,0-8.4,0.9-13.9,0.9c0.3,5,0.3,11.1,0.3,14.9c0,3.9-0.1,10.8-0.3,13
	h9.4c-0.2-2.2-0.4-8.7-0.4-13c0-2.5,0-5.5,0.1-9.5c0.9-0.3,2.1-0.6,3.4-0.6c3.3,0,4.4,1.5,4.4,5.8c0,0,0,2.7,0,4.2
	c0,3.9-0.1,10.8-0.3,13h9.4C159.8,50.9,159.6,44.5,159.6,40.1L159.6,40.1z M130,46.9l0.4,6.2c-0.7,0.2-3,0.6-6,0.6
	c-6.2,0-9.5-2.6-9.5-9c0-5,0.1-10.5,0.1-13.5h-3.2c0.1-1.4,0-3.3,0-4.7c4.8-0.8,6.3-3.5,7.1-8.8h5.3c-0.2,2.2-0.3,5.3-0.4,7.5h5.6v6
	h-5.7v10.9c0,4.2,0.9,5.4,3.7,5.4C128.4,47.5,129.5,47.3,130,46.9L130,46.9z M23,21.8c1.2,0,2.3,0.4,3.2,1.3l5.2,5.2l5.2-5.2
	c0.9-0.9,2-1.3,3.2-1.3c1.1,0,2.3,0.4,3.2,1.3l6.4,6.4c1.8,1.8,1.8,4.6,0,6.4L31.4,53.8L13.4,35.8c-1.8-1.8-1.8-4.6,0-6.4l6.4-6.4
	C20.7,22.2,21.8,21.8,23,21.8 M189.4,24.4h4.9v1h-1.9v5h-1.2v-5h-1.9V24.4z M195.4,24.4h1.6l0.8,2.6c0.2,0.8,0.6,2.3,0.6,2.3h0
	c0,0,0.4-1.5,0.6-2.3l0.8-2.6h1.6v6h-1.1v-2.2c0-1.1,0.1-2.7,0.1-2.7h0c0,0-0.4,1.4-0.7,2.6l-0.7,2.3h-1.1l-0.7-2.3
	c-0.4-1.2-0.7-2.6-0.7-2.6h0c0,0,0.1,1.7,0.1,2.7v2.2h-1.1V24.4z"/>
</svg>
