<svg width="160px" height="50px" viewBox="0 0 160 50" version="1.1" xmlns="http://www.w3.org/2000/svg" xmlns:xlink="http://www.w3.org/1999/xlink">
				<!-- Generator: Sketch 50.2 (55047) - http://www.bohemiancoding.com/sketch -->
				<desc>Created with Sketch.</desc>
				<defs></defs>
				<g id="Core" stroke="none" stroke-width="1" fill="none" fill-rule="evenodd">
					<g id="Menu---drop" transform="translate(-20.000000, -10.000000)">
						<g id="Menu---scroll" transform="translate(0.000000, -1.000000)">
							<g id="CareFree-Logo" transform="translate(20.000000, 11.000000)">
								<path d="M57.8832787,36.5059525 L57.0891803,38.2947022 C54.6613115,39.6510069 51.9459016,40.3293258 48.942623,40.3293258 C42.9363934,40.3293258 38.8285246,38.1311194 36.6193443,33.7350396 C35.595082,31.700416 35.0829508,29.4965457 35.0829508,27.1227626 C35.0829508,23.2880618 36.3370492,20.2302959 38.8459016,17.9501315 C41.4114754,15.6000029 44.915082,14.4249386 49.3570492,14.4249386 C52.1757377,14.4249386 54.9318033,14.9453385 57.6242623,15.9858051 L57.8488525,16.2490035 C57.457377,17.8625097 57.2157377,19.750875 57.1239344,21.9137663 L56.9685246,22.0893429 L55.9501639,22.0893429 L55.777377,21.8961087 C55.7429508,20.4818337 55.6796721,19.4996705 55.5878689,18.9499523 C54.1491803,17.3011309 52.0721311,16.4768867 49.3570492,16.4768867 C46.5606557,16.4768867 44.3688525,17.3774251 42.7809836,19.1778355 C41.1931148,20.978579 40.3990164,23.4223263 40.3990164,26.5087441 C40.3990164,30.6832707 41.8144262,33.8869617 44.644918,36.1201503 C46.1521311,37.3128722 48.1714754,37.9089 50.7032787,37.9089 C53.0042623,37.9089 55.2537705,37.3068752 57.4518033,36.1024926 L57.8832787,36.5059525"
								  id="Fill-1" fill="#456AA2"></path>
								<path d="M67.6281967,35.8539534 L67.6281967,32.0235836 C65.942623,32.397392 64.8059016,32.7995192 64.2186885,33.2299652 C63.6311475,33.6610775 63.337377,34.3177409 63.337377,35.1996222 C63.337377,36.611565 63.9452459,37.3175364 65.1609836,37.3175364 C66.192459,37.3175364 67.015082,36.8297865 67.6281967,35.8539534 Z M73.2518033,39.4820935 L73.0829508,39.6530059 C72.224918,39.6010325 71.2390164,39.575379 70.1255738,39.575379 C69.257377,39.575379 68.4245902,39.6010325 67.6281967,39.6530059 L67.4901639,39.4820935 L67.6281967,37.3951633 L64.655082,39.6996486 C64.4203279,39.8758916 64.0829508,39.9848358 63.6439344,40.0264811 C63.4701639,40.0474703 63.2659016,40.0577984 63.0311475,40.0577984 C61.8970492,40.0577984 61.0259016,39.7099767 60.4183607,39.0146664 C59.8104918,38.3193562 59.5068852,37.3591818 59.5068852,36.1341431 C59.5068852,34.51464 60.012459,33.3678945 61.0239344,32.6929072 C62.1167213,31.9562848 64.3180328,31.2916255 67.6281967,30.6999289 C67.6281967,29.0494416 67.1990164,27.9440083 66.3406557,27.3832957 C65.82,27.0408046 65.1967213,26.8695591 64.4714754,26.8695591 C63.6747541,26.8695591 63.0462295,27.035474 62.5865574,27.3676371 L62.0042623,28.8158947 L61.8052459,28.9248388 L61.0239344,28.7382678 L60.9163934,28.5200463 L60.9931148,26.6826549 C62.6786885,25.4163041 63.9452459,24.7000046 64.7931148,24.5337565 C65.1508197,24.4614602 65.6154098,24.4248124 66.187541,24.4248124 C68.2,24.4248124 69.6354098,24.9595382 70.4934426,26.0286568 C71.1163934,26.8072577 71.4281967,28.0013123 71.4281967,29.6101542 C71.4281967,30.0046186 71.4127869,30.6379606 71.3819672,31.509847 C71.3308197,32.9627688 71.3055738,33.9332713 71.3055738,34.4213545 C71.3055738,35.9885511 71.3308197,36.9880387 71.3819672,37.4184847 C71.4331148,37.8492639 71.5531148,38.122124 71.7422951,38.2360656 C71.9311475,38.3503403 72.3832787,38.4176392 73.0983607,38.4386284 L73.2518033,38.6098739 L73.2518033,39.4820935 Z"
								  id="Fill-2" fill="#456AA2"></path>
								<path d="M85.5259016,24.5337565 L85.4186885,27.3056689 C85.4088525,27.7624347 85.3881967,28.2811688 85.3570492,28.8625374 L84.7137705,29.0651003 C84.2337705,28.359462 83.5695082,28.0059765 82.7216393,28.0059765 C81.9557377,28.0059765 81.3222951,28.3178167 80.8216393,28.9404975 C80.5154098,29.3246339 80.3619672,29.8903439 80.3619672,30.6379606 L80.3619672,34.281093 C80.3619672,35.0390378 80.3977049,36.0928309 80.4691803,37.4421392 C80.4898361,37.8259425 80.5970492,38.0751481 80.7911475,38.1894228 C80.984918,38.3036976 81.695082,38.3816576 82.9209836,38.4229698 L83.0740984,38.5632312 L83.0740984,39.5127444 L82.9209836,39.6683313 C81.4193443,39.6063631 79.9278689,39.575379 78.4465574,39.575379 C76.6180328,39.575379 75.2236066,39.6113606 74.2632787,39.6843231 L74.1101639,39.5284031 L74.1101639,38.5788898 L74.2632787,38.4229698 C75.2442623,38.3916525 75.8518033,38.3140256 76.0872131,38.1894228 C76.2911475,38.0958041 76.4036066,37.8465986 76.4239344,37.4421392 C76.4954098,36.0928309 76.5311475,34.6445734 76.5311475,33.0980328 L76.5311475,30.8711744 C76.5311475,28.7952386 76.4547541,27.6015172 76.3016393,27.2900102 C76.1993443,27.08245 75.9796721,26.9525166 75.642623,26.9008764 C75.52,26.8798871 75.0757377,26.8539005 74.3095082,26.8229163 L74.1560656,26.6673294 L74.1560656,25.7951099 L74.3095082,25.6238643 C76.1481967,25.4476214 78.0839344,25.016509 80.1170492,24.3315268 L80.4537705,24.5337565 L80.4236066,27.5858586 C81.0567213,26.8382418 81.822623,25.9663554 82.7216393,24.9698663 C83.1406557,24.5547457 83.7127869,24.3471855 84.4380328,24.3471855 C84.8672131,24.3471855 85.2298361,24.4091537 85.5259016,24.5337565"
								  id="Fill-3" fill="#456AA2"></path>
								<path d="M95.517377,30.4350646 C95.517377,27.6325013 94.6593443,26.2312197 92.9429508,26.2312197 C91.1347541,26.2312197 90.2311475,27.6221733 90.2311475,30.4044137 L90.2311475,30.7465716 C90.8232787,30.8401903 91.8754098,30.886833 93.387541,30.886833 C94.1737705,30.886833 94.8786885,30.8401903 95.5019672,30.7465716 C95.5121311,30.6013127 95.517377,30.497366 95.517377,30.4350646 Z M99.5167213,30.8401903 C99.5167213,31.0164333 99.5111475,31.2812975 99.5013115,31.6344498 L99.332459,31.8520049 C97.9842623,32.2258133 96.1967213,32.4127175 93.9695082,32.4127175 C93.5711475,32.4127175 92.9681967,32.4203802 92.1613115,32.4360389 C91.3544262,32.4516975 90.7465574,32.4596934 90.3383607,32.4596934 C90.3993443,33.9855779 90.8639344,35.2465981 91.732459,36.2430872 C92.6413115,37.3122058 93.8262295,37.8465986 95.2878689,37.8465986 C96.2681967,37.8465986 97.432459,37.5041075 98.7813115,36.8191253 L99.1488525,37.2705605 L98.4744262,38.8124368 C96.9829508,39.7772755 95.3642623,40.2603612 93.617377,40.2603612 C91.3186885,40.2603612 89.5337705,39.6010325 88.2616393,38.2827083 C86.9901639,36.9647173 86.3540984,35.0856806 86.3540984,32.6462644 C86.3540984,29.7500824 87.0334426,27.7677653 88.3921311,26.6983135 C90.2718033,25.2244025 92.0540984,24.4871137 93.74,24.4871137 C95.5685246,24.4871137 96.9829508,25.0218396 97.9842623,26.0909582 C99.0055738,27.1913941 99.5167213,28.7745825 99.5167213,30.8401903 Z"
								  id="Fill-4" fill="#456AA2"></path>
								<path d="M117.919672,15.5996698 L117.700984,17.5476711 C117.656066,17.9807824 117.605574,18.5504904 117.549508,19.2564618 L117.448525,20.6237609 L117.280656,20.8116646 L116.305246,20.8116646 L116.136721,20.6407522 C116.114426,19.1028739 116.024918,18.2256569 115.867869,18.0091013 C115.609836,17.655949 114.045574,17.4793728 111.175738,17.4793728 C110.716066,17.4793728 109.992787,17.5133554 109.00623,17.5819869 C108.882951,18.7440578 108.821639,20.8286559 108.821639,23.8364473 L108.821639,26.1435979 L110.721967,26.1945718 C111.29377,26.2058993 112.353115,26.1835774 113.900328,26.1262735 C114.202951,26.1152791 114.40459,26.0296563 114.505902,25.8697383 C114.67377,25.596545 114.774754,24.8445972 114.808525,23.6142279 L114.976393,23.4433155 L116.019344,23.4433155 L116.187541,23.6142279 C116.142623,24.8902404 116.120328,26.0579751 116.120328,27.117432 C116.120328,28.2681754 116.142623,29.5271967 116.187541,30.8941626 L116.019344,31.0477505 L114.892459,31.0477505 L114.724262,30.8768382 C114.724262,29.6807846 114.67377,28.9801438 114.573115,28.7752488 C114.382295,28.3764533 113.804918,28.1372426 112.840984,28.0576167 C112.179016,28.0006459 111.52918,27.9719939 110.889836,27.9719939 C110.116393,27.9719939 109.426885,27.9893184 108.821639,28.023301 L108.821639,32.0902161 C108.821639,34.7904986 108.894426,36.55626 109.04,37.3875006 C109.096066,37.718331 109.286557,37.9288897 109.611803,38.0201762 C109.690164,38.0428313 110.492131,38.0998021 112.016721,38.1910886 L112.184918,38.3616679 L112.184918,39.5067475 L112,39.6779931 L105.239344,39.575379 C104.275082,39.5640515 102.940984,39.5977009 101.236721,39.6779931 L101.068525,39.524072 L101.068525,38.3616679 L101.236721,38.1910886 C102.380328,38.1227903 103.036066,38.0658195 103.20459,38.0201762 C103.529508,37.9288897 103.72,37.718331 103.776393,37.3875006 C103.921639,36.55626 103.994754,34.7904986 103.994754,32.0902161 L103.994754,23.0501837 C103.994754,20.3502345 103.921639,18.584473 103.776393,17.7525661 C103.72,17.422402 103.529508,17.2118433 103.20459,17.1202236 C103.036066,17.0749135 102.380328,17.0179427 101.236721,16.9496444 L101.068525,16.778732 L101.068525,15.616661 L101.236721,15.4627399 C102.313115,15.5313714 104.039672,15.565354 106.416721,15.565354 C107.952459,15.565354 111.73082,15.5313714 117.751475,15.4627399 L117.919672,15.5996698"
								  id="Fill-5" fill="#456AA2"></path>
								<path d="M130.69082,24.5337565 L130.583279,27.3056689 C130.573443,27.7624347 130.552787,28.2811688 130.521967,28.8625374 L129.878361,29.0651003 C129.398361,28.359462 128.734426,28.0059765 127.886557,28.0059765 C127.120328,28.0059765 126.486885,28.3178167 125.98623,28.9404975 C125.68,29.3246339 125.526885,29.8903439 125.526885,30.6379606 L125.526885,34.281093 C125.526885,35.0390378 125.562295,36.0928309 125.634098,37.4421392 C125.654426,37.8259425 125.761639,38.0751481 125.956066,38.1894228 C126.149508,38.3036976 126.859672,38.3816576 128.085902,38.4229698 L128.238689,38.5632312 L128.238689,39.5127444 L128.085902,39.6683313 C126.584262,39.6063631 125.092459,39.575379 123.611475,39.575379 C121.782623,39.575379 120.388197,39.6113606 119.428197,39.6843231 L119.275082,39.5284031 L119.275082,38.5788898 L119.428197,38.4229698 C120.40918,38.3916525 121.016393,38.3140256 121.251475,38.1894228 C121.455738,38.0958041 121.568197,37.8465986 121.588852,37.4421392 C121.66,36.0928309 121.696066,34.6445734 121.696066,33.0980328 L121.696066,30.8711744 C121.696066,28.7952386 121.619344,27.6015172 121.46623,27.2900102 C121.363934,27.08245 121.14459,26.9525166 120.807213,26.9008764 C120.68459,26.8798871 120.240328,26.8539005 119.474098,26.8229163 L119.320984,26.6673294 L119.320984,25.7951099 L119.474098,25.6238643 C121.312787,25.4476214 123.248852,25.016509 125.281639,24.3315268 L125.618689,24.5337565 L125.588197,27.5858586 C126.221311,26.8382418 126.987541,25.9663554 127.886557,24.9698663 C128.305246,24.5547457 128.877377,24.3471855 129.602951,24.3471855 C130.031803,24.3471855 130.394426,24.4091537 130.69082,24.5337565"
								  id="Fill-6" fill="#456AA2"></path>
								<path d="M140.681967,30.4350646 C140.681967,27.6325013 139.823607,26.2312197 138.107869,26.2312197 C136.299344,26.2312197 135.395738,27.6221733 135.395738,30.4044137 L135.395738,30.7465716 C135.987869,30.8401903 137.04,30.886833 138.552131,30.886833 C139.338361,30.886833 140.043279,30.8401903 140.666557,30.7465716 C140.676721,30.6013127 140.681967,30.497366 140.681967,30.4350646 Z M144.681311,30.8401903 C144.681311,31.0164333 144.675738,31.2812975 144.665902,31.6344498 L144.497377,31.8520049 C143.148852,32.2258133 141.361311,32.4127175 139.134098,32.4127175 C138.735738,32.4127175 138.132787,32.4203802 137.325902,32.4360389 C136.519016,32.4516975 135.911148,32.4596934 135.502951,32.4596934 C135.563934,33.9855779 136.028852,35.2465981 136.897049,36.2430872 C137.80623,37.3122058 138.99082,37.8465986 140.452131,37.8465986 C141.433115,37.8465986 142.597049,37.5041075 143.945902,36.8191253 L144.313443,37.2705605 L143.639344,38.8124368 C142.147541,39.7772755 140.528852,40.2603612 138.781967,40.2603612 C136.483279,40.2603612 134.698361,39.6010325 133.426557,38.2827083 C132.154754,36.9647173 131.518689,35.0856806 131.518689,32.6462644 C131.518689,29.7500824 132.198033,27.7677653 133.556721,26.6983135 C135.436393,25.2244025 137.218689,24.4871137 138.90459,24.4871137 C140.733115,24.4871137 142.147541,25.0218396 143.148852,26.0909582 C144.170164,27.1913941 144.681311,28.7745825 144.681311,30.8401903 Z"
								  id="Fill-7" fill="#456AA2"></path>
								<path d="M155.744918,30.4350646 C155.744918,27.6325013 154.886885,26.2312197 153.17082,26.2312197 C151.362623,26.2312197 150.458689,27.6221733 150.458689,30.4044137 L150.458689,30.7465716 C151.051148,30.8401903 152.103279,30.886833 153.615082,30.886833 C154.401639,30.886833 155.106557,30.8401903 155.729836,30.7465716 C155.739672,30.6013127 155.744918,30.497366 155.744918,30.4350646 Z M159.744262,30.8401903 C159.744262,31.0164333 159.739344,31.2812975 159.728852,31.6344498 L159.560656,31.8520049 C158.211803,32.2258133 156.424262,32.4127175 154.197377,32.4127175 C153.799016,32.4127175 153.196066,32.4203802 152.389508,32.4360389 C151.582295,32.4516975 150.974098,32.4596934 150.565902,32.4596934 C150.627213,33.9855779 151.092131,35.2465981 151.960328,36.2430872 C152.869508,37.3122058 154.054098,37.8465986 155.51541,37.8465986 C156.496066,37.8465986 157.660328,37.5041075 159.008852,36.8191253 L159.376393,37.2705605 L158.702623,38.8124368 C157.21082,39.7772755 155.591803,40.2603612 153.844918,40.2603612 C151.54623,40.2603612 149.761311,39.6010325 148.489508,38.2827083 C147.217705,36.9647173 146.581967,35.0856806 146.581967,32.6462644 C146.581967,29.7500824 147.261311,27.7677653 148.62,26.6983135 C150.499344,25.2244025 152.282295,24.4871137 153.967541,24.4871137 C155.796066,24.4871137 157.21082,25.0218396 158.211803,26.0909582 C159.233443,27.1913941 159.744262,28.7745825 159.744262,30.8401903 Z"
								  id="Fill-8" fill="#456AA2"></path>
								<polygon id="Fill-9" fill="#456AA2" points="42.7314754 49.5619262 43.6177049 49.5619262 43.6177049 45.1028787 42.7314754 45.1028787"></polygon>
								<polyline id="Fill-10" fill="#456AA2" points="46.9842623 49.5619262 46.9842623 45.1028787 47.8462295 45.1028787 49.6422951 48.0806856 49.6422951 45.1028787 50.4655738 45.1028787 50.4655738 49.5619262 49.5763934 49.5619262 47.8072131 46.6540835 47.8072131 49.5619262 46.9842623 49.5619262"></polyline>
								<path d="M53.6911475,48.1110033 L54.5534426,48.0260469 C54.6052459,48.3198963 54.7104918,48.5357856 54.8691803,48.6737149 C55.0278689,48.8116442 55.2416393,48.880942 55.5111475,48.880942 C55.7963934,48.880942 56.0114754,48.8193069 56.1560656,48.6967031 C56.3006557,48.5740993 56.3731148,48.4305062 56.3731148,48.2662571 C56.3731148,48.1606446 56.342623,48.0710238 56.2819672,47.9970618 C56.2209836,47.9230997 56.1147541,47.8587993 55.9632787,47.8038275 C55.8593443,47.7675128 55.622623,47.7022129 55.2537705,47.6089274 C54.7786885,47.4896552 54.4455738,47.3423974 54.2537705,47.1681534 C53.9845902,46.9229457 53.8498361,46.6234326 53.8498361,46.2709466 C53.8498361,46.0437298 53.9131148,45.8315052 54.04,45.6332735 C54.1665574,45.4360413 54.3491803,45.2854518 54.587541,45.1818383 C54.8262295,45.0785579 55.1140984,45.0269177 55.4514754,45.0269177 C56.0019672,45.0269177 56.4167213,45.1495215 56.695082,45.3950623 C56.9734426,45.6402699 57.1196721,45.9674355 57.1334426,46.3775586 L56.247541,46.4168718 C56.2095082,46.1879892 56.1281967,46.0227405 56.0036066,45.9227918 C55.8790164,45.8221767 55.6918033,45.7718691 55.4422951,45.7718691 C55.184918,45.7718691 54.9832787,45.8258415 54.8377049,45.933453 C54.7439344,46.0020845 54.6970492,46.0943705 54.6970492,46.2099779 C54.6970492,46.3155904 54.7409836,46.4058775 54.8288525,46.4805059 C54.9403279,46.5761235 55.2118033,46.6750728 55.6429508,46.7786863 C56.0737705,46.8822999 56.3927869,46.9892451 56.5993443,47.099855 C56.8059016,47.2101318 56.967541,47.3613876 57.0842623,47.5529561 C57.2009836,47.7441914 57.2593443,47.98107 57.2593443,48.2632586 C57.2593443,48.5187943 57.1895082,48.7576718 57.0498361,48.9808907 C56.9101639,49.2037765 56.712459,49.3696914 56.4570492,49.4783024 C56.2016393,49.5869134 55.8832787,49.6412189 55.5019672,49.6412189 C54.9472131,49.6412189 54.5213115,49.5106192 54.2239344,49.2500861 C53.9265574,48.9898861 53.7491803,48.6097477 53.6911475,48.1110033"
								  id="Fill-12" fill="#456AA2"></path>
								<path d="M60.5121311,45.1028787 L61.3980328,45.1028787 L61.3980328,47.5183072 C61.3980328,47.9011109 61.4091803,48.1496502 61.4311475,48.2632586 C61.4691803,48.4454985 61.5593443,48.5920901 61.7019672,48.7023669 C61.8445902,48.8129768 62.0396721,48.8682818 62.2872131,48.8682818 C62.5386885,48.8682818 62.7281967,48.8163085 62.8560656,48.7120286 C62.9836066,48.6074155 63.0606557,48.4788148 63.0865574,48.3268927 C63.1121311,48.1746374 63.1252459,47.9227665 63.1252459,47.5699474 L63.1252459,45.1028787 L64.0111475,45.1028787 L64.0111475,47.4450114 C64.0111475,47.9800705 63.987541,48.3585431 63.9396721,48.5794299 C63.8914754,48.8006498 63.8032787,48.9868877 63.6747541,49.139143 C63.5459016,49.2913982 63.3737705,49.4123362 63.1583607,49.5026233 C62.942623,49.5925772 62.6613115,49.6378873 62.3140984,49.6378873 C61.895082,49.6378873 61.577377,49.5889124 61.3606557,49.4906294 C61.1442623,49.3923465 60.9731148,49.2644121 60.847541,49.1071594 C60.7216393,48.9502398 60.6386885,48.7853243 60.5990164,48.6127461 C60.5409836,48.3572105 60.5121311,47.9800705 60.5121311,47.4813261 L60.5121311,45.1028787"
								  id="Fill-13" fill="#456AA2"></path>
								<path d="M68.347541,46.9889119 L69.0032787,46.9889119 C69.4281967,46.9889119 69.6937705,46.970588 69.7993443,46.9339401 C69.9052459,46.8972922 69.9878689,46.8346576 70.0478689,46.7453701 C70.1078689,46.6560825 70.1377049,46.5448062 70.1377049,46.4108749 C70.1377049,46.2606186 70.0983607,46.1396806 70.0196721,46.0473946 C69.9406557,45.9551085 69.8295082,45.8968051 69.6859016,45.8721511 C69.6137705,45.8621562 69.3983607,45.8571587 69.0390164,45.8571587 L68.347541,45.8571587 L68.347541,46.9889119 Z M67.4616393,49.5619262 L67.4616393,45.1028787 L69.3265574,45.1028787 C69.7954098,45.1028787 70.1363934,45.1428583 70.3488525,45.2228173 C70.5613115,45.3031094 70.7314754,45.445703 70.8590164,45.6502648 C70.9868852,45.8551598 71.0508197,46.089373 71.0508197,46.3532378 C71.0508197,46.687733 70.9537705,46.9639247 70.7603279,47.181813 C70.5668852,47.3997013 70.277377,47.5369643 69.8921311,47.5939351 C70.0836066,47.7075435 70.2419672,47.8324795 70.3665574,47.9680766 C70.4914754,48.1040069 70.6596721,48.3452166 70.8711475,48.6920388 L71.4068852,49.5619262 L70.3472131,49.5619262 L69.7065574,48.5917569 C69.4790164,48.2449347 69.3236066,48.0263801 69.2396721,47.9364262 C69.1557377,47.845806 69.0672131,47.7841709 68.9734426,47.7505215 C68.8796721,47.7172052 68.7308197,47.7005471 68.5272131,47.7005471 L68.347541,47.7005471 L68.347541,49.5619262 L67.4616393,49.5619262 Z"
								  id="Fill-15" fill="#456AA2"></path>
								<path d="M76.7252459,47.7978306 L76.1206557,46.1430122 L75.5278689,47.7978306 L76.7252459,47.7978306 Z M78.3563934,49.5619262 L77.392459,49.5619262 L77.0095082,48.5487789 L75.2554098,48.5487789 L74.8931148,49.5619262 L73.9534426,49.5619262 L75.662623,45.1028787 L76.5993443,45.1028787 L78.3563934,49.5619262 Z"
								  id="Fill-16" fill="#456AA2"></path>
								<polyline id="Fill-17" fill="#456AA2" points="81.3488525 49.5619262 81.3488525 45.1028787 82.2108197 45.1028787 84.0068852 48.0806856 84.0068852 45.1028787 84.8301639 45.1028787 84.8301639 49.5619262 83.9409836 49.5619262 82.1721311 46.6540835 82.1721311 49.5619262 81.3488525 49.5619262"></polyline>
								<path d="M91.0881967,47.9227665 L91.9472131,48.1996246 C91.8157377,48.6860419 91.5967213,49.0475233 91.2901639,49.2837355 C90.9839344,49.5199477 90.5954098,49.6378873 90.1242623,49.6378873 C89.5416393,49.6378873 89.062623,49.4359908 88.687541,49.0311983 C88.312459,48.626739 88.124918,48.0736891 88.124918,47.3717157 C88.124918,46.6300958 88.3134426,46.0533915 88.6904918,45.6429352 C89.067541,45.2321458 89.5636066,45.0269177 90.1783607,45.0269177 C90.715082,45.0269177 91.1508197,45.1881684 91.4862295,45.5103365 C91.6859016,45.7012387 91.8354098,45.9750983 91.9354098,46.3315822 L91.0583607,46.5448062 C91.0062295,46.3132583 90.8980328,46.1310184 90.7334426,45.997087 C90.5688525,45.8634888 90.3688525,45.7965232 90.1334426,45.7965232 C89.8081967,45.7965232 89.5439344,45.915129 89.3416393,46.1523408 C89.1393443,46.3895525 89.0377049,46.7736889 89.0377049,47.3050832 C89.0377049,47.8687942 89.1377049,48.270255 89.3370492,48.5094658 C89.5363934,48.7490096 89.7960656,48.8682818 90.1154098,48.8682818 C90.3508197,48.8682818 90.5534426,48.7926539 90.7232787,48.6403986 C90.892459,48.4884765 91.0144262,48.2489326 91.0881967,47.9227665"
								  id="Fill-19" fill="#456AA2"></path>
								<polyline id="Fill-20" fill="#456AA2" points="95.2209836 49.5619262 95.2209836 45.1028787 98.4747541 45.1028787 98.4747541 45.8571587 96.1072131 45.8571587 96.1072131 46.845652 98.3101639 46.845652 98.3101639 47.5969335 96.1072131 47.5969335 96.1072131 48.8109779 98.5586885 48.8109779 98.5586885 49.5619262 95.2209836 49.5619262"></polyline>
								<path d="M105.815738,48.1110033 L106.677705,48.0260469 C106.729508,48.3198963 106.834754,48.5357856 106.993443,48.6737149 C107.152131,48.8116442 107.365902,48.880942 107.635738,48.880942 C107.920984,48.880942 108.135738,48.8193069 108.280656,48.6967031 C108.425574,48.5740993 108.497705,48.4305062 108.497705,48.2662571 C108.497705,48.1606446 108.467213,48.0710238 108.40623,47.9970618 C108.345574,47.9230997 108.239016,47.8587993 108.087541,47.8038275 C107.983607,47.7675128 107.747213,47.7022129 107.378033,47.6089274 C106.902951,47.4896552 106.570164,47.3423974 106.378361,47.1681534 C106.108852,46.9229457 105.974098,46.6234326 105.974098,46.2709466 C105.974098,46.0437298 106.037705,45.8315052 106.164262,45.6332735 C106.291148,45.4360413 106.47377,45.2854518 106.711803,45.1818383 C106.950492,45.0785579 107.238361,45.0269177 107.575738,45.0269177 C108.126557,45.0269177 108.540984,45.1495215 108.819344,45.3950623 C109.098033,45.6402699 109.243934,45.9674355 109.258033,46.3775586 L108.371803,46.4168718 C108.334098,46.1879892 108.252459,46.0227405 108.128197,45.9227918 C108.003279,45.8221767 107.816066,45.7718691 107.566885,45.7718691 C107.309508,45.7718691 107.107541,45.8258415 106.961967,45.933453 C106.868197,46.0020845 106.821311,46.0943705 106.821311,46.2099779 C106.821311,46.3155904 106.865246,46.4058775 106.953115,46.4805059 C107.06459,46.5761235 107.336393,46.6750728 107.767213,46.7786863 C108.198033,46.8822999 108.517049,46.9892451 108.723607,47.099855 C108.930164,47.2101318 109.091803,47.3613876 109.208525,47.5529561 C109.325246,47.7441914 109.383934,47.98107 109.383934,48.2632586 C109.383934,48.5187943 109.31377,48.7576718 109.174098,48.9808907 C109.034098,49.2037765 108.837049,49.3696914 108.581311,49.4783024 C108.325902,49.5869134 108.007541,49.6412189 107.626557,49.6412189 C107.071803,49.6412189 106.645902,49.5106192 106.348525,49.2500861 C106.051148,48.9898861 105.873443,48.6097477 105.815738,48.1110033"
								  id="Fill-21" fill="#456AA2"></path>
								<polyline id="Fill-23" fill="#456AA2" points="112.642295 49.5619262 112.642295 45.1028787 115.896066 45.1028787 115.896066 45.8571587 113.528525 45.8571587 113.528525 46.845652 115.731475 46.845652 115.731475 47.5969335 113.528525 47.5969335 113.528525 48.8109779 115.98 48.8109779 115.98 49.5619262 112.642295 49.5619262"></polyline>
								<path d="M120.13377,46.9889119 L120.789508,46.9889119 C121.214426,46.9889119 121.479672,46.970588 121.585574,46.9339401 C121.691475,46.8972922 121.774098,46.8346576 121.83377,46.7453701 C121.89377,46.6560825 121.923934,46.5448062 121.923934,46.4108749 C121.923934,46.2606186 121.884262,46.1396806 121.805246,46.0473946 C121.726557,45.9551085 121.615082,45.8968051 121.471803,45.8721511 C121.399672,45.8621562 121.184262,45.8571587 120.825246,45.8571587 L120.13377,45.8571587 L120.13377,46.9889119 Z M119.247869,49.5619262 L119.247869,45.1028787 L121.112459,45.1028787 C121.581639,45.1028787 121.922295,45.1428583 122.134426,45.2228173 C122.347541,45.3031094 122.517377,45.445703 122.645246,45.6502648 C122.773115,45.8551598 122.836721,46.089373 122.836721,46.3532378 C122.836721,46.687733 122.74,46.9639247 122.54623,47.181813 C122.352787,47.3997013 122.063607,47.5369643 121.678361,47.5939351 C121.869836,47.7075435 122.027869,47.8324795 122.152459,47.9680766 C122.277377,48.1040069 122.445902,48.3452166 122.657049,48.6920388 L123.192787,49.5619262 L122.133115,49.5619262 L121.492787,48.5917569 C121.265246,48.2449347 121.109508,48.0263801 121.025574,47.9364262 C120.941967,47.845806 120.853115,47.7841709 120.759344,47.7505215 C120.665574,47.7172052 120.517049,47.7005471 120.313443,47.7005471 L120.13377,47.7005471 L120.13377,49.5619262 L119.247869,49.5619262 Z"
								  id="Fill-24" fill="#456AA2"></path>
								<polyline id="Fill-25" fill="#456AA2" points="127.194098 49.5619262 125.625574 45.1028787 126.58623 45.1028787 127.696721 48.4031869 128.771475 45.1028787 129.711475 45.1028787 128.14 49.5619262 127.194098 49.5619262"></polyline>
								<polygon id="Fill-26" fill="#456AA2" points="132.650164 49.5619262 133.536066 49.5619262 133.536066 45.1028787 132.650164 45.1028787"></polygon>
								<path d="M139.700984,47.9227665 L140.560656,48.1996246 C140.428525,48.6860419 140.209508,49.0475233 139.903279,49.2837355 C139.597049,49.5199477 139.208525,49.6378873 138.737377,49.6378873 C138.154754,49.6378873 137.675738,49.4359908 137.300328,49.0311983 C136.925574,48.626739 136.737705,48.0736891 136.737705,47.3717157 C136.737705,46.6300958 136.926557,46.0533915 137.303607,45.6429352 C137.680656,45.2321458 138.176393,45.0269177 138.791148,45.0269177 C139.328197,45.0269177 139.763934,45.1881684 140.099016,45.5103365 C140.299016,45.7012387 140.448852,45.9750983 140.548197,46.3315822 L139.671475,46.5448062 C139.619016,46.3132583 139.51082,46.1310184 139.34623,45.997087 C139.181639,45.8634888 138.981639,45.7965232 138.74623,45.7965232 C138.420984,45.7965232 138.157049,45.915129 137.954426,46.1523408 C137.752131,46.3895525 137.65082,46.7736889 137.65082,47.3050832 C137.65082,47.8687942 137.750492,48.270255 137.950164,48.5094658 C138.149508,48.7490096 138.40918,48.8682818 138.728525,48.8682818 C138.963607,48.8682818 139.166557,48.7926539 139.336066,48.6403986 C139.505574,48.4884765 139.627541,48.2489326 139.700984,47.9227665"
								  id="Fill-28" fill="#456AA2"></path>
								<polyline id="Fill-29" fill="#456AA2" points="143.834098 49.5619262 143.834098 45.1028787 147.087869 45.1028787 147.087869 45.8571587 144.720328 45.8571587 144.720328 46.845652 146.923279 46.845652 146.923279 47.5969335 144.720328 47.5969335 144.720328 48.8109779 147.171803 48.8109779 147.171803 49.5619262 143.834098 49.5619262"></polyline>
								<path d="M150.211803,48.1110033 L151.074098,48.0260469 C151.125902,48.3198963 151.231148,48.5357856 151.389836,48.6737149 C151.548525,48.8116442 151.762623,48.880942 152.032131,48.880942 C152.317049,48.880942 152.532131,48.8193069 152.677049,48.6967031 C152.821639,48.5740993 152.894098,48.4305062 152.894098,48.2662571 C152.894098,48.1606446 152.863607,48.0710238 152.802623,47.9970618 C152.741967,47.9230997 152.635738,47.8587993 152.483934,47.8038275 C152.38,47.7675128 152.143934,47.7022129 151.774426,47.6089274 C151.299344,47.4896552 150.96623,47.3423974 150.774754,47.1681534 C150.505574,46.9229457 150.370492,46.6234326 150.370492,46.2709466 C150.370492,46.0437298 150.43377,45.8315052 150.560656,45.6332735 C150.687213,45.4360413 150.870164,45.2854518 151.108197,45.1818383 C151.346885,45.0785579 151.634754,45.0269177 151.971803,45.0269177 C152.522623,45.0269177 152.937705,45.1495215 153.215738,45.3950623 C153.494098,45.6402699 153.64,45.9674355 153.654426,46.3775586 L152.768197,46.4168718 C152.730492,46.1879892 152.648852,46.0227405 152.524262,45.9227918 C152.399344,45.8221767 152.212459,45.7718691 151.963279,45.7718691 C151.705574,45.7718691 151.503934,45.8258415 151.358361,45.933453 C151.26459,46.0020845 151.217377,46.0943705 151.217377,46.2099779 C151.217377,46.3155904 151.261639,46.4058775 151.34918,46.4805059 C151.461311,46.5761235 151.732787,46.6750728 152.163607,46.7786863 C152.594754,46.8822999 152.913443,46.9892451 153.12,47.099855 C153.326557,47.2101318 153.488197,47.3613876 153.604918,47.5529561 C153.721639,47.7441914 153.78,47.98107 153.78,48.2632586 C153.78,48.5187943 153.710164,48.7576718 153.570492,48.9808907 C153.430492,49.2037765 153.233443,49.3696914 152.977705,49.4783024 C152.722295,49.5869134 152.404262,49.6412189 152.022623,49.6412189 C151.468197,49.6412189 151.041967,49.5106192 150.74459,49.2500861 C150.447541,48.9898861 150.269836,48.6097477 150.211803,48.1110033"
								  id="Fill-30" fill="#456AA2"></path>
								<path d="M2.1904918,28.9768122 C2.1904918,28.9768122 4.91901639,33.7540299 8.30819672,35.6540559 C12.6891803,38.109797 14.6937705,38.5199201 18.2783607,38.4169728 C21.862623,38.3143588 26.6822951,36.3600273 28.9711475,37.568741 C28.9711475,37.568741 24.9668852,32.5746345 18.8822951,32.8145115 C12.7980328,33.0543885 10.7252459,34.272764 2.1904918,28.9768122"
								  id="Fill-34" fill="#97BD4D"></path>
								<path d="M0,16.6204798 C0,16.6204798 2.49344262,22.0810139 6.26918033,24.7613065 C10.044918,27.4415992 13.2370492,28.1745568 17.5108197,28.8955205 C21.7842623,29.6168174 27.5960656,30.2341676 30.0045902,32.157515 C30.0045902,32.157515 26.2842623,24.3888308 17.3718033,22.6067444 C10.1521311,21.1631511 8.76229508,22.9758885 0,16.6204798"
								  id="Fill-32" fill="#00A2D7"></path>
								<path d="M0,0.195899575 C0,0.195899575 0.981967213,7.41053444 4.60721311,11.2479006 C8.23278689,15.0852668 11.6318033,16.6204798 16.2390164,18.3855749 C20.8462295,20.1506701 27.1908197,22.1463137 29.4567213,24.8322701 C29.4567213,24.8322701 25.4534426,15.0086394 17.5983607,12.0921345 C9.74327869,9.1756296 8.38393443,9.25225698 0,0.195899575"
								  id="Fill-31" fill="#456AA2"></path>
							</g>
						</g>
					</g>
				</g>
			</svg>