<?xml version="1.0" encoding="UTF-8"?>
<svg width="64px" height="64px" viewBox="0 0 64 64" version="1.1" xmlns="http://www.w3.org/2000/svg" xmlns:xlink="http://www.w3.org/1999/xlink">
    <!-- Generator: Sketch 52.4 (67378) - http://www.bohemiancoding.com/sketch -->
    <title>crea icon</title>
    <desc>Created with Sketch.</desc>
    <g id="Comp" stroke="none" stroke-width="1" fill="none" fill-rule="evenodd" opacity="0.44" stroke-linecap="round" stroke-linejoin="round">
        <g id="Landing" transform="translate(-1084.000000, -2289.000000)" stroke="#FFFFFF" stroke-width="2.25">
            <g id="offerings-white" transform="translate(172.000000, 2045.000000)">
                <g id="creative" transform="translate(824.000000, 246.000000)">
                    <g id="crea-icon" transform="translate(90.000000, 0.000000)">
                        <path d="M10,0 L10,2" id="Stroke-1"></path>
                        <path d="M2,10 L0,10" id="Stroke-3"></path>
                        <path d="M10,60 L10,58" id="Stroke-5"></path>
                        <path d="M2,50 L0,50" id="Stroke-7"></path>
                        <path d="M50,0 L50,2" id="Stroke-9"></path>
                        <path d="M58,10 L60,10" id="Stroke-11"></path>
                        <path d="M50,60 L50,58" id="Stroke-13"></path>
                        <path d="M58,50 L60,50" id="Stroke-15"></path>
                        <polygon id="Stroke-18" points="10 50 50 50 50 10 10 10"></polygon>
                        <path d="M28,36 L22,36 C19.7893333,36 18,34.208 18,32 L18,22 C18,19.7893333 19.7893333,18 22,18 L28,18 C30.2106667,18 32,19.7893333 32,22 L32,24" id="Stroke-19"></path>
                        <path d="M30.6666667,24 L39.3333333,24 C40.808,24 42,25.1946667 42,26.6666667 L42,39.3333333 C42,40.808 40.808,42 39.3333333,42 L30.6666667,42 C29.1946667,42 28,40.808 28,39.3333333 L28,26.6666667 C28,25.1946667 29.1946667,24 30.6666667,24 Z" id="Stroke-21"></path>
                    </g>
                </g>
            </g>
        </g>
    </g>
</svg>