<?xml version="1.0" encoding="UTF-8"?>
<svg width="68px" height="68px" viewBox="0 0 68 68" version="1.1" xmlns="http://www.w3.org/2000/svg" xmlns:xlink="http://www.w3.org/1999/xlink">
    <!-- Generator: Sketch 52.4 (67378) - http://www.bohemiancoding.com/sketch -->
    <title>digi icon</title>
    <desc>Created with Sketch.</desc>
    <g id="Comp" stroke="none" stroke-width="1" fill="none" fill-rule="evenodd" opacity="0.44" stroke-linecap="round" stroke-linejoin="round">
        <g id="Landing" transform="translate(-285.000000, -2285.000000)" stroke="#FFFFFF" stroke-width="2.25">
            <g id="offerings-white" transform="translate(172.000000, 2045.000000)">
                <g id="digital" transform="translate(32.000000, 237.000000)">
                    <g id="digi-icon" transform="translate(83.000000, 0.000000)">
                        <path d="M14.7543366,38.0058039 C15.8511262,39.2156645 17.7196258,39.3089481 18.9323132,38.2149854 C19.0029826,38.1471427 19.073652,38.0793001 19.1386679,38.0058039 L20.5520564,36.4341158 C21.6460192,35.2242552 23.5145188,35.1281448 24.7243794,36.2221075 C25.3830185,36.8185575 25.7391924,37.6778977 25.693964,38.5655057 L25.5837197,40.6771082 C25.4960896,42.3081586 26.7483518,43.6989329 28.3794022,43.786563 C28.483993,43.7922166 28.5885837,43.7922166 28.6931745,43.786563 L30.8047769,43.6791455 C32.4330005,43.5971689 33.8237749,44.8494312 33.9057514,46.4804816 C33.9509798,47.3652628 33.5948059,48.2274298 32.9361669,48.821053 L31.3644788,50.2344415 C30.1546182,51.3284043 30.0613346,53.1997307 31.1552973,54.4095913 C31.22314,54.4859143 31.2909826,54.5537569 31.3644788,54.6187728 L32.9361669,56.0321613 C34.1460275,57.1261241 34.2421379,58.9946237 33.1481751,60.2044843 C32.5517252,60.8631234 31.6923849,61.2192973 30.8047769,61.1740689 L28.6931745,61.0638246 C27.0621241,60.9761945 25.668523,62.2284567 25.5837197,63.8595071 C25.5780661,63.9640979 25.5780661,64.0686886 25.5837197,64.1732794 L25.693964,66.2848818 C25.7759405,67.9159322 24.5236783,69.3038798 22.8954547,69.3858563 C22.0078466,69.4339115 21.1485064,69.0777376 20.5520564,68.4162718 L19.1386679,66.8445837 C18.0418784,65.6347231 16.1733787,65.5414395 14.9606914,66.6354022 C14.8900219,66.7032449 14.8193525,66.7710875 14.7543366,66.8445837 L13.3409481,68.4162718 C12.2469854,69.6261324 10.3784857,69.7222428 9.16862512,68.62828 C8.50998605,68.0346569 8.15381214,67.1724898 8.19904057,66.2848818 L8.3064581,64.1732794 C8.39408819,62.542229 7.14182594,61.1514547 5.51077556,61.0638246 C5.40618481,61.058171 5.30159406,61.058171 5.19700331,61.0638246 L3.08540082,61.1740689 C1.45435044,61.2447383 0.0748832243,59.9839957 0.00421379714,58.3529453 C-0.0353610821,57.4738177 0.320812831,56.6229578 0.973798338,56.0321613 L2.5454864,54.6187728 C3.75534699,53.5248101 3.84863064,51.6534836 2.75184113,50.443623 C2.68682525,50.3701268 2.6189826,50.2994574 2.5454864,50.2344415 L0.973798338,48.821053 C-0.236062255,47.7270903 -0.332172676,45.8614174 0.761790057,44.64873 C1.35824002,43.990091 2.21758026,43.633917 3.10518826,43.6791455 L5.21679075,43.786563 C6.84784113,43.8741931 8.23861545,42.6219308 8.32624554,40.9908805 C8.3318991,40.8862897 8.3318991,40.781699 8.32624554,40.6771082 L8.21882801,38.5655057 C8.1594657,36.9372821 9.43151538,35.5634685 11.059739,35.5041061 C11.921906,35.4730116 12.7529785,35.8178784 13.3381213,36.4482497 L14.7543366,38.0058039 Z" id="Stroke-1"></path>
                        <path d="M16.4306418,48.6666667 C18.77404,48.6666667 20.6708075,50.5662609 20.6708075,52.9068323 C20.6708075,55.2474037 18.77404,57.1469979 16.4306418,57.1469979 C14.0872436,57.1469979 12.1904762,55.2474037 12.1904762,52.9068323 C12.1904762,50.5662609 14.0872436,48.6666667 16.4306418,48.6666667 Z" id="Stroke-3"></path>
                        <path d="M44.2131006,8.5454864 C45.3098901,9.75534699 47.1812165,9.84863064 48.3910771,8.7546679 C48.4645733,8.68682525 48.532416,8.6189826 48.6002586,8.5454864 L50.0136472,6.97379834 C51.1047831,5.76393774 52.9761096,5.66782732 54.1831434,6.76179006 C54.8446092,7.35824002 55.2007831,8.21758026 55.1527279,9.10518826 L55.0424836,11.2167907 C54.9576803,12.8478411 56.2071158,14.2414422 57.8381662,14.3262455 C57.9427569,14.3318991 58.0501744,14.3318991 58.1547652,14.3262455 L60.2663677,14.218828 C61.8945913,14.1368515 63.2825388,15.3891137 63.3645154,17.0201641 C63.4097438,17.9049453 63.0535699,18.7671123 62.3977576,19.3607355 L60.8232428,20.7741241 C59.6133822,21.8709136 59.5200985,23.7394132 60.616888,24.9521006 C60.6819039,25.02277 60.7525733,25.0934395 60.8232428,25.1584553 L62.3977576,26.5718439 C63.6047914,27.6658066 63.7037286,29.5343063 62.6069391,30.7441669 C62.0133159,31.4028059 61.1511489,31.7589798 60.2663677,31.7137514 L58.1547652,31.6035071 C56.520888,31.515877 55.1301137,32.7681393 55.0424836,34.3991896 C55.0368301,34.5037804 55.0368301,34.6083711 55.0424836,34.7129619 L55.1527279,36.8245644 C55.2347045,38.4556148 53.985269,39.8435623 52.3542186,39.9255388 C51.4666106,39.9707673 50.6072704,39.6145934 50.0136472,38.9559543 L48.6002586,37.3842662 C47.5034691,36.1744057 45.6321427,36.081122 44.4222821,37.1750847 C44.3487859,37.2429274 44.2781165,37.31077 44.2131006,37.3842662 L42.799712,38.9559543 C41.7057493,40.1686417 39.8400764,40.2619253 38.6273891,39.1679626 C37.96875,38.5715126 37.6125761,37.7121724 37.6606313,36.8245644 L37.7680488,34.7129619 C37.8528521,33.0819115 36.6034167,31.6911372 34.9695395,31.6035071 C34.8649488,31.5978535 34.760358,31.5978535 34.6557673,31.6035071 L32.5469916,31.7137514 C30.9159412,31.7872476 29.536474,30.5236783 29.4629778,28.8926279 C29.4262296,28.0135002 29.7824036,27.1626403 30.4325623,26.5718439 L32.0042504,25.1584553 C33.2169377,24.0616658 33.3102214,22.1931662 32.2134319,20.9833056 C32.1455892,20.9098094 32.0777466,20.8419667 32.0042504,20.7741241 L30.4325623,19.3607355 C29.2227017,18.2667728 29.1294181,16.3982731 30.2233808,15.1884126 C30.817004,14.5297735 31.6763442,14.1735996 32.5639522,14.218828 L34.6755547,14.3262455 C36.3066051,14.4138756 37.6973794,13.1616134 37.7878363,11.530563 C37.7934898,11.4259723 37.7934898,11.3213815 37.7878363,11.2167907 L37.677592,9.10518826 C37.6182296,7.47696466 38.8902793,6.103151 40.5185029,6.04378868 C41.38067,6.01269413 42.2117424,6.35756093 42.7968853,6.98793222 L44.2131006,8.5454864 Z" id="Stroke-5" transform="translate(46.415230, 22.965369) rotate(22.000000) translate(-46.415230, -22.965369) "></path>
                        <path d="M45.8909593,18.1904762 C48.2315307,18.1904762 50.1311249,20.0872436 50.1311249,22.4306418 C50.1311249,24.77404 48.2315307,26.6708075 45.8909593,26.6708075 C43.5503879,26.6708075 41.6507937,24.77404 41.6507937,22.4306418 C41.6507937,20.0872436 43.5503879,18.1904762 45.8909593,18.1904762 Z" id="Stroke-7"></path>
                    </g>
                </g>
            </g>
        </g>
    </g>
</svg>
