
<svg width="136px" height="15px" viewBox="0 0 136 15" version="1.1" xmlns="http://www.w3.org/2000/svg" xmlns:xlink="http://www.w3.org/1999/xlink">
    <defs>
        <linearGradient x1="97.0827356%" y1="49.9996791%" x2="0%" y2="49.9996791%" id="linearGradient-1">
            <stop stop-color="#09B209" offset="0%"></stop>
            <stop stop-color="#07D907" offset="100%"></stop>
        </linearGradient>
    </defs>
    <g id="Comp" stroke="none" stroke-width="1" fill="none" fill-rule="evenodd">
        <g id="Landing" transform="translate(-241.000000, -3261.000000)">
            <g id="company-we-keep" transform="translate(241.000000, 2769.000000)">
                <g id="greenline-logo" transform="translate(0.000000, 492.000000)">
                    <path d="M23.9479557,7.34081846 L21.4876161,7.34081846 L21.4876161,8.17680257 C22.3070126,8.0869676 23.1272374,8.00013998 23.9479557,7.91496271 L23.9479557,7.34081846 Z" id="Fill-4" fill="#4A4A4A"></path>
                    <path d="M21.4876073,11.8780177 C20.660615,12.3775287 19.7004755,12.6273026 18.6072067,12.6273026 C17.6336027,12.6273026 16.76345,12.4055116 15.9968012,11.9612879 C15.9314701,11.9234211 15.8690293,11.8827488 15.806148,11.8424982 C14.6853332,11.9483417 13.5654173,12.0573943 12.4464883,12.1698759 C13.0282997,12.9285312 13.748228,13.5493075 14.6066081,14.0322048 C15.7533473,14.6774065 17.040054,14.9999982 18.4671863,14.9999982 C19.480426,14.9999982 20.4674592,14.8403344 21.4276338,14.5212818 C22.3877732,14.2022476 23.2278424,13.7443991 23.9479469,13.1476082 L23.9479469,11.1336473 C23.1274049,11.1990018 22.30718,11.2656583 21.4876073,11.3345703 L21.4876073,11.8780177 Z" id="Fill-6" fill="#4A4A4A"></path>
                    <path d="M13.5464771,7.50730562 C13.5464771,6.50826528 13.7630548,5.62049633 14.1965275,4.84322861 C14.6297181,4.06634597 15.2298052,3.46275183 15.9968065,3.03251956 C16.7634552,2.60258068 17.6401464,2.38731785 18.6271972,2.38731785 C20.1339535,2.38731785 21.4207306,2.94242787 22.4877402,4.05235452 L24.1280136,2.38731785 C23.4744914,1.61043521 22.6678016,1.02083252 21.7076445,0.618198044 C20.7475051,0.215948655 19.6804779,0.014603912 18.5071798,0.014603912 C17.0669531,0.014603912 15.7699365,0.337213936 14.6166237,0.982415648 C13.4630289,1.62761736 12.5594439,2.51931051 11.9062037,3.65690831 C11.2526815,4.79476284 10.9260614,6.07834474 10.9260614,7.50730562 C10.9260614,8.18355257 11.0001338,8.82679218 11.1463929,9.43781296 C12.0189073,9.32065526 12.8923733,9.2067066 13.7664562,9.09483007 C13.6213779,8.5978313 13.5464771,8.06934719 13.5464771,7.50730562" id="Fill-8" fill="#4A4A4A"></path>
                    <path d="M29.4685988,2.5121956 L32.509005,2.5121956 C33.6422973,2.5121956 34.5024222,2.7619511 35.0893797,3.26148044 C35.6760199,3.76099144 35.9694899,4.47578362 35.9694899,5.40516015 C35.9694899,5.96929218 35.8607516,6.4549401 35.6447555,6.86314914 C36.5831473,6.79165159 37.5221559,6.72250122 38.4621514,6.6571467 C38.5458816,6.26428606 38.5899056,5.84778851 38.5899056,5.40516015 C38.5899056,4.33691443 38.3498708,3.41426773 37.869801,2.63707335 C37.3897137,1.86011736 36.6996399,1.26339976 35.7995269,0.847158924 C34.8993433,0.430918093 33.8423616,0.222770171 32.6290048,0.222770171 L26.8681507,0.222770171 L26.8681507,7.62242787 C27.7343029,7.53860758 28.6010014,7.4568044 29.4685988,7.37813692 L29.4685988,2.5121956 Z" id="Fill-11" fill="#4A4A4A"></path>
                    <path d="M26.868156,14.7918466 L29.4686041,14.7918466 L29.4686041,10.7214554 C28.6012534,10.7818955 27.7344844,10.8446828 26.868156,10.9091204 L26.868156,14.7918466 Z" id="Fill-13" fill="#4A4A4A"></path>
                    <path d="M33.1691291,10.5252103 L36.0295268,14.7918484 L38.829951,14.7918484 L35.8183243,10.3152836 C34.5659662,10.3882482 33.049094,10.5391467 33.1691291,10.5252103" id="Fill-15" fill="#4A4A4A"></path>
                    <path d="M40.9899898,14.7918466 L51.4915499,14.7918466 L51.4915499,12.5232158 L43.5904203,12.5232158 L43.5904203,9.91688325 C42.7231401,9.95537347 41.8562654,9.99544071 40.9899898,10.0379101 L40.9899898,14.7918466 Z" id="Fill-17" fill="#4A4A4A"></path>
                    <path d="M43.5904167,6.2793154 L43.5904167,2.49139364 L51.211541,2.49139364 L51.211541,0.222762836 L40.9899863,0.222762836 L40.9899863,6.48942543 C42.1625794,6.4147555 42.4153915,6.34443154 43.5904167,6.2793154" id="Fill-19" fill="#4A4A4A"></path>
                    <path d="M53.8918156,14.7918466 L64.3933757,14.7918466 L64.3933757,12.5232158 L56.4922461,12.5232158 L56.4922461,9.49365587 C55.6249836,9.51212164 54.7581264,9.53231112 53.8918156,9.55477445 L53.8918156,14.7918466 Z" id="Fill-21" fill="#4A4A4A"></path>
                    <path d="M56.4922408,2.49139181 L64.113365,2.49139181 L64.113365,0.222761002 L53.8918103,0.222761002 L53.8918103,5.86197249 C54.7579802,5.832761 55.6248373,5.80655685 56.4922408,5.78255318 L56.4922408,2.49139181 Z" id="Fill-23" fill="#4A4A4A"></path>
                    <path d="M85.0963749,0.222761002 L82.4959444,0.222761002 L82.4959444,5.8425165 C83.3633831,5.87049939 84.2302227,5.90086614 85.0963749,5.93407518 L85.0963749,0.222761002 Z" id="Fill-25" fill="#4A4A4A"></path>
                    <path d="M82.4959479,14.7918466 L92.4174062,14.7918466 L92.4174062,12.5024211 L85.0963784,12.5024211 L85.0963784,9.61037347 C84.2300499,9.58477445 83.363228,9.56139425 82.4959479,9.53986614 L82.4959479,14.7918466 Z" id="Fill-27" fill="#4A4A4A"></path>
                    <path d="M96.578028,0.222761002 L93.9775975,0.222761002 L93.9775975,6.3654077 C94.8450186,6.4165324 95.7119286,6.46960086 96.578028,6.52595171 L96.578028,0.222761002 Z" id="Fill-29" fill="#4A4A4A"></path>
                    <path d="M93.9776028,14.7918466 L96.5780332,14.7918466 L96.5780332,10.0662598 C95.7117224,10.0229285 94.8448829,9.98181601 93.9776028,9.94242726 L93.9776028,14.7918466 Z" id="Fill-31" fill="#4A4A4A"></path>
                    <path d="M102.438546,4.92650795 L104.127602,7.08461919 C105.287911,7.18059719 106.447075,7.28073778 107.604864,7.38597616 L101.998517,0.222761002 L99.8581712,0.222761002 L99.8581712,6.75287714 C100.718948,6.81546271 101.579126,6.8802121 102.438546,6.94789548 L102.438546,4.92650795 Z" id="Fill-33" fill="#4A4A4A"></path>
                    <path d="M112.300025,0.222761002 L109.719651,0.222761002 L109.719651,7.58352506 C110.580551,7.66606174 111.44057,7.7515324 112.300025,7.83924022 L112.300025,0.222761002 Z" id="Fill-35" fill="#4A4A4A"></path>
                    <path d="M99.8581712,14.7918466 L102.438546,14.7918466 L102.438546,10.3905202 C101.57895,10.3384786 100.718772,10.2887659 99.8581712,10.2406485 L99.8581712,14.7918466 Z" id="Fill-37" fill="#4A4A4A"></path>
                    <path d="M110.159674,14.7918466 L112.30002,14.7918466 L112.30002,11.0756057 C110.516343,10.9358747 108.730586,10.8038637 106.942396,10.6810764 L110.159674,14.7918466 Z" id="Fill-39" fill="#4A4A4A"></path>
                    <path d="M124.921833,8.50633863 L124.921833,6.2793154 L118.160834,6.2793154 L118.160834,2.49139364 L125.781958,2.49139364 L125.781958,0.222762836 L115.560404,0.222762836 L115.560404,8.18325183 C116.510709,8.2875 117.459869,8.39581907 118.408359,8.50633863 L124.921833,8.50633863 Z" id="Fill-41" fill="#4A4A4A"></path>
                    <path d="M115.560411,11.3395342 L115.560411,14.7918447 L126.061988,14.7918447 L126.061988,12.5232139 L118.160841,12.5232139 L118.160841,11.5653594 C117.294513,11.4883423 116.427832,11.4126271 115.560411,11.3395342" id="Fill-43" fill="#4A4A4A"></path>
                    <path d="M66.7936926,9.3680978 L66.7936926,14.7918447 L69.3740849,14.7918447 L69.3740849,9.36655746 C69.0807031,9.36608068 68.7874975,9.36485208 68.4940099,9.36485208 C67.9270025,9.36485208 67.3603299,9.36644743 66.7936926,9.3680978" id="Fill-45" fill="#4A4A4A"></path>
                    <path d="M76.6551879,10.0881033 L76.1304245,9.4176143 C75.0413148,9.40283435 73.9516764,9.3903099 72.8610863,9.38183802 L77.0952166,14.7918502 L79.2355626,14.7918502 L79.2355626,9.467272 C78.3759488,9.45087836 77.5157182,9.43707029 76.6551879,9.42461919 L76.6551879,10.0881033 Z" id="Fill-47" fill="#4A4A4A"></path>
                    <path d="M79.2355626,0.222761002 L76.6551879,0.222761002 L76.6551879,5.69302995 C77.5158415,5.70922188 78.3760898,5.72713753 79.2355626,5.7484456 L79.2355626,0.222761002 Z" id="Fill-49" fill="#4A4A4A"></path>
                    <path d="M69.3740849,5.61773105 L69.3740849,4.92650244 L69.9161019,5.61908802 C71.003273,5.62257213 72.089651,5.62976039 73.1749716,5.64142298 L68.9340386,0.222755501 L66.7936926,0.222755501 L66.7936926,5.61974817 C67.3602947,5.61754768 67.926932,5.61553056 68.4940099,5.61553056 C68.7875327,5.61553056 69.0807031,5.61712592 69.3740849,5.61773105" id="Fill-51" fill="#4A4A4A"></path>
                    <path d="M0,12.4997203 C22.300534,9.71515424 44.9908585,8.28013898 67.9976776,8.28013898 C91.0044792,8.28013898 113.694804,9.71515424 135.995338,12.4997203 C113.828587,8.88109322 91.1202463,7.0023678 67.9976776,7.0023678 C44.8750913,7.0023678 22.1667332,8.88109322 0,12.4997203" id="Fill-1" fill="url(#linearGradient-1)"></path>
                </g>
            </g>
        </g>
    </g>
</svg>
