
<svg width="96px" height="70px" viewBox="0 0 96 70" version="1.1" xmlns="http://www.w3.org/2000/svg" xmlns:xlink="http://www.w3.org/1999/xlink">
    <defs>
        <polygon id="path-1" points="0 70 96 70 96 0 0 0"></polygon>
    </defs>
    <g id="Comp" stroke="none" stroke-width="1" fill="none" fill-rule="evenodd">
        <g id="Landing" transform="translate(-809.000000, -3094.000000)">
            <g id="company-we-keep" transform="translate(241.000000, 2769.000000)">
                <g id="jain-cafe" transform="translate(568.000000, 325.000000)">
                    <path d="M0,68.9018949 C0.376465794,68.9276373 0.752705211,68.9018949 1.10223208,68.8761526 C2.87635261,68.7476573 3.76329968,67.8488389 3.76329968,65.6397576 L3.76329968,52 L5,52 L5,65.5625306 C5,68.7221313 3.5215285,69.8781566 1.23670032,69.9806933 C0.833521981,70.0064356 0.430117264,70.0064356 0,69.9806933 L0,68.9018949 Z" id="Fill-1" fill="#4E4E4E"></path>
                    <path d="M13.2341426,64.9928519 L18.6596936,64.9928519 L15.9202652,53.3608285 L13.2341426,64.9928519 Z M13.0480201,66.0200147 L12.1171833,70 L11,70 L15.0691632,52 L16.850878,52 L21,70 L19.7766529,70 L18.8458162,66.0200147 L13.0480201,66.0200147 Z" id="Fill-3" fill="#4E4E4E"></path>
                    <mask id="mask-2" fill="white">
                        <use xlink:href="#path-1"></use>
                    </mask>
                    <g id="Clip-6"></g>
                    <polygon id="Fill-5" fill="#4E4E4E" mask="url(#mask-2)" points="26 70 27 70 27 52 26 52"></polygon>
                    <polygon id="Fill-7" fill="#4E4E4E" mask="url(#mask-2)" points="34.0768732 70 33 70 33 52 34.5383287 52 39.9229108 67.1971704 39.9229108 52 41 52 41 70 39.6922911 70 34.0768732 53.9543798"></polygon>
                    <path d="M55,63.2374825 L55,65.5754225 C55,68.3911975 53.6342816,70 51,70 C48.3659238,70 47,68.3911975 47,65.5754225 L47,56.4245775 C47,53.6090142 48.3659238,52 51,52 C53.6342816,52 55,53.6090142 55,56.4245775 L55,58.1341551 L52.4632844,58.1341551 L52.4632844,56.2486445 C52.4632844,54.9917079 51.9267742,54.5140848 51.0733285,54.5140848 C50.2196775,54.5140848 49.6829619,54.9917079 49.6829619,56.2486445 L49.6829619,65.7513555 C49.6829619,67.0085038 50.2196775,67.4609332 51.0733285,67.4609332 C51.9267742,67.4609332 52.4632844,67.0085038 52.4632844,65.7513555 L52.4632844,63.2374825 L55,63.2374825 Z" id="Fill-8" fill="#93253F" mask="url(#mask-2)"></path>
                    <path d="M63.4804007,64.29141 L66.2337037,64.29141 L64.8571616,55.1885467 L63.4804007,64.29141 Z M70,70 L67.1167644,70 L66.6232829,66.73436 L63.1168519,66.73436 L62.6233704,70 L60,70 L62.9090472,52 L67.0909528,52 L70,70 Z" id="Fill-9" fill="#93253F" mask="url(#mask-2)"></path>
                    <polygon id="Fill-10" fill="#93253F" mask="url(#mask-2)" points="78.6460425 59.9971367 82.0616698 59.9971367 82.0616698 62.5687199 78.6460425 62.5687199 78.6460425 70 76 70 76 52 83 52 83 54.5713667 78.6460425 54.5713667"></polygon>
                    <polygon id="Fill-11" fill="#93253F" mask="url(#mask-2)" points="91.5666405 59.5856833 95.0900236 59.5856833 95.0900236 62.1572666 91.5666405 62.1572666 91.5666405 67.4286333 96 67.4286333 96 70 89 70 89 52 96 52 96 54.5713667 91.5666405 54.5713667"></polygon>
                    <path d="M35.3070131,10.0035939 L38.7253437,10.0813211 L40.4338624,10.1202935 L42.1425967,10.1229062 C43.2813219,10.1233417 44.4196161,10.1444608 45.5572637,10.1307442 L48.9695601,10.0699995 C53.5139011,9.93392246 58.053932,9.63520622 62.5213379,8.98116571 C64.7477137,8.6301959 66.9637453,8.21978766 69.1024108,7.61212219 L69.898484,7.37284438 L70.2960896,7.25353207 L70.684213,7.11506011 L71.4595978,6.83833391 C71.716048,6.74362432 71.9610765,6.63019053 72.2121391,6.5276429 L72.5864702,6.37044674 L72.944423,6.19300233 C73.1821243,6.07412546 73.4265063,5.96221573 73.6443812,5.825921 L73.9801371,5.63105873 C74.0909063,5.56530632 74.1876678,5.49106271 74.2921874,5.42226218 L74.4464885,5.31775504 L74.5074763,5.27682307 C74.5542407,5.24590638 74.6022982,5.21673147 74.6507867,5.18929835 C74.7522893,5.1372625 74.8581019,5.08958112 74.9718882,5.05997076 C75.42768,4.92737733 75.921185,5.02078058 76.2996107,5.27965348 C76.4899011,5.41072285 76.6558395,5.58620775 76.778246,5.79456886 C76.9028075,6.00271225 76.9726309,6.24394956 76.9931039,6.47473616 C76.9974139,6.53199736 76.9997845,6.59078263 77,6.64695521 L76.9984915,6.70203918 L76.9954744,6.8128603 L76.9898713,7.03406707 L76.9665968,7.91954736 C76.9614247,8.51023042 76.9103502,9.10091347 76.8722059,9.69181426 C76.8426818,10.2835859 76.7691948,10.8733981 76.704328,11.4638634 C76.6498054,12.0554174 76.5474408,12.6430523 76.4560669,13.2319936 C76.2687936,14.4094407 76.0052318,15.5786143 75.6936124,16.7382081 C75.6257285,17.0303927 75.5218554,17.314086 75.4365157,17.6023515 L75.1669197,18.4641 L74.8522833,19.3130028 C74.7445311,19.5949543 74.6497092,19.8819135 74.5225616,20.1571156 C74.2792571,20.7112212 74.0555636,21.2749066 73.7706668,21.8122474 C73.6342525,22.0833128 73.5010708,22.3565555 73.3605619,22.6260968 L72.9067097,23.4183915 L72.6789216,23.8144301 L72.4323846,24.1998001 L71.9354314,24.9687985 C71.7623814,25.2204865 71.5772632,25.4636833 71.398179,25.7116701 C71.2178018,25.9587859 71.0395797,26.2078613 70.8393761,26.4395188 L70.2544972,27.1484255 C70.0560177,27.3818248 69.8415908,27.6006366 69.6351376,27.8272865 C69.2286964,28.2882065 68.7713961,28.6964375 68.3319826,29.12557 C68.1067805,29.3337133 67.8692947,29.5270515 67.637843,29.7286632 C67.4055293,29.9291863 67.1732155,30.1297094 66.9262475,30.3108551 L66.1952566,30.8686619 C65.9469956,31.0476304 65.6911919,31.2152773 65.4388363,31.3888027 C63.4070609,32.7624184 61.1634448,33.7669933 58.867892,34.5146548 C56.5626416,35.2401085 54.1903694,35.6631447 51.8221917,35.8686754 C51.5258731,35.8921895 51.2295546,35.9059061 50.9332361,35.9246302 C50.6371331,35.9392177 50.34103,35.9668685 50.0451425,35.9694812 C49.453152,35.9799319 48.8613769,36.0115018 48.2711104,35.995608 L47.3862494,35.9827623 C47.0912239,35.9749243 46.7964139,35.9566356 46.5018194,35.9440076 C46.2074404,35.9289847 45.9130614,35.9180986 45.618898,35.8993744 L44.736192,35.8223003 C43.5606156,35.7197527 42.3878407,35.5540653 41.2251945,35.3398257 C40.9336171,35.294757 40.6452722,35.2205134 40.3556344,35.1615104 L39.4888757,34.9723089 L38.6303062,34.7423932 C38.3449784,34.663142 38.0577111,34.596301 37.7760469,34.5009382 C35.5110958,33.8083607 33.3168301,32.8601761 31.3083293,31.6139285 C29.3164222,30.3435136 27.5007978,28.8035573 26.037954,26.9936243 C25.9791213,26.9211225 25.9898965,26.8140027 26.061875,26.754782 C26.1239403,26.7033993 26.2112195,26.7044879 26.2717763,26.752387 L26.2735003,26.7539111 C28.0662813,28.1734664 29.9872874,29.3535261 32.0203557,30.2481508 C34.0581652,31.1334134 36.1817454,31.7628512 38.3410994,32.1819683 C40.5004533,32.6065286 42.7013996,32.7961655 44.9016994,32.8414519 L45.7275122,32.8549508 L46.5539715,32.8445 C46.8296016,32.839057 47.1048007,32.839057 47.3799998,32.8292594 L48.2051661,32.7891983 C48.7555643,32.7728691 49.3016524,32.7182206 49.8490335,32.6812076 C50.1233706,32.6655316 50.3942596,32.6254705 50.6664417,32.5986905 C50.9381927,32.5677738 51.2108057,32.5420825 51.4816948,32.5068114 C53.6470828,32.2257307 55.7782057,31.7920261 57.8308849,31.1530085 C58.3364582,30.9746931 58.8564703,30.8320844 59.3521304,30.6306905 C59.6019,30.53511 59.8542556,30.4445371 60.1027322,30.3454731 L60.8376021,30.026944 L61.2046061,29.8669175 L61.5644984,29.6933921 C61.8039238,29.5769102 62.0461507,29.4647827 62.2844986,29.3452527 L62.9846723,28.9622775 C63.1008292,28.897396 63.2200031,28.8373044 63.3340049,28.7687216 L63.6727778,28.5588364 C63.8988419,28.4194936 64.1296471,28.2860293 64.3531252,28.1421142 L65.0108445,27.6909917 C65.2343226,27.5457704 65.4433618,27.3818248 65.6530476,27.2183147 C65.8618714,27.0541514 66.0780223,26.8976084 66.2823204,26.7271311 C66.6797105,26.3739841 67.0988665,26.0419562 67.4701806,25.6587633 C67.6591779,25.4706505 67.8572265,25.2908111 68.0401897,25.0961666 L68.5800282,24.5033063 C70.0148564,22.9117496 71.1563831,21.0508694 72.0707682,19.0739427 C72.1942522,18.8311813 72.2873501,18.5731793 72.3933783,18.3214913 L72.7043511,17.5620727 L72.9750246,16.7843654 C73.0614419,16.523533 73.1659615,16.2692323 73.2364314,16.0023037 C73.5562399,14.9480879 73.8361801,13.8768897 74.0462969,12.7854433 C74.1486615,12.2393935 74.2637408,11.6953032 74.3320557,11.1407622 C74.4109303,10.5888339 74.4990716,10.0375587 74.544543,9.47888096 C74.5984191,8.921945 74.6660875,8.36609765 74.6887155,7.80437178 L74.738497,6.96352476 L74.7507807,6.75320414 L74.7572459,6.64804383 L74.7602629,6.59557254 C74.7587544,6.61560307 74.7594009,6.63824629 74.761987,6.65958316 C74.7755637,6.84116431 74.8936601,7.04212283 75.0410651,7.13247796 C75.1841601,7.23154202 75.3718644,7.26115238 75.5526725,7.21107604 C75.5964199,7.19583542 75.6382278,7.18233658 75.6748635,7.15947564 C75.6929659,7.15054899 75.7104218,7.13988055 75.7265846,7.12768805 C75.7405924,7.11723734 75.7345583,7.12050319 75.722921,7.1281235 L75.697276,7.14445274 L75.4919003,7.27312716 C75.354624,7.35673287 75.2177787,7.44904751 75.0800714,7.52394429 L74.665441,7.74340928 C74.3900264,7.89777504 74.1100862,8.0138215 73.831439,8.13923007 L73.413145,8.32473024 L72.9914029,8.48301501 C72.7101697,8.58534492 72.4302295,8.6996496 72.1474878,8.79131107 L71.2988315,9.05628022 L70.8745034,9.18800276 L70.4475892,9.29773525 L69.5946228,9.5167648 C67.3158794,10.0643387 65.0218353,10.3915766 62.7295151,10.6576344 C58.1381942,11.1089746 53.5488128,11.1906208 48.9736547,11.1115873 L45.5443334,11.0101283 C44.9728158,10.9994598 44.4025912,10.9554797 43.8319356,10.9295707 L42.1201843,10.8385624 L40.4095105,10.7412401 L38.7014227,10.6077758 L35.2869712,10.3408471 C35.1947353,10.3336623 35.1259894,10.2524515 35.1328856,10.159266 C35.1399972,10.069564 35.2149928,10.0016344 35.3029185,10.0035939 L35.3070131,10.0035939 Z" id="Fill-12" fill="#93253E" mask="url(#mask-2)"></path>
                    <path d="M23.2388925,34.2558344 C22.6354652,34.4527373 22.0455931,34.6831739 21.6067966,34.9340317 C21.3901312,35.0541941 21.2193788,35.1896186 21.1618783,35.2437884 C21.144169,35.2631348 21.1472298,35.2592655 21.1684373,35.1870391 C21.1953291,35.1148127 21.2003577,34.9808929 21.1741217,34.8880304 C21.1489789,34.7932332 21.1153094,34.7607743 21.1201193,34.7758215 C21.1205566,34.789149 21.1688745,34.8441786 21.2274682,34.9024327 C21.3577735,35.0253895 21.5685358,35.1762911 21.8114371,35.314725 C22.3016125,35.5961071 22.9011044,35.8458901 23.5152447,36.0685881 C24.7553315,36.5126945 26.0918355,36.8572747 27.4401456,37.1556385 C28.791298,37.4527126 30.1662814,37.6997011 31.5497915,37.9142307 C34.3185608,38.3411403 37.1225299,38.6418687 39.9354631,38.8602676 C42.7490521,39.0778066 45.5742287,39.2095768 48.4029034,39.267186 C51.2311408,39.3241503 54.0628764,39.3071685 56.8913325,39.1994737 C59.7193513,39.0902743 62.5460583,38.8968107 65.3537443,38.5571746 C66.7569313,38.385422 68.1559644,38.1792758 69.5396931,37.9047725 C70.9207982,37.6276896 72.2981866,37.2985866 73.5962112,36.7869829 C73.9193509,36.6573623 74.2361502,36.5137693 74.5358961,36.3467458 C74.8332371,36.1782175 75.1227073,35.9901279 75.3527093,35.755607 C75.5851162,35.5262452 75.7517146,35.2356199 75.7270091,34.9318821 C75.7147657,34.6259947 75.514935,34.3381639 75.2748759,34.103858 C74.7825142,33.6305171 74.1412634,33.3022739 73.5017617,33.0137982 C72.8559196,32.7274721 72.1862465,32.4899418 71.5087026,32.2779917 C72.196085,32.4566231 72.8780015,32.6612646 73.5428647,32.9177113 C73.8764988,33.0430327 74.2020434,33.1904949 74.5210291,33.3536492 C74.8391402,33.5180933 75.1458824,33.7113419 75.4211414,33.9529564 C75.5597548,34.0726889 75.6832825,34.2128425 75.7904127,34.3686881 C75.8879231,34.5296928 75.9762508,34.709399 75.9911179,34.9093114 C76.0191029,35.1059993 75.9786558,35.309781 75.9021342,35.4888423 C75.8256126,35.6694083 75.7134539,35.8278334 75.5873026,35.9669123 C75.3360932,36.2487242 75.0343795,36.4641137 74.7269814,36.6595119 C74.4176156,36.8525455 74.0946946,37.0180644 73.766745,37.168966 C72.4503552,37.763544 71.0681569,38.1646585 69.6809301,38.5148276 C68.2915169,38.8617723 66.8878926,39.1392851 65.4788024,39.3821893 C62.6601848,39.8639136 59.8194853,40.1983907 56.9724454,40.4479587 C54.1249682,40.696022 51.269183,40.8531574 48.4103369,40.9354869 C45.5514908,41.0169566 42.6880535,41.0234054 39.8224298,40.9425806 C36.9563688,40.860466 34.0883401,40.6949472 31.2172506,40.3950787 C29.7817058,40.2437471 28.3455052,40.0582371 26.9064623,39.8151178 C25.4667635,39.5685592 24.027502,39.2768592 22.5692194,38.8357622 C21.8381104,38.6087649 21.1050337,38.3551127 20.3430974,37.9714099 C19.96202,37.7757967 19.5702295,37.5479396 19.1624788,37.2130327 C18.9582755,37.0374107 18.7507927,36.8460968 18.5479012,36.5715934 C18.3487265,36.3016043 18.152394,35.9499305 18.0566327,35.5122729 C17.9571547,35.0771948 17.9934478,34.5847225 18.128563,34.1799537 C18.2652087,33.7751849 18.4661325,33.4759612 18.666619,33.2205893 C19.0702156,32.7405846 19.4735937,32.4495294 19.8570761,32.1978118 C20.6268831,31.7087789 21.3584294,31.4005269 22.0884452,31.1169953 C22.9605726,30.778649 23.9463891,31.1991098 24.2909548,32.0565834 C24.6350833,32.913842 24.207437,33.8833095 23.3353097,34.2216558 C23.3075433,34.2324038 23.2797769,34.2425069 23.2517918,34.2515352 L23.2388925,34.2558344 Z" id="Fill-13" fill="#93253E" mask="url(#mask-2)"></path>
                    <path d="M50,0.565442004 C39.8772331,-3.13839888e-05 20.9158392,1.24656635 18.76669,5.06882012 C18.6637949,5.16447438 18.6592649,5.19560325 18.6353207,5.24817187 C18.6277708,5.26136556 18.6189265,5.27455925 18.6204365,5.28630988 C18.6191422,5.29249443 18.6169851,5.29847282 18.6137494,5.30465736 L18.6111609,5.30939884 L18.6109452,5.32877708 L18.6107294,5.36856431 L18.6094352,5.68624367 C18.6124551,5.89857965 18.5992966,6.11009102 18.6131023,6.32448851 L18.6467535,6.96788714 C18.655382,7.18290309 18.6901118,7.39812519 18.7101732,7.61375959 C18.7345487,7.82918784 18.7520215,8.04605915 18.7891241,8.26169356 L18.8864107,8.91045212 L19.0085043,9.55859224 C19.0453913,9.77587585 19.0928481,9.99151025 19.1415993,10.2071447 C19.1912133,10.4225729 19.2341402,10.6398565 19.2887156,10.8548725 C19.7037475,12.581803 20.240873,14.2963645 20.8636367,16 C20.3480824,15.2413627 19.899615,14.4429382 19.4789745,13.6300831 C19.0587655,12.8166095 18.6791105,11.9816962 18.343461,11.1267862 C18.0183814,10.2685778 17.7114217,9.39800027 17.4920415,8.49670619 C17.2694256,7.59726748 17.0869324,6.67845053 17.0306313,5.73036008 L17.0047457,5.37557346 L17.00151,5.3312509 L17,5.30857424 L17.0012943,5.27146698 L17.0101385,5.12221334 C17.0144528,5.02099299 17.0355927,4.92575102 17.0619096,4.83133366 C17.1643734,4.45098427 17.3740465,4.15165238 17.5869552,3.91705205 C18.0248528,3.46578655 18.4953229,3.18748212 18.956086,2.94669724 C19.8812794,2.4744043 20.8166112,2.18414308 21.7500016,1.91387855 C23.6200182,1.39891226 25.4995261,1.07463605 27.3811911,0.808494547 C31.1455998,0.294971321 34.9216569,0.0671739841 38.6966355,0.00903927918 C40.5841248,-0.0144619845 42.4718298,0.00635931052 44.3575934,0.0892321877 C45.3004752,0.132936292 46.2427099,0.184061848 47.1836503,0.26466706 C47.6543362,0.304248135 48.1245906,0.346303028 48.5939823,0.392893253 C49.0633739,0.447317232 49.5325498,0.496793576 50,0.565442004" id="Fill-14" fill="#93253E" mask="url(#mask-2)"></path>
                    <path d="M24,9 C22.7751161,8.73025048 21.556503,8.42550643 20.3529861,8.03035984 C19.7516921,7.82809978 19.1531851,7.61000885 18.5628069,7.31526324 C18.2676178,7.16487007 17.9731254,7.00197886 17.6849038,6.77138989 C17.5416058,6.65224184 17.3971466,6.52476176 17.2673192,6.34541478 C17.1402787,6.16752591 17.0190445,5.93818674 17,5.64656564 C17,5.28953809 17.3228268,5 17.7211347,5 C18.1194426,5 18.4420372,5.28953809 18.4420372,5.64656564 C18.4278699,5.63885851 18.539582,5.60386398 18.5639681,5.67093683 C18.4942933,5.80924855 18.5400464,5.92464719 18.5967153,5.98963704 C18.7423358,6.1666927 18.9515926,6.34562308 19.1724618,6.51413842 C19.6204711,6.8532521 20.1376908,7.15841275 20.6648971,7.44732594 C21.7276709,8.02140291 22.8554745,8.52757382 24,9" id="Fill-15" fill="#93253E" mask="url(#mask-2)"></path>
                    <path d="M88.713061,6.93854142 C87.5472274,6.01384191 86.1324026,5.43712478 84.6976852,5.28138145 C84.3391735,5.24212734 83.9793208,5.23279122 83.6228207,5.23639836 C83.2649795,5.2412786 82.9122791,5.29984149 82.5627078,5.33739812 C81.8691531,5.46683059 81.2008551,5.66692046 80.5839646,5.96164455 C79.9713209,6.26315855 79.406732,6.63448121 78.910314,7.0705201 C78.4255185,7.51992661 78.0109056,8.0238645 77.6745214,8.56472248 C77.3441721,9.11003632 77.1054623,9.69354335 76.9434168,10.2889327 C76.795676,10.890051 76.75455,11.5036883 76.7753365,12.1103234 C76.8285322,12.7173829 76.9644269,13.3085286 77.1977724,13.8582983 C77.4478813,14.4025512 77.7641494,14.9071257 78.1430006,15.3580174 C78.5328038,15.8021193 78.9597099,16.1997529 79.4158959,16.5655587 C79.8850456,16.9165117 80.3830282,17.2260887 80.9158785,17.4983212 L81.3262448,17.6841948 C81.3606655,17.6996842 81.3946391,17.7170833 81.4297304,17.7315119 L81.5372392,17.7671589 C81.6089862,17.7915601 81.6811803,17.814476 81.7527038,17.8416356 L81.968392,17.92269 C82.040586,17.9494252 82.1163563,17.9623685 82.1907854,17.9833747 L82.6427248,18.1036833 C82.950723,18.1548197 83.2636384,18.2252649 83.5857178,18.25879 C83.9062327,18.2859496 84.2336763,18.3084412 84.5653667,18.3037731 C85.8959279,18.2935883 87.2899662,17.9572761 88.713061,17.2818932 L88.7150726,17.2810444 C88.8051476,17.2383954 88.9144445,17.2729814 88.9595937,17.3582796 C88.986415,17.4092038 88.9837329,17.4675545 88.9584761,17.5148716 C88.1963035,18.9191078 86.7477285,20.0318027 85.0414452,20.586877 C84.6143156,20.72607 84.1719873,20.828555 83.720495,20.9000612 C83.2694497,20.9768719 82.810358,20.9796303 82.3461256,21 C82.1147917,20.997666 81.8834578,20.9755988 81.6505593,20.9605337 C81.534557,20.9503489 81.4165432,20.9473783 81.301435,20.9299792 L80.9554399,20.8739625 C80.8396612,20.8552903 80.7247766,20.8325865 80.6092214,20.8113681 L80.4360003,20.7784795 C80.379005,20.7651119 80.3231272,20.7481371 80.2663554,20.7330721 L79.5875524,20.5404086 C78.7002136,20.2310438 77.8591416,19.7867297 77.1215551,19.2170147 C76.3953678,18.6343564 75.7773598,17.9375429 75.2889881,17.1719817 C74.8162623,16.3951747 74.4785371,15.5581073 74.2570377,14.7042774 L74.1251662,14.0575394 L74.0943217,13.8964915 L74.0777818,13.7331095 L74.0442552,13.4074065 L74.0116226,13.0829766 C73.9977649,12.9751869 74.0071524,12.8661241 74.0029056,12.7579101 L74,12.1103234 C74.0572188,11.249067 74.2159117,10.3977833 74.5116168,9.58936083 C74.8211795,8.78666733 75.2362395,8.02874474 75.7574673,7.34614761 C76.299258,6.67734245 76.9295592,6.08662115 77.6273606,5.58798787 C78.3374552,5.10314657 79.1121444,4.72057814 79.9194663,4.44049476 C80.7359521,4.17674958 81.583953,4.04180032 82.4259191,4 C82.8488019,4.00657772 83.2681086,3.99745379 83.6836157,4.04583183 C84.0984521,4.09357331 84.5090419,4.16444289 84.9089032,4.26904979 C85.7088492,4.47677829 86.4669986,4.79505486 87.1531775,5.20669254 C87.4933613,5.41717945 87.8178993,5.6459142 88.1207568,5.89607958 C88.4216026,6.14794244 88.7014384,6.41911407 88.9584761,6.70556298 C89.0208357,6.77515945 89.0118953,6.87934198 88.9388072,6.93854142 C88.8730949,6.99158751 88.7781027,6.99031441 88.7144021,6.93960234 L88.713061,6.93854142 Z" id="Fill-16" fill="#93253E" mask="url(#mask-2)"></path>
                </g>
            </g>
        </g>
    </g>
</svg>
