<?xml version="1.0" encoding="UTF-8"?>
<svg width="63px" height="63px" viewBox="0 0 63 63" version="1.1" xmlns="http://www.w3.org/2000/svg" xmlns:xlink="http://www.w3.org/1999/xlink">
    <!-- Generator: Sketch 52.4 (67378) - http://www.bohemiancoding.com/sketch -->
    <title>strat icon</title>
    <desc>Created with Sketch.</desc>
    <g id="Comp" stroke="none" stroke-width="1" fill="none" fill-rule="evenodd" opacity="0.44" stroke-linecap="round" stroke-linejoin="round">
        <g id="Landing" transform="translate(-688.000000, -2285.000000)" stroke="#FFFFFF" stroke-width="2.25">
            <g id="offerings-white" transform="translate(172.000000, 2045.000000)">
                <g id="Strategy" transform="translate(427.000000, 242.000000)">
                    <g id="strat-icon" transform="translate(91.000000, 0.000000)">
                        <path d="M51.1981621,30.1293115 C53.0466133,29.2532459 54.6771364,27.9758689 55.9742031,26.3916066" id="Stroke-1"></path>
                        <path d="M59.0034051,18.9586885 C59.1872,16.9232787 58.9193846,14.8695082 58.2157128,12.9495082" id="Stroke-3"></path>
                        <path d="M53.3519754,6.5547541 C51.7004472,5.34557377 49.7942318,4.53245902 47.7777395,4.17311475" id="Stroke-5"></path>
                        <path d="M7.59177846,32.9521311 C5.66718359,33.9095082 3.99990154,35.307541 2.72646564,37.0386885" id="Stroke-7"></path>
                        <path d="M0.00341333333,44.9935738 C-0.0438482051,47.1391475 0.420890256,49.2637377 1.3582441,51.1942295" id="Stroke-9"></path>
                        <path d="M7.13412923,57.3117377 C9.01933949,58.3399344 11.1198523,58.9091148 13.265001,58.9851803" id="Stroke-11"></path>
                        <path d="M27.5597785,19.6721311 L27.5597785,59.0163934" id="Stroke-13"></path>
                        <polyline id="Stroke-15" points="20.0417805 27.1837377 27.5589908 19.6716066 35.0814523 27.1837377"></polyline>
                        <path d="M27.5597785,0 C30.8234503,0 33.4674708,2.64131148 33.4674708,5.90163934 C33.4674708,9.16196721 30.8234503,11.8032787 27.5597785,11.8032787 C24.2961067,11.8032787 21.6520862,9.16196721 21.6520862,5.90163934 C21.6520862,2.64131148 24.2961067,0 27.5597785,0 Z" id="Stroke-17"></path>
                    </g>
                </g>
            </g>
        </g>
    </g>
</svg>
