<svg width="16px" height="16px" viewBox="0 0 16 16" version="1.1" xmlns="http://www.w3.org/2000/svg" xmlns:xlink="http://www.w3.org/1999/xlink"><title>Bullet Icon</title> <g id="Comp" stroke="none" stroke-width="1" fill="none" fill-rule="evenodd" opacity="0.8"><g id="Landing" transform="translate(-1012.000000, -2441.000000)" fill="#6b7280"><g id="offerings-white" transform="translate(172.000000, 2045.000000)"><g id="creative" transform="translate(824.000000, 246.000000)"><g id="bullets" transform="translate(16.000000, 138.000000)"><path d="M0,24.5714286 L3.42857143,24.5714286 L3.42857143,28 L5.71428571,28 L5.71428571,22.2857143 L0,22.2857143 L0,24.5714286 L0,24.5714286 Z M3.42857143,15.4285714 L0,15.4285714 L0,17.7142857 L5.71428571,17.7142857 L5.71428571,12 L3.42857143,12 L3.42857143,15.4285714 L3.42857143,15.4285714 Z M10.2857143,28 L12.5714286,28 L12.5714286,24.5714286 L16,24.5714286 L16,22.2857143 L10.2857143,22.2857143 L10.2857143,28 L10.2857143,28 Z M12.5714286,15.4285714 L12.5714286,12 L10.2857143,12 L10.2857143,17.7142857 L16,17.7142857 L16,15.4285714 L12.5714286,15.4285714 L12.5714286,15.4285714 Z" id="Shape"></path></g></g></g></g></g></svg>
