<svg
    width="18px"
    height="16px"
    viewBox="0 0 18 16"
    version="1.1"
    xmlns="http://www.w3.org/2000/svg"
    xmlns:xlink="http://www.w3.org/1999/xlink"
  >
    <g
      id="Comp"
      stroke="none"
      stroke-width="1"
      fill="none"
      fill-rule="evenodd"
      opacity="0.8"
    >
      <g
        id="Landing"
        transform="translate(-220.000000, -2437.000000)"
        fill="#6b7280"
      >
        <g id="offerings-white" transform="translate(172.000000, 2045.000000)">
          <g id="digital" transform="translate(32.000000, 237.000000)">
            <g id="bullets" transform="translate(16.000000, 143.000000)">
              <path
                id="icon-1"
                d="M13.6171875,24.2185578 L17.9203125,20.1842569 C18.0265625,20.0842588 18.0265625,19.9186368 17.9203125,19.8186387 L13.6171875,15.7812129 C13.5171875,15.6874646 13.3578125,15.6905895 13.2640625,15.7937126 L12.4140625,16.699946 C12.3171562,16.8030691 12.3265625,16.9655661 12.4296875,17.0593144 L15.7453125,19.9998853 L12.4296875,22.9404563 C12.3234375,23.0342046 12.3171562,23.1967016 12.4140625,23.2998247 L13.2640625,24.206058 C13.3609375,24.3060562 13.5171875,24.3123061 13.6171875,24.2185578 M4.7390625,24.206058 L5.5890625,23.2998247 C5.6859375,23.1967016 5.6765625,23.0342046 5.5734375,22.9404563 L2.2578125,19.9998853 L5.5734375,17.0593144 C5.6796875,16.9655661 5.6859375,16.8030691 5.5890625,16.699946 L4.7390625,15.7937126 C4.6453125,15.6937145 4.4859375,15.6874646 4.3859375,15.7812129 L0.0796875,19.8186387 C-0.0265625,19.9186368 -0.0265625,20.0842588 0.0796875,20.1842569 L4.3859375,24.2185578 C4.4859375,24.3123061 4.6421875,24.3060562 4.7390625,24.206058 M7.3390625,27.9903635 L6.1265625,27.6372449 C5.9953125,27.5997456 5.9171875,27.4591232 5.9546875,27.3278756 L10.3546875,12.181279 C10.3921875,12.0500315 10.5328125,11.9719079 10.6640625,12.0094072 L11.8765625,12.3625257 C12.0078125,12.400025 12.0859375,12.5406474 12.0484375,12.671895 L7.6484375,27.8184916 C7.6109375,27.9528641 7.4734375,28.0278628 7.3390625,27.9903635"
              ></path>
            </g>
          </g>
        </g>
      </g>
    </g>
  </svg>
