<?xml version="1.0" encoding="UTF-8"?>
<svg width="142px" height="35px" viewBox="0 0 142 35" version="1.1" xmlns="http://www.w3.org/2000/svg" xmlns:xlink="http://www.w3.org/1999/xlink">
    <!-- Generator: Sketch 61.1 (89650) - https://sketch.com -->
    <title>girlgaze-logo</title>
    <desc>Created with Sketch.</desc>
    <g id="Page-1" stroke="none" stroke-width="1" fill="none" fill-rule="evenodd">
        <g id="girlgaze-logo" fill="#9FA6B2" fill-rule="nonzero">
            <path d="M12.1441183,23.9611645 C10.7961874,26.2933045 8.6352224,27.6412316 6.0891294,27.6412316 C3.2221045,27.6412316 1.0611357,25.1593342 1.0611357,21.4578705 C1.0611357,16.1303377 5.6398181,9.6046438 11.7589945,9.6046438 C14.6688131,9.6046438 15.7813868,11.1665287 17.7497954,11.1665287 C18.7767882,11.1665287 19.5470347,10.7386141 20.3172812,9.7330122 L17.5786318,27.1705236 C16.8511786,31.7492132 13.4064678,34.6590242 7.009149,34.6590242 C4.5700382,34.6590242 0.6118302,34.3167009 0.6118302,31.2357111 C0.6118302,29.4384642 2.0453426,28.1333323 3.8853757,28.1333323 C5.1905157,28.1333323 6.5384438,28.9677706 6.3244865,30.7008181 C5.3188884,31.0431433 4.7625983,31.8133974 4.7625983,32.6692267 C4.7625983,33.5678492 5.4258669,34.33809 7.0947302,34.33809 C9.8761743,34.33809 10.7106059,32.7975951 11.0743354,30.4226752 L12.1441183,23.9611645 Z M12.3580761,22.7630043 L13.7915888,13.6698236 C14.2195025,10.9525642 14.2622967,9.8827781 12.3794699,9.8827781 C9.5338383,9.8827781 7.3942666,16.8791808 7.3942666,22.4206714 C7.3942666,24.2606983 7.8007841,25.9723548 9.3626718,25.9723548 C10.6036272,25.9723548 12.1441183,24.0039597 12.3580761,22.7630043 Z" id="Shape"></path>
            <path d="M23.7192001,14.910779 C23.8903637,13.7981987 24.3610725,11.7014208 22.8419742,11.7014208 C22.4140605,11.7014208 21.8149833,12.0437536 21.1945018,12.4716683 L21.0875224,12.3005057 C22.7991809,10.9953652 25.1955031,9.7544165 27.5062388,9.7544165 C29.3890589,9.7544165 30.30908,10.8883868 29.923952,13.4344826 L28.3620681,23.3406983 C28.297882,23.768612 27.9341525,25.9937726 29.0253352,25.9937726 C29.8597678,25.9937726 30.7583903,24.8598004 30.9937438,23.2765122 L31.2290992,23.2765122 C30.8011836,26.2291203 28.148117,27.7696133 25.8373756,27.7696133 C23.6978035,27.7696133 21.8149833,26.9565792 22.5638332,22.1211453 L23.7192001,14.910779 Z M31.8709698,4.1059411 C31.8709698,6.3096977 29.8597737,8.2139218 27.7202034,8.2139218 C25.9871483,8.2139218 24.7461987,6.8018034 24.7461987,5.0259612 C24.7461987,2.8222049 26.7787915,0.9821718 28.896967,0.9821718 C30.6514111,0.9821718 31.8709698,2.3300925 31.8709698,4.1059411 Z" id="Shape"></path>
            <path d="M40.4078598,16.2159128 L38.6748047,27.3202953 C36.6422119,27.2133178 34.6310158,27.3630905 32.6198197,27.6626224 L34.5882302,14.9535665 C34.7593919,13.8409862 35.2301026,11.701415 33.7110024,11.701415 C33.2830887,11.701415 32.6840134,12.0437478 32.06353,12.4716615 L31.9565525,12.3004989 C33.6682091,10.9953584 36.0645332,9.7544097 38.375267,9.7544097 C40.2580871,9.7544097 41.4134636,10.88838 40.8785705,13.4344758 L40.4506568,15.5740479 C41.4776458,13.0279578 43.3604735,9.6260403 46.5698318,9.6260403 C49.4154586,9.6260403 50.656414,11.401882 50.656414,13.3061064 C50.656414,15.4456785 49.0517349,17.7136267 46.3344764,17.7136267 C44.9009628,17.7136267 43.6814079,16.8150032 43.8953666,14.9107855 C45.2432937,14.6112469 45.9707526,13.2419222 45.9707526,12.0651577 C45.9707526,11.2521227 45.6284217,10.4604786 44.8581733,10.4604786 C43.3604736,10.4604654 41.1781082,14.0335531 40.4078598,16.2159128 Z" id="Path"></path>
            <path d="M57.2034988,23.3406906 C57.1393165,23.7686043 56.7755851,25.9937591 57.8667678,25.9937591 C58.7011985,25.9937591 59.5998229,24.8597888 59.8351783,23.2765006 L60.0705299,23.2765006 C59.6426162,26.2291068 56.9895477,27.7695998 54.6788063,27.7695998 C52.5392342,27.7695998 50.656414,26.9565657 51.4052658,22.1211318 L53.8871689,6.159925 C54.0583344,5.0473447 54.5290413,2.907773 53.0099449,2.907773 C52.5820312,2.907773 51.9829521,3.2501058 51.3624725,3.6780202 L51.2554931,3.5068571 C52.9671516,2.2017168 55.3634719,0.9607679 57.6742095,0.9607679 C59.5570296,0.9607679 60.6268157,2.0733478 60.1775092,4.640834 L57.2034988,23.3406906 Z" id="Path"></path>
            <path d="M72.907959,23.9611645 C71.5600281,26.2933045 69.3990555,27.6412316 66.852974,27.6412316 C63.9859467,27.6412316 61.8249779,25.1593342 61.8249779,21.4578705 C61.8249779,16.1303377 66.403656,9.6046438 72.5228348,9.6046438 C75.4326477,9.6046438 76.5452271,11.1665287 78.5136338,11.1665287 C79.5406266,11.1665287 80.3108826,10.7386141 81.0811234,9.7330122 L78.3424759,27.1705236 C77.6150131,31.7492132 74.170311,34.6590242 67.7729874,34.6590242 C65.33387,34.6590242 61.3756638,34.3167009 61.3756638,31.2357111 C61.3756638,29.4384642 62.8091813,28.1333323 64.6492081,28.1333323 C65.9543457,28.1333323 67.3022766,28.9677706 67.0883179,30.7008181 C66.0827179,31.0431433 65.5264359,31.8133974 65.5264359,32.6692267 C65.5264359,33.5678492 66.1897049,34.33809 67.858574,34.33809 C70.6400147,34.33809 71.4744569,32.7975951 71.838173,30.4226752 L72.907959,23.9611645 Z M73.1219101,22.7630043 L74.5554276,13.6698236 C74.9833451,10.9525642 75.0261384,9.8827781 73.1433182,9.8827781 C70.2976914,9.8827781 68.1581192,16.8791808 68.1581192,22.4206714 C68.1581192,24.2606983 68.5646439,25.9723548 70.1265259,25.9723548 C71.3674622,25.9723548 72.907959,24.0039597 73.1219101,22.7630043 Z" id="Shape"></path>
            <path d="M98.9893417,23.3406906 C98.9251556,23.7686043 98.5614242,25.9937591 99.6526031,25.9937591 C100.487045,25.9937591 101.385651,24.8597888 101.62101,23.2765006 L101.856361,23.2765006 C101.428444,26.2291068 98.7753754,27.7695998 96.4646378,27.7695998 C94.6246109,27.7695998 92.8487549,27.2347068 92.8915482,23.9825553 C91.5436249,26.3146953 89.3826447,27.6626224 86.8365632,27.6626224 C83.9695359,27.6626224 81.808571,25.1807231 81.808571,21.4792613 C81.808571,16.1517276 86.3872606,9.6260337 92.5064317,9.6260337 C95.4162446,9.6260337 96.528824,11.1879186 98.4972307,11.1879186 C99.5242235,11.1879186 100.294479,10.760004 101.06472,9.7544031 L98.9893417,23.3406906 Z M93.0841141,22.7630043 L94.5176316,13.6698236 C94.9455491,10.9525642 94.9883424,9.8827781 93.1055222,9.8827781 C90.2598954,9.8827781 88.1203232,16.8791808 88.1203232,22.4206714 C88.1203232,24.2606983 88.5268402,25.9723548 90.0887299,25.9723548 C91.3510666,25.9723548 92.8915634,24.0039597 93.0841141,22.7630043 Z" id="Shape"></path>
            <path d="M102.1773,26.6570206 C102.1773,25.416071 103.1829,24.5388394 104.680595,23.9397621 L118.159904,13.7340011 C113.602615,14.9749507 106.07132,14.3330793 106.07132,16.8149833 C106.07132,17.9489536 107.440651,18.2912864 108.553215,18.2484988 L108.553215,18.4838542 C105.215492,18.5908317 104.231277,16.0447425 104.231277,14.3116883 C104.231277,11.9367627 105.664795,9.626027 108.852753,9.626027 C112.597,9.626027 116.148682,13.1135272 118.245476,13.1135272 C118.95153,13.1135272 119.850159,12.8353852 119.850159,11.9367627 C119.850159,11.4018697 119.379448,10.9311608 118.587799,11.2093095 C117.94593,10.310686 118.758965,9.1981134 119.850159,9.1981134 C120.620392,9.1981134 121.497627,9.6260271 121.497627,10.7386074 C121.497627,12.1079321 120.492027,12.9209728 119.015732,13.4772568 L105.515038,23.6402302 C110.136505,22.1425286 117.924553,22.1639271 117.924553,20.152731 C117.924553,19.2755051 116.362671,19.211319 115.378456,19.2755051 L115.378456,19.0401497 C118.694794,18.6764202 119.828766,20.5164528 119.828766,22.5276489 C119.828766,25.6728229 117.218483,27.6412315 114.565422,27.6412315 C111.077927,27.6412315 107.676003,24.1537323 105.53643,24.1537323 C104.873161,24.1537323 103.739182,24.4532776 103.739182,25.4588661 C103.739182,25.9295749 104.38105,26.2933044 105.172699,26.0579433 C105.643402,26.9565658 104.808968,28.0691452 103.696388,28.0691452 C102.947548,28.0905361 102.1773,27.7268066 102.1773,26.6570206 Z" id="Path"></path>
            <path d="M128.13031,16.9005785 L128.13031,17.3070965 C128.13031,20.5164528 129.628021,23.5332508 133.308075,23.5332508 C134.912766,23.5332508 137.095123,22.8913803 138.571426,21.0513458 L138.763992,21.1583252 C136.62442,24.7314053 133.308075,27.6412315 128.964752,27.6412315 C124.792587,27.6412315 121.797188,24.9667663 121.797188,20.4736652 C121.797188,14.7610063 126.675407,9.6046438 133.029938,9.6046438 C135.640213,9.6046438 139.448757,10.2465153 139.448757,13.3488941 C139.470047,15.8307924 136.153702,18.205719 128.13031,16.9005785 Z M128.173096,16.6438274 C132.666199,16.9219684 134.527618,14.1405248 134.527618,12.0651445 C134.527618,10.8669834 133.885757,9.8827781 132.751785,9.8827781 C130.162903,9.8827781 128.365662,13.2633057 128.173096,16.6438274 Z" id="Shape"></path>
            <path d="M142.016129,9.3264952 C142.016129,9.9683667 141.481232,10.4604655 140.79657,10.4604655 C140.111908,10.4604655 139.555618,9.9683667 139.555618,9.3264952 C139.555618,8.7060209 140.111908,8.2139154 140.79657,8.2139154 C141.481232,8.1925182 142.016129,8.7060208 142.016129,9.3264952 Z M139.855164,9.3264952 C139.855164,9.818594 140.24028,10.2251177 140.796585,10.2251177 C141.331482,10.2251177 141.716598,9.8186007 141.716598,9.3264952 C141.716598,8.8343964 141.331482,8.4278722 140.796585,8.4278722 C140.24028,8.4278722 139.855164,8.8343897 139.855164,9.3264952 Z M140.582611,9.9041758 L140.304474,9.9041758 L140.304474,8.7915955 C140.411453,8.7701989 140.561218,8.7488017 140.775177,8.7488017 C141.010529,8.7488017 141.096115,8.7915955 141.181702,8.834383 C141.24588,8.8771772 141.288681,8.962759 141.288681,9.0911341 C141.288681,9.2195101 141.181702,9.3050919 141.031937,9.3478861 L141.031937,9.3692827 C141.138901,9.4120769 141.224503,9.4976587 141.24588,9.6474247 C141.288681,9.8185873 141.310074,9.8827782 141.331482,9.9255657 L141.031937,9.9255657 C140.989136,9.8827724 140.967743,9.7757931 140.946335,9.6474247 C140.924957,9.5190487 140.860748,9.4762611 140.689591,9.4762611 L140.561218,9.4762611 L140.582611,9.9041758 L140.582611,9.9041758 Z M140.604019,9.2623043 L140.732391,9.2623043 C140.882156,9.2623043 141.010529,9.2195101 141.010529,9.09114095 C141.010529,8.9841623 140.924942,8.9199776 140.753769,8.9199776 C140.689591,8.9199776 140.625412,8.9199776 140.604004,8.9413747 L140.604019,9.2623043 L140.604019,9.2623043 Z" id="Shape"></path>
        </g>
    </g>
</svg>