
<svg width="304" height="224" viewbox="0 0 304 224" xmlns="http://www.w3.org/2000/svg">
  <defs>
    <linearGradient x1="50.1%" y1="100%" x2="50.1%" y2="0%" id="a">
      <stop stop-color="gray" stop-opacity=".3" offset="0%"/>
      <stop stop-color="gray" stop-opacity=".1" offset="54%"/>
      <stop stop-color="gray" stop-opacity=".1" offset="100%"/>
    </linearGradient>
  </defs>
  <g fill="none" fill-rule="evenodd">
    <path d="M178.2 31.5c-17.9-.6-35-6.4-51.3-12.8C110.6 12.4 94.5 5.4 77 2 65.8 0 53-.4 43.9 5.6 35 11.4 32.2 21.4 30.7 30.8A35 35 0 0 0 32 51.7c2.2 4.5 6 8.4 8.7 12.7 9.3 15.2 2.7 34-7.3 48.7-4.7 7-10.2 13.6-13.8 21-3.7 7.4-5.4 15.9-2.2 23.4 3.2 7.5 10.7 13.1 18.8 17 16.6 8 36 10.4 55 11.7 42.1 2.9 84.4 1.6 126.6.4 15.6-.5 31.3-1 46.6-3.4a48.8 48.8 0 0 0 23.5-8.6 19.7 19.7 0 0 0 4.6-25.7c-8.9-13.7-33.3-17.1-39.4-31.9-3.4-8 0-17.1 5-24.6 10.6-16.1 28.3-30.3 29.3-48.7.6-12.7-8-25.4-21.1-31.4-13.9-6.2-33-5.4-43.2 5-10.6 10.6-29 14.7-44.9 14.2z" fill="#6C63FF" opacity=".1"/>
    <g opacity=".9" transform="translate(114.8 31.6)">
      <rect fill="#3A3768" x="81.7" y="37.9" width="2.5" height="20.2" rx=".6"/>
      <rect fill="#3A3768" x=".2" y="22.1" width="1.4" height="6.7" rx=".6"/>
      <rect fill="#3A3768" x=".2" y="34.3" width="1.5" height="11.6" rx=".6"/>
      <rect fill="#3A3768" x=".2" y="49.9" width="1.5" height="11.7" rx=".6"/>
      <rect fill="#3A3768" x="1" width="82" height="167" rx="9.8"/>
      <rect fill="#E6E8EC" x="34.1" y="5" width="11.5" height="2.3" rx="1"/>
      <ellipse fill="#E6E8EC" cx="48.6" cy="6.2" rx="1.3" ry="1.3"/>
    </g>
    <ellipse fill="#6C63FF" opacity=".1" cx="66.4" cy="202.4" rx="55.4" ry="5.7"/>
    <ellipse fill="#6C63FF" opacity=".1" cx="189.6" cy="221.4" rx="26" ry="2.6"/>
    <ellipse fill="#6C63FF" opacity=".1" cx="278" cy="208" rx="26" ry="2.6"/>
    <path d="M186.3 36H177v1c0 3-2.4 5.4-5.3 5.4h-30c-3 0-5.4-2.4-5.4-5.4v-1h-8.9a6.5 6.5 0 0 0-6.5 6.4v145.3a6.5 6.5 0 0 0 6.5 6.5h59c3.7 0 6.6-2.9 6.6-6.5V42.4c0-3.6-3-6.5-6.6-6.5z" fill="#6C63FF"/>
    <ellipse fill="#6C63FF" cx="11.5" cy="188.6" rx="11.1" ry="1.9"/>
    <path d="M16.2 185.5c.5-.4.8-1 1-1.6.1-.6-.1-1.4-.7-1.6-.7-.3-1.4.2-2 .6-.5.5-1.2 1-1.9 1 .8-.7 1.1-1.7 1-2.7l-.3-.6c-.4-.4-1-.2-1.5.1-1.5 1-1.9 3-1.9 4.7v-2c0-.6-.2-1.3-.7-1.6l-1.1-.3c-.7 0-1.4 0-1.8.5-.6.6-.4 1.6 0 2.2.5.6 1.2 1 1.9 1.5.5.3 1 .7 1.3 1.3l.1.2h4c1-.5 1.8-1 2.6-1.7zM230.5 162.2s2.5 3.2-1 8c-3.6 4.7-6.5 8.7-5.4 11.7 0 0 5.4-8.8 9.7-9 4.4-.1 1.5-5.4-3.3-10.7z" fill="#6C63FF"/>
    <path d="M230.3 162.2l.5 1c4.2 5 6.5 9.6 2.4 9.7-3.7.1-8.3 6.9-9.3 8.6l.1.4s5.3-8.8 9.6-9c4.3-.1 1.5-5.4-3.3-10.7z" fill="#000" opacity=".1"/>
    <path d="M235 166.2c0 1.2-.2 2-.3 2-.1 0-.2-.8-.2-2 0-1.1 0-.6.2-.6s.3-.5.3.6z" fill="#FFD037"/>
    <path d="M236.4 167.5c-1 .6-1.9.9-2 .7l1.7-1.2c1-.5.6-.1.7 0 0 .2.6 0-.4.5z" fill="#FFD037"/>
    <path d="M217.7 162.2s-2.4 3.2 1.1 8c3.6 4.7 6.5 8.7 5.3 11.7 0 0-5.3-8.8-9.7-9-4.3-.1-1.5-5.4 3.3-10.7z" fill="#6C63FF"/>
    <path d="M218 162.2c-.3.3-.5.7-.6 1-4.2 5-6.4 9.6-2.4 9.7 3.8.1 8.3 6.9 9.4 8.6l-.2.4s-5.2-8.8-9.5-9c-4.4-.1-1.5-5.4 3.2-10.7z" fill="#000" opacity=".1"/>
    <path d="M213.3 166.2c0 1.2.1 2 .2 2 .2 0 .3-.8.3-2 0-1.1-.2-.6-.3-.6-.1 0-.2-.5-.2.6z" fill="#FFD037"/>
    <path d="M211.9 167.5c1 .6 1.8.9 1.9.7L212 167c-1-.5-.6-.1-.6 0-.1.2-.6 0 .4.5z" fill="#FFD037"/>
    <path d="M214 181.5s6.7-.2 8.8-1.7c2-1.4 10.3-3.1 10.8-.8s10 11.4 2.5 11.5c-7.6 0-17.6-1.2-19.6-2.4-2-1.3-2.5-6.6-2.5-6.6z" fill="#A8A8A8"/>
    <path d="M236.2 189.7a64 64 0 0 1-19.6-2.4c-1.5-1-2.1-4.4-2.3-6h-.3s.5 5.5 2.5 6.7a64 64 0 0 0 19.6 2.5c2.2 0 3-.8 2.9-2-.3.7-1.1 1.2-2.8 1.2z" fill="#000" opacity=".2"/>
    <path fill="#3A3768" opacity=".3" d="M162.4 135.8h21.7v21.7h-21.7zM130.4 107.3h21.7V129h-21.7zM132.4 163.7h21.7v21.7h-21.7z"/>
    <path fill="#FFF" d="M127.6 54.1h21.7v21.7h-21.7zM163.6 142.5l16-14.5 14.5 16-16 14.6zM161.9 80.3h21.7V102h-21.7zM134.7 104.2h21.7v21.7h-21.7z"/>
    <path d="M269.5 203.7a9 9 0 0 0 3.9-.1c.2-.1.4-.2.4-.4l-.1-.2a11.2 11.2 0 0 1-1.3-2.2l-1.7.7h-.9l-.8-.2.5 2.4zM293.5 201.6c.8-.6 1.6-1.2 2.1-2v-.3-.1a7 7 0 0 0-1.7-2l-1 1c-.2.2-.7.6-.7.9 0 .2.2.4.3.5l.4.7s.7 1.2.6 1.3z" fill="#6C63FF"/>
    <path d="M274.5 206.2l-.1.5-.4.2c-1.7.6-3.8-.2-5.5.4l-1 .5-1.4.2a27 27 0 0 1-3.3 0c-.4-.1-.8-.4-1-.9-.1-.1-.2-.4-.1-.6l.1-.1.4-.4.7-.4 1-.5.7-.2c1-.3 1.6-1 2.3-1.6l.9-1 .3-.2h.4c.8 0 1.6.3 2.4.8l.5.3c.6.2 1.2 0 1.7-.2.2-.1.2-.2.3-.4 0-.2.3-.3.5-.1l.1.2c.2.6.2 1.3.2 1.9v.3l.2.3.1 1z" fill="#514E7F"/>
    <path d="M274.5 206.3l-.1.6-.4.2c-1.7.6-3.8-.2-5.5.4l-1 .5-1.4.2a25.6 25.6 0 0 1-3.3 0c-.4 0-.8-.4-1-.9-.1-.2-.2-.4-.1-.6l.1-.2.3.6c.1.4.4.6.8.6h.7c1.6-.5 3.3-.5 4.9-1l1.5-.7 1.7-.2c1 0 1.8-.3 2.7-.5l.1 1z" fill="#464353"/>
    <path d="M297.4 201.3c0 .7-.5 1.3-1 1.7-.5.5-1 1-1.3 1.5-.5.7-.7 1.6-1.3 2.2l-.8.5-1 .5a7.7 7.7 0 0 1-3.6 0l-.4-.3-.6-.6v-.4l.3-.4.6-.6 1-.7c0-.3.2-.5.3-.8l.2-1.4.1-1c.2-.5.5-1 .5-1.5v-.2h.2l.9-.3c.3 0 .6.1.8.3l.4.5h.3c.5 0 1-.1 1.4-.4.3-.3.5-.8.5-1.2 0-.2 0-.4.2-.4s.4.2.5.3c.4.5.7 1 .9 1.6h.1c.3 0 .5 0 .7.3.1.2.2.5.1.8z" fill="#514E7F"/>
    <path d="M297.4 201.5c0 .6-.5 1.2-1 1.7l-1.3 1.5c-.4.7-.6 1.6-1.2 2.2l-.8.6-1 .4a7.3 7.3 0 0 1-3.6 0 2.5 2.5 0 0 1-.9-.8l.6-.2c.4 0 .7.5 1 .6.6.1 1.2-.3 1.8-.4.3 0 .7 0 1-.2.4 0 .7-.3 1-.5l.8-.9.5-1a15.2 15.2 0 0 1 1.3-2.3l.2-.2c.4-.3.6-.8.7-1.3l.2-.4.6.3c.1.3.2.6.1.9z" fill="#464353"/>
    <path d="M257.6 142.2c.5.3.9.8 1.1 1.3.3.5 1.8 4.5 1.7 5.1.5-.5 2.5-.6 3-1l1.5-1.6c.1-.2 1.4-.7 1.5-1 .5-.9-3.6-4.4-3-5.3v-.1l-.1-.2-1.2-.8a2 2 0 0 1-1-1 76.7 76.7 0 0 0-3.3 2.7c-.2.2-.8.6-.9 1-.1.3.4.7.7.9z" fill="#A1616A"/>
    <path d="M264.5 140.8c-.7.4-1.3 1-1.8 1.5-.6.5-1 1-1.2 1.8v.9c-.3 1.2-1.4 2.1-1.8 3.3a13 13 0 0 0-.5 3.3c0 .7.6 1.2.9 1.8a24.5 24.5 0 0 0 1.6 5.8l5 12.4c2.8-.8 10.5-2.4 13-4 .9-.4-5.9-6.1-5-6.5l.3-.2v-.3c-1-4-3.8-7.2-5-11.1-.5-1.3-1.3-2.5-2-3.8-.5-1.1-.8-2.4-1.4-3.5l-.5-.6a3 3 0 0 0-.6-.3l-1-.5z" fill="#514E7F"/>
    <ellipse fill="#A1616A" cx="257.9" cy="137.3" rx="4.5" ry="4.5"/>
    <path d="M262.4 139.4c.5-.4 1.1-.5 1.7-.2.3.1.5.4.5.8h2.2l1 .1c.4.1.7.3 1 .6h.1a2 2 0 0 1 1.1-.2 6 6 0 0 1 3.3 1.5c.2 0 .3.2.4.4 0 .3 0 .6.2.8 0 2 .7 4 1.1 6 .1.4.5.7.7 1l.7 1c.4 1.1-.1 2.4.3 3.4.2.5.4.9.7 1.2.4.5.6 1 .7 1.6v.8a72.2 72.2 0 0 0 .7 2.8c.2 1 .6 2 1.5 2.6-2.1.3-4.4.7-6.4 0l-.8-.4c-.7-.6-1-1.5-1.4-2.3-.3-1-.7-2-.8-3v-.9c-.3-.5-.8-.9-1.3-1.2a6 6 0 0 1-1.6-1.1c-.4-.5-.6-1.2-.6-1.8l.2-1c0-.3-.1-.6-.4-.7-1.6-.5-2.3-2.3-2.7-4l-.2-2.4v-1.6c-.4-.4-.7-1-.7-1.5v-.5c0-.3-.2-.4-.3-.6-.4-.3-.7-.7-.9-1.2zM257.4 144.7v1.5l-.2.5c-.1.7 0 1.5.2 2.1l1.1 1.9.3.6.2.8c0 1 .3 2 .5 3 .2.8.5 1.6 1 2.3l.5.3h.3l1.2-.5.3-.2.1-.4c0-1-.2-1.8-.5-2.7-1-2.6-2.1-5.2-2.7-8-.2-.7-.3-1.8-.9-2.4-.2-.3-.1-.2-.4 0l-.4.2c-.3.2-.5.6-.6 1z" fill="#464353"/>
    <path d="M261.2 149.6l.9 4.8 4.4-1.2c0-.4-.3-.9-.4-1.3-.4-1-.4-2.1-.8-3.2l-.8-2.3-.4-1.4-.5-1.4c-.2-.6-.6-1.2-1-1.8-.5.2-1 .5-1.4 1-.2.3-.3.6-.3 1 0 1 .3 2 .2 3v2.8z" fill="#6C63FF"/>
    <path d="M266.4 171c.3 1-.1 2-.4 3-.4 1.4-.7 2.9-.9 4.3 0 .4 0 .8-.2 1.1l-.6 1c-.4.7-.4 1.7-.3 2.6l.3 1.8c.1.7.3 1.5 0 2.2.4-.1.7.3.7.7 0 .4-.2.8 0 1 .4.2.4.8.4 1.3l.3 2.4 2.1 9.5c1.6.5 3.5 1 5 .3.4 0 .6-.3.7-.6v-.5l-.8-2.6c-.2-.7-.3-1.3-.3-2 .1-.5.3-1 0-1.4l-.2-.4c-.4-.6-.2-1.3-.2-2v-.5l-.2-.5a7.6 7.6 0 0 1-.8-3.7l-.1-.5-.1-.2v-.4l-.6-.5a.8.8 0 0 0 .2-1.3.4.4 0 0 0 .2-.8l-.3-.1v-.5l.5-.8c.3-.6.4-1.4.8-2l1.1-2.6 1.3-3.5.8.7.8.8.2 1c.3 1.9 1.5 3.6 2 5.4 0 .5.2.9.4 1.3l.2.3v.6c.2.8.6 1.5 1.2 2 .5.2 1 .4 1.2.9l.2.4c.2.2.7.3.7.6l.1.5.2.2 1.3.6c1.3.7 2 2.3 3 3.4l1 1.3c.4.7.6 1.7 1.4 2.2l.5.4c.3.3.2.8.2 1.2 0 .4.3.8.7.7-.2.5-.2 1 0 1.4 1.6 0 3.1-.7 4.4-1.7.3-.4.7-.8.7-1.2v-.3l-.4-.2c-1.1-.6-1.5-2-2-3.2l-2-3c-1.3-2-2.3-4.6-4.3-6-.5-.2-1-.5-1.3-1l-.2-.9c0-.3-.4-.5-.7-.5.2-.5.2-1 .2-1.4v-.6l-.4-.6c-.5-1-.8-2-.8-3v-1.7l-.4-.8-.2-1.4-.1-1.8-.2-1.8c-.4-1.5-.8-7.4-2.1-8-1.3-.7-3.6 3.8-5 4-.7 0-1.3 0-2 .3-.9.4-1.7 1-2.5 1.7L268 170l-1.7 1.2zM253.5 132.3c.6-.8 1.6-1.3 2.6-1.3s2 .2 2.9.7l.8.4c.5 0 1 0 1.4.2.6.3.7 1 .7 1.7-.1.6-.2 1.4.1 2l.4.4v1c-.3-.1-.5-.4-.6-.6-.2-.2-.6-.4-.8-.2-.3.1-.3.4-.3.7 0 .3 0 .6-.3.7-.2 0-.4 0-.6-.2-.4-.6-.2-1.4-.6-2l-1-.7-.3-.9c-.1-.2-.5-.5-.8-.3l-.2.3c-.3.5-.8.6-1.3.4l-.6-.2c-.3 0-.6.1-.7.4l-.2.8-.1 1c-.1.2-.2.3-.4.3-.3.3-.7.4-1 .2a.8.8 0 0 1-.2-.8c0-.3 0-.5.2-.8l.1-1.8.8-1.4z" fill="#464353"/>
    <path d="M255.9 145.6v.4l.3.2c.6.4 1.3.7 2 .7h.3c.2.2.2.5.2.7l-.2.6c0 .4.5.6 1 .6.5.1 1 0 1.5-.3.3-.3.6-.6.7-1 1-2.5 1.5-5.2 2.6-7.7l.1-.6c0-.1 0-.3-.2-.4-.2-.2-.5 0-.6-.3-.1 0 0-.2-.2-.3 0-.3-.4-.2-.6-.3l-.5-.4c-.2 0-.4 0-.6.2-.6.6-1 1.5-1.3 2.3a27 27 0 0 1-2 3.6c.2-.1-.3-1.2-.5-1.2-.4 0-.8.5-1 .8-.6.7-1 1.5-1 2.4z" fill="#6C63FF"/>
    <path fill="#FFF" d="M258.1 149.1h21.7v21.7h-21.7z"/>
    <path d="M279.5 161l-1 1.1c-.3.4-.5 1-.5 1.4 0 .2 0 .3.2.5 0 0 .2.1.4 0l.2-.1.6-.7s.2-.2.3-.1h.1c.2.2.3.3.3.5 0 .3 0 .6-.3.8l-.5.7v.3l.2.1c.5.3 1.2.3 1.8.1l1-.5.6-.2.4-.7v-.8a9.3 9.3 0 0 0-.8-3.2h-.1c-.5-.1-1.3-.4-1.8-.2l-.4.4c-.1 0-.7.5-.7.7z" fill="#A1616A"/>
    <path d="M279.6 160.8c0-.4-.6-1.5.3-1.6 0-.5-.7-.8-.6-1.3l.2-.5c.1-.6-.8-.8-.7-1.3 0-.2.3-.3.3-.5.1-.4-.6-.6-.7-1l.1-.5-.2-.5c-.3-.5-.2-1.1-.6-1.3.3 0 .4-.4.3-.7-.1-.3-.4-.5-.4-.8v-.3c0-.3-.5-.3-.6-.6v-.3c0-.2-.2-.3-.5-.4l-.6-.2c-.1-.1-.2-.3-.4-.2l-.1.1c-.2.2-.5.2-.7 0-.7-.4-1-1.2-1.1-2-.2-.7-.2-1.5-.3-2.2l-.2-.7c-.2-.2-.3-.5-.3-.7 0-.4.8-.1 1.2 0h1l1 .5c1.4.6 3 .7 4.1 1.7.4.4.7.8 1.1 1l.7.1c.5.3.6 1 .9 1.5l.2.4v.5l.1 1.3c0 2.3.2 4.5 0 6.7-.2.7-.3 1.4 0 2.1l.1.6.1.7v1h-.2c-1.2 0-2.4-.7-3.6-.3" fill="#464353"/>
    <path d="M257.4 157.2v.2a1 1 0 0 0 0 1.1V158.8c-.2.2-.1.5 0 .7l.3.2v.6c0 .2.3.4.5.4l.5-.1v-.5c0-.2-.2-.3-.3-.4.3 0 .5-.3.5-.5 0-.3-.1-.6-.3-.7l-.1-.2v-.2c.3-.3.6-1 0-1.1h-.5l-.2.2h-.4z" fill="#A1616A"/>
    <path d="M263 138c-.3 0-.6.2-.7.4a2 2 0 0 0-.3 1c-.2 1-.6 2-1 3M263.7 138.8a1 1 0 0 0-1 .5l-.1 1c-.2.7-.5 1.4-1 2" fill="#000" opacity=".1"/>
    <path d="M85.2 156.6c.2 1.7-1.2 3.4-.8 5.1.1.4.3.7.3 1.1.2 1-.4 2-1 2.8l-5 7.3-.7.9c-1 .8-2.3.7-3.6 1-.9.2-1.7.5-2.4 1v.3a2 2 0 0 0 1.8.8c0 .2 0 .5-.2.6-.3.2-.7.2-.7.7v.4c.3.3.6.5 1 .6 1.7.5 3.5-.4 4.8-1.6 1.3-1.3 2.2-2.9 3.5-4.2l2.2-2a25.4 25.4 0 0 0 4.4-6.3c.1-.5 0-1.1.2-1.7.2-.7.8-1.3 1.2-2a6.4 6.4 0 0 0 1.4-4.1c-.2-1.5-1-3-2.5-3.5-.4-.2-1-.2-1.4 0-.5.1-1 .6-1.4 1l-.9 1.1-.6.9c0 .3 0 .6.2.9" fill="#FBBEBE"/>
    <path d="M85.2 156.6c.2 1.7-1.2 3.4-.8 5.1.1.4.3.7.3 1.1.2 1-.4 2-1 2.8l-5 7.3-.7.9c-1 .8-2.3.7-3.6 1-.9.2-1.7.5-2.4 1v.3a2 2 0 0 0 1.8.8c0 .2 0 .5-.2.6-.3.2-.7.2-.7.7v.4c.3.3.6.5 1 .6 1.7.5 3.5-.4 4.8-1.6 1.3-1.3 2.2-2.9 3.5-4.2l2.2-2a25.4 25.4 0 0 0 4.4-6.3c.1-.5 0-1.1.2-1.7.2-.7.8-1.3 1.2-2a6.4 6.4 0 0 0 1.4-4.1c-.2-1.5-1-3-2.5-3.5-.4-.2-1-.2-1.4 0-.5.1-1 .6-1.4 1l-.9 1.1-.6.9c0 .3 0 .6.2.9" fill="#000" opacity=".1"/>
    <path d="M47.3 164l1 2.7a22 22 0 0 0 4.2 6.6c.8 1 1.8 2 2 3.3.2.7.2 1.5.3 2.3 0 .7.3 1.5.9 2l1.5.5c.4 0 .9 0 1.1-.3l.1-.4.1-1.1c0-.3.1-.6.3-.6.3 0 .4.3.6.5a.6.6 0 0 0 .8-.3c.2-.3.2-.7 0-1a4.6 4.6 0 0 0-2.3-2.9l-1.2-.6a71.2 71.2 0 0 1-6.6-11.8c-.3-.6-.5-1.4-.6-2l.1-2.3c0-1.3 0-2.6-.4-4a3 3 0 0 0-.3-.9c-.7-1-2.1-1-3-.4a3 3 0 0 0-1.2 2.1c0 .8.4 1.5.6 2.2l2 6.5z" fill="#A1616A"/>
    <path d="M47.3 164l1 2.7a22 22 0 0 0 4.2 6.6c.8 1 1.8 2 2 3.3.2.7.2 1.5.3 2.3 0 .7.3 1.5.9 2l1.5.5c.4 0 .9 0 1.1-.3l.1-.4.1-1.1c0-.3.1-.6.3-.6.3 0 .4.3.6.5a.6.6 0 0 0 .8-.3c.2-.3.2-.7 0-1a4.6 4.6 0 0 0-2.3-2.9l-1.2-.6a71.2 71.2 0 0 1-6.6-11.8c-.3-.6-.5-1.4-.6-2l.1-2.3c0-1.3 0-2.6-.4-4a3 3 0 0 0-.3-.9c-.7-1-2.1-1-3-.4a3 3 0 0 0-1.2 2.1c0 .8.4 1.5.6 2.2l2 6.5z" fill="#000" opacity=".1"/>
    <path d="M89.4 196.8c-1.1.7-2.5.7-3.7.6l-.6.1c-.2.2 0 .6.3.8.7.5 1.6 1 2.5 1 .8.2 1.7.2 2.5.2a41.2 41.2 0 0 0 7.2-.4l.3-.4c0-.6-.2-1.2-.6-1.6a5 5 0 0 0-1.6-1l-2-.7c-.5-.2-1.2-.7-1.7-.6-1 0-1.8 1.5-2.6 2z" fill="#3F3D56"/>
    <path d="M94.2 201.5c-1 .8-2.2 1.2-3.4 1.2-.3 0-.7 0-.7.4v.2a3 3 0 0 0 1.8 1.4c.7.1 1.4.2 2 .1l2.1-.1h1.2l1.2-.3c1-.1 2-.2 3-.1.2 0 .5 0 .7-.2.1-.2 0-.6 0-.8l-.1-1.8c-.2-1-1.1-1.9-2.1-2.3-1-.3-2.6-.7-3.4-.1-1 .6-1.5 1.6-2.3 2.4z" fill="#3F3D56"/>
    <path d="M90.3 175.4c-.8 1.1-1.7 2.4-1.5 3.7.1.7.6 1.4.8 2l.9 3 .8 4.2c.2 1.7.2 3.3.2 5 0 .4-.1.8-.4 1l-.3.4v.4c.6 1 1.5 1.9 2.5 2.3 1 .4 2.2.6 3.4.6h.4c.2-.1.3-.3.3-.4.9-1.6.4-3.5.4-5.3 0-1.5.4-3 .3-4.4 0-1.2-.3-2.4-.5-3.5-.2-2 .2-4 .6-5.9l.9-4.4c.1-.8.4-1.7.9-2.5.4-.6 1-1.1 1.3-1.7a7.7 7.7 0 0 0 1.6-5.6c0-.2-2.9.7-3.1.8-1 .4-2 1-2.8 1.8l-1.7 2.1a178 178 0 0 0-5 6.4z" fill="#464353"/>
    <path d="M90.3 175.4c-.8 1.1-1.7 2.4-1.5 3.7.1.7.6 1.4.8 2l.9 3 .8 4.2c.2 1.7.2 3.3.2 5 0 .4-.1.8-.4 1l-.3.4v.4c.6 1 1.5 1.9 2.5 2.3 1 .4 2.2.6 3.4.6h.4c.2-.1.3-.3.3-.4.9-1.6.4-3.5.4-5.3 0-1.5.4-3 .3-4.4 0-1.2-.3-2.4-.5-3.5-.2-2 .2-4 .6-5.9l.9-4.4c.1-.8.4-1.7.9-2.5.4-.6 1-1.1 1.3-1.7a7.7 7.7 0 0 0 1.6-5.6c0-.2-2.9.7-3.1.8-1 .4-2 1-2.8 1.8l-1.7 2.1a178 178 0 0 0-5 6.4z" fill="#000" opacity=".1"/>
    <path d="M96.1 167c.2.8 1 1.5 1 2.3 0 .7-.4 1.3-.8 1.9l-.8 2c-.7 1.6-1.5 3.3-2.5 4.9-.5.7-1 1.5-.9 2.4 0 .4.2.8.4 1.2l1.5 2.8.7 1.8.2 1.7c.2 1.7 1 3.5.5 5.1 0 .2-.2.4-.3.3.5.8.9 1.7.8 2.7 0 .6-.1 1.1 0 1.6l.3.6-.1.4c0 .4.3.7.7.9.4 0 .8 0 1.2.2.7.2 1.3.9 1.9 1.3a4 4 0 0 0 2.2.7h.3l.2-.4c0-.8-.2-1.5-.8-2a.9.9 0 0 1-.3-.2v-.4-4.7c-.2-.4-.2-1-.2-1.4l.2-1.3-.4-1.2c-.2-.7-.2-1.4-.2-2.2 0-1.3-.3-2.5-.6-3.8 0-.5-.3-1-.6-1.4-.3-.3-.8-.6-.7-1l.3-.4c.3-.3.4-.8.3-1.2.3 0 .6 0 .7-.3a10 10 0 0 0 5-5.7l.2-.5c.2-.3.6-.5 1-.6a7 7 0 0 0 2.4-2.5c.4-.5.7-1.1.9-1.8l.1-1.2v-2.3-.4l-.2-.4a4.3 4.3 0 0 0-2.4-1.2l-1.8-.2c-1.2 0-2.4-.4-3.6-.4a5.7 5.7 0 0 0-4.4 3.1c-.4.6-.7 1.1-1.4 1.2z" fill="#464353"/>
    <path d="M34 201h1.3c0-.3.5-.4.9-.3h.5l.2.3.5.1 1.9.2c.8 0 1.6 0 2.4-.2.2 0 .3-.1.4-.3.2-.3 0-.7-.3-.9l-1-.5c-.6-.5-.6-1.4-1-2.1a6 6 0 0 0-.9-1.3l-.8-.9c-.8-.5-1.6-.5-2.5-.6-.6 0-1.2 0-1.6.5-.6.6-.3 2-.3 2.8l.3 3.1z" fill="#514E7F"/>
    <path d="M34 201h1.3c0-.3.5-.4.9-.3h.5l.2.3.5.1 1.9.2c.8 0 1.6 0 2.4-.2.2 0 .3-.1.4-.3.2-.3 0-.7-.3-.9l-1-.5c-.6-.5-.6-1.4-1-2.1a6 6 0 0 0-.9-1.3l-.8-.9c-.8-.5-1.6-.5-2.5-.6-.6 0-1.2 0-1.6.5-.6.6-.3 2-.3 2.8l.3 3.1z" fill="#000" opacity=".1"/>
    <path d="M35 165.2c-.6.2-.9 1-.8 1.5.1.6.5 1 .8 1.6.8 1.5 1.1 3.1 1.8 4.7l1.7 3.3c.5 1.1.9 2.4.5 3.7-.1.6-.4 1.1-.6 1.7l-.4 2a37 37 0 0 0 0 7.4c.2.3.4.5.3.7l-.2.3c0 .2.1.5.4.7l-.4.3c.3.2.5.6.4 1-.2 0-.2.2-.1.4l.4.4c0 .3 0 .6-.4.8h-.8l-1.5-.3-.5-.2c-.2-.2-.4-.6-.4-1v-2.7c0-4.5 0-9-.3-13.5 0-1.8-.6-3.6-1.3-5.2l-1.3-2.5c-1-1.9-1.9-4-1.7-6 0-.2.1-.5.4-.6h.2l1.4.8c.7.5 1.5.7 2.3.7z" fill="#464353"/>
    <path d="M35 165.2c-.6.2-.9 1-.8 1.5.1.6.5 1 .8 1.6.8 1.5 1.1 3.1 1.8 4.7l1.7 3.3c.5 1.1.9 2.4.5 3.7-.1.6-.4 1.1-.6 1.7l-.4 2a37 37 0 0 0 0 7.4c.2.3.4.5.3.7l-.2.3c0 .2.1.5.4.7l-.4.3c.3.2.5.6.4 1-.2 0-.2.2-.1.4l.4.4c0 .3 0 .6-.4.8h-.8l-1.5-.3-.5-.2c-.2-.2-.4-.6-.4-1v-2.7c0-4.5 0-9-.3-13.5 0-1.8-.6-3.6-1.3-5.2l-1.3-2.5c-1-1.9-1.9-4-1.7-6 0-.2.1-.5.4-.6h.2l1.4.8c.7.5 1.5.7 2.3.7z" fill="#000" opacity=".1"/>
    <path d="M27.4 159.8a2 2 0 0 0-1-.3 2 2 0 0 0-1 .5l-1.1 1a5.7 5.7 0 0 0-1.2 5.5c.3 1 .9 1.9 1.5 2.7l1.2 1.8a291.5 291.5 0 0 0 5.8 8.2l.2.1V180.2c0 .1.3 0 .3.2v.2l-.2.3.2.4-.1.2c-.2.2-.1.4 0 .6.2 1.3-.5 2.5-.7 3.8-.2 2 .7 4 .8 6 0 .2 0 .4.2.6.1.4.6.6.6 1l-.1.5v.6c0 .3-.2.5-.4.5l.5 1.6 4.2.3V196l-.4-1.2c-.1-.4 0-.9.2-1.2a.5.5 0 0 1-.5-.4v-.7c.1-1.1-.4-2.2-.4-3.3 0-1 .4-1.8.5-2.6.4-1.9 0-3.9.8-5.6.5-1 1.2-2.1.7-3.1l-1.1-1.3c-.3-.4-.5-.9-.6-1.4-.6-2-1.7-4-2.6-5.9-.3-.4-.5-1-.6-1.5v-1.4l-.2-2.6c0-.3-.1-.7-.3-1-.2-.3-.4-.5-.7-.6-1.4-1-3-1.5-4.5-2.3z" fill="#464353"/>
    <path d="M32.3 202.4c.4.2.8.2 1.3.2 0-.4.5-.4.8-.4h.5l.3.3.5.1 1.8.2c.8 0 1.7.1 2.5-.2l.3-.3c.3-.2 0-.7-.2-.9l-1-.5c-.6-.5-.7-1.4-1-2.1a6 6 0 0 0-1-1.3l-.8-.9c-.7-.5-1.6-.5-2.4-.6-.7 0-1.2 0-1.7.5-.5.7-.3 2-.3 2.8 0 1 .2 2.1.4 3.1z" fill="#514E7F"/>
    <path fill="#FFF" d="M55.5 170.3h21.7V192H55.5z"/>
    <ellipse fill="#A1616A" cx="51.3" cy="148.1" rx="4.3" ry="4.3"/>
    <path d="M47.4 149.4c-.6.6-1.5.6-2.3.7-1.7.2-3.4.6-5 1.4l-.5.4-.3.6a4 4 0 0 0-.1 1.5c0 .5.2 1 .4 1.4a7.5 7.5 0 0 0 2.6 3l.7.3c.5 0 1-.2 1.6-.4.5-.1 1 0 1.6 0 .4.2.9.5 1.3.3.3-.1.6-.4.7-.7a24.5 24.5 0 0 0 1.6-3.5c.5-1 1.3-1.7 1.7-2.7v-.5l-.2-.2c-.7-.4-1.2-.8-1.7-1.3-.3-.3-.8-1-1.2-1-.5-.1-.6.5-1 .7z" fill="#A1616A"/>
    <path d="M47.4 158c-.5.1-1.1 0-1.6 0-1.4-.4-2.8-.7-4-1.3-.5-.1-.8-.4-1-.7-.2-.3-.3-.6-.3-1l-.3-1.5.1-1.7v-.3l-.4-.1c-.6 0-1 .7-1.4 1.1-.3.3-.6.5-1 .6-.3.2-.8.3-1 .7l-.1.6c-.3.6-1.5.4-1.8 1l-.2.7-.7.1c-.9.2-1.3 1.2-2 1.7-.7.4-1.5.4-2.2.7l-1 .6H27l-.2.1v.3c.4 2.7 2.2 5 4.7 6l.4.3c.4.2.5.9 1 1 .3.2.6.1.9-.1l.6-.8c.4-.4 1-.7 1.5-.8.5 0 1.1 0 1.5-.3l.5-.5a3 3 0 0 1 1.1-.7 11 11 0 0 1 3.5-.7c1.1 0 2.2 0 3.3-.3l.7-.5c.3-.2.4-.5.5-.8.4-1.1.5-2.3.3-3.5z" fill="#514E7F"/>
    <path d="M42 151.7h2.1c1.2 0 2.3.7 2.6 1.8v.3l-.2.1-.5-.9c-.3-.5-.8-.8-1.4-1a4 4 0 0 0-1.8 0l-.7.2-1.1.3-.6.1-.6.3c-.2 0 0-.2 0-.3l.8-.5 1.4-.4z" fill="#514E7F"/>
    <path d="M44.8 164.6l.9 2.6a21.9 21.9 0 0 0 4.2 6.6c.9 1 1.8 2 2.1 3.3.2.7.2 1.5.2 2.3.1.7.4 1.5 1 2l1.5.5c.4 0 .9 0 1-.3l.2-.4V180c.1-.3.2-.6.4-.6.3 0 .4.3.6.5a.6.6 0 0 0 .8-.3v-1a4.6 4.6 0 0 0-2.3-2.9l-1.2-.6-1-1.1a70.7 70.7 0 0 1-5.6-10.7c-.3-.6-.5-1.3-.6-2V159c.2-1.3 0-2.6-.3-4a3 3 0 0 0-.4-.9c-.6-.9-2-1-3-.4a3 3 0 0 0-1.1 2.1c0 .8.4 1.5.6 2.2l2 6.5z" fill="#A1616A"/>
    <path d="M57.3 145.2c0-.4-.3-.7-.6-1-.4-.1-.8-.4-1.1-.6l-.8-1-1.2-.5c-1-.4-2-.5-3-.5s-1.9.2-2.7.7l-.5.4a2 2 0 0 0-.2.7l-.7 2.2c-.4.8-.7 1.7-1.4 2.3-.8.6-2 1-2.5 1.8-.1.1-.2.3-.1.5 0 .2.3.3.5.5 1.3.7 2.4 1.7 3 2.8.5 1.1.4 2.5-.3 3.5-.3.4-.7.9-.4 1.2.4.6 2 .3 2.3 1v.6c0 .6.6 1.2 1.4 1.5.8.3 1.7.4 2.5.4.3-.5.3-1 0-1.6v-.4l.3-.3c1-.9.7-2.2.2-3.2-.6-1-1.4-2-1.8-3.1-.1-.6-.1-1.2.3-1.6l.8-.6a3 3 0 0 0 1.1-1.4c.3-.7.2-1.5 1-2 .7-.5 1.7-.3 2.5-.6.7-.3 1.4-1.2 1.4-1.7z" fill="#464353"/>
    <ellipse fill="#FBBEBE" cx="81.1" cy="146.7" rx="4.7" ry="4.7"/>
    <path d="M85.2 146.5a6 6 0 0 0 3.9 2.7l-.4 1.2c-.6 2.2-1.3 4.5-3 6 .2-.7 0-1.5-.4-2.1-.5-.7-1-1.2-1.6-1.7l-2.7-2.3-.2-.2v-.5c.3-1 1.3-1.8 2.1-2.5.4-.3.8-.7 1-1.2.6-.7 1 0 1.3.6z" fill="#FBBEBE"/>
    <path d="M85.8 152.5l-.1 1c-.1.3-.5.5-.8.4 0-.2-.2-.4-.4-.4-.3 0-.5.2-.6.4-.1.4-.2.7-.1 1 0 .5.3 1 .3 1.4-.1.3-.4.7-.2 1 0 .2.2.3.3.4.4.5.4 1.2-.1 1.6l3.6.1c-.1.6.1 1.2.4 1.7 1.8 3 4.8 5 8.2 5.4a.7.7 0 0 0-.1 1c.3.4.8.3 1.1.1l1-.7a3 3 0 0 1 2-.6c.5 0 1 .2 1.4.3 1.3 0 2.4-1 3.7-1.3 1-.3 2-.3 2.8-.9.3-.2.6-.6.5-1 0-.3-.2-.5-.4-.7l-1-2c-.7-1.2-1.5-2.4-2.6-3.4a22.9 22.9 0 0 0-3.3-2.3l-1-.4-1-1.1c-.6-.9-1.7-1.2-2.6-1.9-.6-.4-1.1-1-1.8-1.2l-1-.2c-.8-.3-1.4-1-2.2-1.2-.6-.2-1.2-.2-1.9-.3-.7 0-1.3-.3-2-.7-.1-.2-.3-.3-.6-.4-1-.2-1 1.5-1 2.1-.2 1-.5 1.9-.5 2.8z" fill="#3F3D56"/>
    <path d="M86.7 158.3c.2 1.8-1.1 3.5-.8 5.2l.3 1c.2 1-.4 2-1 2.9l-5 7.3-.7.8c-1 .9-2.3.8-3.6 1-.9.2-1.7.6-2.4 1.1v.2a2 2 0 0 0 1.8.9c.1.2 0 .4-.2.5-.3.2-.6.3-.7.7v.5c.3.3.6.5 1 .6 1.7.5 3.5-.4 4.8-1.7 1.3-1.2 2.2-2.8 3.5-4 .7-.8 1.5-1.4 2.2-2a26.1 26.1 0 0 0 4.4-6.4c.1-.6 0-1.2.2-1.7.2-.8.8-1.3 1.2-2a6.4 6.4 0 0 0 1.4-4.1c-.1-1.5-1-3-2.5-3.5-.4-.2-.9-.2-1.4-.1-.5.2-1 .7-1.4 1.1l-.9 1-.5 1c-.2.2 0 .6.1.8" fill="#FBBEBE"/>
    <path d="M89.5 151.2c-.7 0-1.4.1-1.9.5l-.4.8c-.4.9-.9 1.8-1 2.8 0 .8.3 1.6.4 2.4.1.7-.1 1.3-.2 2 .9-.2 1.8-.6 2.6-1l1.5-.8c.8-.2 2 .2 2.8.6 0-.5-.4-1.4-.3-2v-.6l.5-.6c.5-1 .5-2.1-.3-3-.6-.7-1.6-1-2.6-1-.6-.2-1.2-.2-1.8-.2" fill="#3F3D56"/>
    <path d="M75 142v-.9c.7.2 1.4-.4 1.9-1 .4-.7.9-1.4 1.6-1.7.8-.3 1.7.2 2.5.6a8 8 0 0 0 3.5 1c.5.3.8 1 .9 1.5 0 .7 0 1.3.3 1.8l.7 1.2c.6 1 0 2.5.6 3.6l-1.4-1.3c-.2-.2-.4-.3-.5-.2l-.2.4a.8.8 0 0 1-1 .4c-.4-.2-.7-.5-1-.9a5.7 5.7 0 0 0-2.3-1.7 3 3 0 0 0-2.5.1c-.6.4-1.2 1.3-2 1.3-1.1 0-1.6-2-2.2-3 .4-.2.6-.8.3-1.2.1 0 .9-.2.9 0z" fill="#464353"/>
    <path d="M179.3 87c-.5.2-1 .4-1.5.4.5-.3 1-.8 1.1-1.4a5 5 0 0 1-1.6.6 2.5 2.5 0 0 0-4.4 1.8l.1.6c-2-.1-4-1.1-5.2-2.7-.7 1.2-.3 2.7.8 3.4l-1.2-.3c0 1.2.9 2.3 2 2.5a2.6 2.6 0 0 1-1 0c.2 1 1.2 1.8 2.3 1.8a5 5 0 0 1-3.8 1 7.2 7.2 0 0 0 11-6l.1-.4c.5-.3 1-.8 1.3-1.3z" fill="#6C63FF"/>
    <path d="M170.2 141.3l.8 2 5.4 5.8 1.8-1.7 1.2 1.2 1.2-1.1V145l1.6-1.4v-4l-4.7-5.2-7.3 6.8zm11-1.1l-.2 2.3-1.8 1.7v2.4l-1.2-1.2-1.5 1.4-4.8-5.1 5.7-5.4 3.7 3.9z" fill="#6C63FF" fill-rule="nonzero"/>
    <path d="M176.6 139.1l.9-.8 2.3 2.4-1 .9-2.2-2.5zm-2.1 2l.9-.8 2.3 2.4-1 .9-2.2-2.5z" fill="#6C63FF" fill-rule="nonzero"/>
    <path d="M69.9 174.3h-9c-.3 0-.6.3-.6.6v9c0 .3.3.5.6.5h4.5v-4h-1.2V179h1.2v-1.1c0-1.3.9-2 2-2h1.3v1.4h-.9c-.6 0-.7.3-.7.7v1h1.5l-.2 1.4H67v4h2.8c.3 0 .5-.2.5-.5v-9c0-.3-.2-.6-.5-.6z" fill="#6C63FF"/>
    <path d="M147.3 110.9c1.2 0 2.1 1 2.1 2v4.3c0 1.1-.9 2-2 2h-4.2a2.1 2.1 0 0 1-2.1-2V113c0-1.2.9-2.1 2-2.1h4.2zm0-.9h-4.1a3 3 0 0 0-3 3v4.2a3 3 0 0 0 3 3h4.1a3 3 0 0 0 3-3V113a3 3 0 0 0-3-3z" fill="#6C63FF" fill-rule="nonzero"/>
    <path d="M148 113a.6.6 0 1 1-.1-1.2.6.6 0 0 1 0 1.3zm-2.8.5a1.7 1.7 0 1 1 0 3.3 1.7 1.7 0 0 1 0-3.3zm0-.9a2.5 2.5 0 1 0 0 5 2.5 2.5 0 0 0 0-5zM276 157.1c0-1.1-1-2-2-2-1.4-.2-3-.2-4.4-.2h-.5l-4.4.1c-1 0-2 1-2 2.2a38 38 0 0 0 0 5.6c0 1.1 1 2.1 2 2.1a101 101 0 0 0 9.3 0c1 0 2-1 2-2.1a41.4 41.4 0 0 0 0-5.7zm-8 5.4v-5.1l3.9 2.6-3.8 2.5z" fill="#6C63FF" fill-rule="nonzero"/>
    <path d="M138.5 59.1a5.8 5.8 0 0 0-2.3 11.1V69l.8-3.2-.2-.9c0-.9.5-1.5 1.1-1.5.5 0 .8.4.8.9s-.3 1.3-.5 2a.9.9 0 0 0 .9 1.1c1.1 0 1.8-1.4 1.8-3 0-1.3-.8-2.3-2.4-2.3a2.7 2.7 0 0 0-2.8 2.8c0 .4.1.8.4 1.2v.7a.2.2 0 0 1-.4.2c-.8-.3-1.1-1.2-1.1-2.2 0-1.7 1.3-3.6 4-3.6 2.3 0 3.7 1.6 3.7 3.3 0 2.3-1.2 4-3 4-.6 0-1.2-.3-1.5-.8l-.4 1.6c-.1.5-.3.9-.6 1.3l1.7.2a5.8 5.8 0 0 0 0-11.6z" fill="#6C63FF"/>
    <path d="M199.4 220.5l-.3-1.8c0-.6-.2-1.2-.5-1.8v-2.2l.5-1c.4-.5 0-2.7 0-2.7s-1.2-3.1-1-5.1c.4-2-2.6-8.7-2.6-8.7 0-.7.2-1.3.3-2a1.4 1.4 0 0 0 0-.4c0-1.3-1-3.7-1-3.7l.1-4.7s.7-2.7-.4-6.4a34 34 0 0 1-.8-3v-.3l3.9-.6s-1.3-5.4-2.2-6.3c-.8-1-1.5-3.9-1.5-3.9s-.5-3.7.3-4.8c.7-1.1.8-3 .8-3s1.7-1.2 1.9-1.8c.3-.7.4-1.5.5-2.3 0-.7-.2-1.2-.1-1.6 0-.3-.5-1.5-.2-2.1a1.6 1.6 0 0 0 0-.6V148c-.5-.4-1.1-.7-1.7-.9v-.1l-.1-.4-.2-.1v-.7l.3-1.2c.5-2.1-2.4-2.4-2.4-2.4-.1-.4-.4-.6-.8-.7-.5-.2 0 3.1.2 3.4.2.1.8 1.2 1.1 1.7v1a3 3 0 0 0-.4.8s.5.6.4 1.2c0 .5 0 1 .2 1.5 0 0-.4-.4-.8-.3l-1.3.4s-.8.1-.7.3l-.5.9-2-2a4.3 4.3 0 0 1-.3-1c.2 0 .4 0 .6-.2l.6-.3c.2-.3.3-.6.3-1l.8-1.6c.4-1 .5-2 .4-3a2 2 0 0 0-.3-.9l-1.4-1c-.5-.4-.8-1-1.3-1.2-.5-.2-1-.2-1.5-.1-1 .1-2 .5-2.9 1-.3.2-.6.4-1 .3-.3 0-.5-.2-.7-.5l-.3 1.5V142.8a.6.6 0 0 1 0 .2l-.2.3-.2.2-.2.6c0 .1 0 .3.2.4l.3.3v.7a4 4 0 0 0 1.9 3.3v.2c.3.7.5 1.5.4 2.2v.2s-3.4.1-4.2-.6c-.8-.7-2 1.7-2 1.7s-1.2.3-1.5 0c-.2-.2-1.6 0-1.6 0a3 3 0 0 0-2.1-.8l-1.6-.8-.8-.1s-1.7-1.4-2.1-2.1c-.5-.8-2.8-3.5-2.8-3.5v-.5h-.3v-.1l-.5-1.1s0-.5.2-.7l-.1-2s-1.5-3.4-2.8-.8c0 0-2.6 1.7-.4 3.6 0 0 .8.4 1 .8l.5 1.2v.6c-.3.2-.6.5-.5.6l.2 1s3 3.6 3.3 5.2c0 0 7.9 4.6 10.5 5l-.5 2.3v1.9l-.4 2.8s-.4 3.3-.8 3.8c-.4.4-.3 2.4-.3 2.4l-.5 2.8c-.4 1.3-.2 2.9-.2 2.9s-1.3 3 1.9 1l3.3-.2V184.5c.2 3.1 1.2 9.4 1.2 9.4v3.1l-.1 1c0 1 .2 2.1.8 3l.3 2.2s.5 1.4.5 2.2v.5c0 1 .5 3.3.5 3.3s0 2.3.4 2.4c.3.1-.4 1.3-.6 1.6l-.1.6c0 .4 0 .7.3.8.7.4 1 .8.5 1h-.6c-.2 0-.3.2-.3.3l.2.8 1 1.7h.3l-.2.3a1 1 0 0 1-.4.3l-.5.2c-.3 0-.7.2-1 .4-.3.5-.5 1.1.2 1.6l2.4.9s4.3.5 4-.4l-.3-1.8c0-.6-.1-1.2-.3-1.7l-.2-.2h.2s.3-2.2.7-2.5v-.3l-.1-.2v.1a2 2 0 0 0-.5 0s-.1-1.2.3-1.5l.1-.4v-.4a16 16 0 0 0-1-2.6s0-1 .2-1.4c.3-.4 0-5.4 0-5.4s0-2.4-.2-3.6c-.3-1.1.3-2.4.3-2.4v-.1-.4l-.3-2.3V190l.7-1.5 1 2.7 1.2 3.6c.4.4.6 1 .6 1.5V196.7c0 .5.1 1 .4 1.3 0 0 .3 1.7.8 2.2.5.4.5 1.2.5 1.2l.8 3a20.3 20.3 0 0 0 .3 3.4V208.4l-.2 1.5c0 .9.1 2 .7 2.6.9 1 1.5.9 1.5.9s-.5 1.3-1 1.6c-.2 0-.3.3-.3.4 0 .8.3 1.4.7 2l.5.3-.3.1-.3.1c-.3 0-.7.2-1 .5-.3.4-.5 1 .2 1.6l2.4.8s4.2.6 4-.4z" fill="url(#a)"/>
    <path d="M183.1 222l-2.4-.8c-.7-.5-.4-1-.1-1.5.2-.3.6-.5 1-.5.1 0 .3 0 .4-.2.2 0 .3-.2.4-.3.2-.3.3-.6.3-1 0 0 2.6-.7 3.4 0 0 .2.2.4.3.5a30.5 30.5 0 0 0 .7 3.4c.2 1-4 .5-4 .5zM195 220.8l-2.4-.8c-.7-.6-.5-1.2-.2-1.6.3-.3.6-.4 1-.5h.3l.2-.1c.6-.4.6-1.3.6-1.3s2.7-.7 3.4 0l.3.4a30.5 30.5 0 0 0 .8 3.6c.1.9-4 .3-4 .3z" fill="#2D293D"/>
    <path d="M186.2 217.8l.4.5-4 .4.2-1s2.7-.7 3.4 0zM198.2 216.8v.7c-.7 1-3.7.8-4.6.3h.2c.7-.4.7-1.3.7-1.3s2.7-.7 3.4 0l.3.3z" fill="#000" opacity=".1"/>
    <path d="M198.5 213.8l-.4 1v2.6c-.7 1.1-4.2.7-4.7.1-.4-.6-1-2.1-.4-2.4.5-.3 1-1.6 1-1.6s-.6.1-1.5-1c-1-1-.6-3.4-.5-4 .2-.5 0-2.4 0-2.4s0-1.3-.2-1.8a22 22 0 0 1-.8-2.9s0-.8-.5-1.2c-.5-.5-.8-2.2-.8-2.2-.2-.4-.4-.9-.3-1.4 0-.8-.6-1.7-.6-1.7l-1.1-3.6-1-2.7-.7 1.5s-.2 3.7 0 4.5l.3 2.8s-.7 1.3-.4 2.4c.3 1.2.2 3.6.2 3.6s.3 5 0 5.4c-.2.4-.2 1.4-.2 1.4s1.4 3 1 3.4c-.5.3-.3 1.5-.3 1.5s1 0 .5.4c-.4.3-.7 2.4-.7 2.4l-4 .6-1-1.7c-.5-1.3.2-1.2.7-1.3.5-.1.2-.4-.4-.8-.7-.4-.3-1.3-.3-1.3s1-1.7.6-1.8c-.3-.1-.4-2.4-.4-2.4s-.6-2.8-.5-3.5c.2-.7-.5-2.5-.5-2.5l-.2-2.1c-.7-1.2-1-2.6-.8-4V194s-.9-6.3-1-9.4v-6.6-1.6l14.4-1.5a35.2 35.2 0 0 0 1 5.2c1 3.7.4 6.5.4 6.5v4.6s1.2 3.1 1 4.2l-.4 1.9s2.9 6.8 2.6 8.7c-.3 2 1 5 1 5s.3 2.3 0 2.9z" fill="#464353"/>
    <path d="M190.4 196.3l4.2-.5s-2.4 2.4-4.2.5zM193.9 191.5s.1 1.4-.8 2c0 0 1.6-.3.8-2zM193.9 186.7s-3.8 3-5.1 2.7c-1.4-.2 5-2.7 5-2.7zM184.8 197.8s-2.7.6-2.8 1.7c0 1.2 2.8-1.7 2.8-1.7zM185.4 211.9s-4 .7-2.9 1.2l3 .8s1.3 0-.1-2z" fill="#000" opacity=".1"/>
    <g opacity=".1" fill="#000">
      <path d="M181.8 213.7a.8.8 0 0 1-.3-.5s-.4 1 .2 1.3l.2.2h.4c.5-.2.2-.5-.5-1zM186.9 213.5v-.7l-.2 1 .2-.3zM186.3 197c-.2.3-.3.7-.3 1.1l.3-.8v-.4zM195.3 195.2v-.4a9.2 9.2 0 0 0 0 .4zM186.2 208.8v-.8l-.1 1v-.2zM187 215l-.5 2-4 .6a8.4 8.4 0 0 1-1-2c-.2 0-.3.3 0 1 .2.7.5 1.2.9 1.8l4-.5s.3-2.1.7-2.5c.2-.2 0-.3-.1-.4zM181.7 209s0 2.4.4 2.5c.1-.4.2-.8 0-.8-.2-.1-.3-2.4-.3-2.4s-.6-2.8-.5-3.5c.2-.7-.5-2.5-.5-2.5l-.2-2.1c-.7-1.2-1-2.6-.8-4V193s-.9-6.3-1-9.4V177v-.9h-.2v8.2c.2 3.1 1 9.4 1 9.4v3.2c-.2 1.4.1 2.8.8 4l.3 2.1s.7 1.8.5 2.5c-.2.7.5 3.5.5 3.5zM193.5 216.7c-.3-.5-.5-1-.6-1.6-.4.3 0 1.8.5 2.4.4.5 4 1 4.6-.2v-.6c-1 .9-4 .5-4.5 0zM198.6 212.9l-.5 1v.5l.3-.7.2-.8zM193.7 213.4l.4-.8s-.6.2-1.5-1c-.7-.7-.7-2.2-.6-3.1-.2.6-.4 3 .5 4 .5.7 1 .9 1.2 1zM192 206a18.4 18.4 0 0 1 .1 1.7c.2-.6 0-2.5 0-2.5s0-1.3-.2-1.7c-.3-.5-.8-3-.8-3s0-.8-.5-1.2c-.5-.4-.8-2.1-.8-2.1-.2-.5-.4-1-.3-1.5.1-.8-.5-1.7-.5-1.7l-1.2-3.6-1-2.7-.7 1.6v.5l.5-1.3 1 2.7 1.2 3.6s.7 1 .6 1.7c0 .5 0 1 .3 1.5 0 0 .3 1.7.8 2 .4.5.4 1.4.4 1.4s.6 2.4.9 2.9c.2.4.2 1.7.2 1.7z"/>
    </g>
    <path d="M194.8 144.7l-.2 1.3v1l-1.4.1-.1-.3-1-1.8c-.3-.2-.8-3.6-.2-3.4.3.1.6.4.7.7 0 0 2.7.3 2.2 2.4z" fill="#FFCDD3"/>
    <path d="M194.6 147l-1.3.1-.2-.3c.4-.5 1-.6 1.5-.3v.4z" fill="#000" opacity=".1"/>
    <path d="M194.9 147.4l-1.9.5v-.3l-.1-.8c.2-.2.5-.4.8-.4.4 0 .7 0 1 .2v.4l.2.4z" fill="#DCE6F2"/>
    <path d="M165.4 144.8l-2 1-.2-.3-.5-1.2c-.2-.3-1-.7-1-.7-2-2 .4-3.6.4-3.6 1.3-2.6 2.8.9 2.8.9s.2 1.8 0 1.9v.6l.4 1.1.1.3z" fill="#FFCDD3"/>
    <path d="M165.2 144.9l-1.9 1-.2-.4c.3-.2 1.2-1 1.5-1h.5v.4z" fill="#000" opacity=".1"/>
    <path d="M165.4 145.3l-2.2 1v-.7s1.2-1 1.6-1h.6v.7z" fill="#DCE6F2"/>
    <path d="M189.6 152.7s-9.6 1.1-7.8.5c1.2-.4 1.7-1.2 1.8-2a5 5 0 0 0-.3-2.2l-.9-1.8s7.4-4 5.9-.3c-.2.5-.4 1.1-.4 1.7a5.2 5.2 0 0 0 1.7 4.1z" fill="#FFCDD3"/>
    <path d="M188.1 146.8l-.4 1.7c-.7.6-1.4.6-2.4.6-.7 0-1.6.2-2.1-.2l-1-1.7s7.4-4 6-.4z" fill="#000" opacity=".1"/>
    <ellipse fill="#FFCDD3" cx="185.2" cy="145.5" rx="3.9" ry="3.9"/>
    <path d="M189.6 152.7s-9.6 1.1-7.8.5c1.2-.4 1.7-1.2 1.8-2 .5-.6 1.5-1 2-1.2a2.9 2.9 0 0 1 2.5.3c.2 1 .8 1.8 1.5 2.4zM194.9 147.4l-1.7.5v-.3c.3-.6 1-.9 1.6-.7v.5zM165.4 145.5l-2.2 1.1v-.5l2.2-1v.4zM193.1 177a59.7 59.7 0 0 1-14.6 1v-1.7l14.4-1.5c0 .8 0 1.5.2 2.2z" fill="#000" opacity=".1"/>
    <path d="M197 176s-12.3 2-13.6 1.6c-1.3-.4-8 0-8 0-3 2-1.8-.9-1.8-.9s-.3-1.6.1-2.8c.3-1 .4-2 .5-2.9 0 0 0-2 .3-2.4.4-.5.8-3.8.8-3.8l.3-2.8.1-1.9.4-2.3c-2.4-.3-10-5-10-5a24 24 0 0 0-3.2-5.2l-.3-1c-.2-.5 2.8-1.5 2.8-1.5s2.3 2.7 2.7 3.4c.5.8 2 2.1 2 2.1l.8.1c.6.2 1.1.5 1.5.9.8 0 1.5.2 2 .8 0 0 1.4-.2 1.7 0 .2.2 1.4 0 1.4 0s1.1-2.5 1.9-1.8c.8.8 4 .7 4 .7.4-.6 1.5-1 2.1-1.2.6-.2 1.2-.2 1.8 0l.7.3 2 2s.5-.8.4-1l.7-.2 1.3-.4c.4-.1.7.3.7.3-.1-.5-.2-1-.1-1.5 0-.4-.1-.8-.4-1.2 1.2-2.8 3.8-.4 3.8-.4s.3 1.6 0 2.2c-.3.6.3 1.8.2 2.2l.1 1.5c0 .8-.2 1.6-.5 2.4-.2.5-1.8 1.7-1.8 1.7s0 1.9-.8 3c-.7 1-.3 4.8-.3 4.8s.7 3 1.5 4c.9.8 2.1 6.1 2.1 6.1z" fill="#3F3D56"/>
    <path d="M179.2 154.2s-.4-1.1-.7-1.2a8 8 0 0 1-1-.5l.2-.4s1.3.4 1.5.7c.2.4 0 1.4 0 1.4zM172.5 151.8c-.1.3-3 .6-3 .6l1.4-1.5c.6.2 1.1.5 1.6.9z" fill="#000" opacity=".1"/>
    <circle fill="#575988" cx="163.9" cy="147.1" r="1"/>
    <circle fill="#575988" cx="164.2" cy="147.6" r="1"/>
    <circle fill="#575988" cx="164.7" cy="148.1" r="1"/>
    <circle fill="#575988" cx="164.9" cy="148.6" r="1"/>
    <circle fill="#575988" cx="196.4" cy="148.6" r="1"/>
    <circle fill="#575988" cx="196.4" cy="149.1" r="1"/>
    <circle fill="#575988" cx="196.4" cy="149.6" r="1"/>
    <path d="M179.3 163s7.5 9.6 13.3 4c0 0-9.2 1.3-13.3-4zM174.7 168s4.6.1 5 1.4v1.3a1 1 0 0 1-.8 0c-.4-.2-3.2-1.6-4.2-1V168z" fill="#000" opacity=".1"/>
    <path d="M175 168s4.3.1 4.8 1.4v1.3c-.3.1-.6.1-.8 0-.5-.2-3.1-1.6-4-1V168z" fill="#3F3D56"/>
    <path d="M177.3 158.4a11.7 11.7 0 0 0 4.5 5.5s-4.5-4.8-4.5-5.5zM175.7 153.2s.8 3.2 2.8 4.2l-2.8-4.2zM174.8 153.4s-.7 2.6 2.5 4c0 0-1.4-.4-2.5-4zM194.4 151.1s1.6 1 2 1.5c0 0-1-1.5-2-1.5z" fill="#000" opacity=".1"/>
    <path d="M184 149l.4.5h.3a8 8 0 0 0 3.6-.3l.6-.3.3-.9c.1-.6.5-1.1.7-1.7.4-1 .5-2 .4-3a2 2 0 0 0-.3-.9c-.3-.4-1-.6-1.3-1-.4-.3-.7-.9-1.2-1.2-.5-.2-1-.2-1.5 0-1 0-2 .4-2.8 1-.3.1-.6.3-1 .3l-.6-.6-.3 1.8v.2l-.2.3c-.3.3-.5.9-.2 1.2l.5.4c.2.3.1.7.1 1l.1.4c.1.1.3.2.5.1h.5c.2 0 .4.2.5.3.5.7.7 1.5 1 2.4z" fill="#2D293D"/>
    <path d="M189.1 148.5l-.5.4a8 8 0 0 1-4 .2.8.8 0 0 1-.3-.5 6 6 0 0 0-1-2.3.9.9 0 0 0-.4-.4l-.6.1-.4-.1-.1-.4c0-.3 0-.7-.2-1l-.4-.4a.8.8 0 0 1-.1-.8c-.2.4-.3.8 0 1 0 .2.3.3.4.5.2.2.1.6.1 1l.1.3c.2.2.3.2.5.2h.5c.2 0 .4 0 .5.3.5.7.8 1.4 1 2.3 0 .2.1.4.3.5h.4c1.2.2 2.4.2 3.6-.2l.5-.4.2-.3zM183.6 151.5s4.8.4 5.2-.1M193.1 149.4s2.7 0 3.3 1" opacity=".1" fill="#000"/>
  </g>
</svg>
