
<svg width="279" height="194" viewbox="0 0 279 194" xmlns="http://www.w3.org/2000/svg">
  <defs>
    <linearGradient x1="50.1%" y1="100%" x2="50.1%" y2="-.1%" id="a">
      <stop stop-color="gray" stop-opacity=".3" offset="0%"/>
      <stop stop-color="gray" stop-opacity=".1" offset="54%"/>
      <stop stop-color="gray" stop-opacity=".1" offset="100%"/>
    </linearGradient>
    <linearGradient x1="53.7%" y1="100.2%" x2="46.1%" y2="-.8%" id="b">
      <stop stop-color="gray" stop-opacity=".3" offset="0%"/>
      <stop stop-color="gray" stop-opacity=".1" offset="54%"/>
      <stop stop-color="gray" stop-opacity=".1" offset="100%"/>
    </linearGradient>
  </defs>
  <g transform="translate(-1)" fill="none" fill-rule="evenodd">
    <path d="M144 34.6a177 177 0 0 1-51.7-.9c-16.9-2.1-33.7-5-51.2-4.4-11.3.4-23.8 2.6-31.6 9.4C2 45.2.9 54 1 62c0 6 .6 12.4 4.7 17.2 2.9 3.4 7.3 5.9 10.6 9 11.5 10.9 8.2 27.7 1 42-3.5 6.7-7.7 13.3-10 20.2-2.3 6.8-2.5 14.2 1.8 20 4.3 5.5 12.5 8.8 21 10.5 17.4 3.6 36.7 1.7 55.3-.8 41.2-5.6 82-14.8 122.7-23.9 15-3 30-7 44.6-11.7a53 53 0 0 0 21.4-11.7c6.5-7 6.6-16.5.1-22.3-10.8-9.8-35-8-43.5-19-4.6-6.1-2.7-14.3.8-21.6 7.6-15.4 22.5-30.6 20.3-46.2-1.4-10.7-11.8-19.6-25.6-22-14.4-2.7-32.9 1.7-41 12.3-8.5 11-25.7 17.9-41.1 20.5l-.1.1z" fill="#6C63FF" opacity=".1"/>
    <ellipse fill="#6C63FF" opacity=".1" cx="166" cy="190" rx="87" ry="4"/>
    <path d="M164 184v2h-56v-1.6c7-2.6 11.7-9.2 12-16.8.3-7.5-4-14.5-10.7-17.6h54.3a18.8 18.8 0 0 0 .4 34z" fill="#D2D4DE"/>
    <path d="M164 150c-5.2 2.6-9 7.3-10.3 13h-34.4c-1.3-5.7-5-10.4-10.3-13h55z" fill="#000" opacity=".1"/>
    <path d="M43 140v11c0 6 4.3 11 9.7 11h166.6c5.4 0 9.7-5 9.7-11v-11H43z" fill="#D2D4DE"/>
    <path d="M164 184v2h-56v-1.6c1.5-.6 3-1.4 4.3-2.4h48.3c1 .8 2.2 1.5 3.4 2z" fill="#000" opacity=".1"/>
    <rect fill="#D2D4DE" x="90" y="182" width="94" height="6" rx="3"/>
    <path d="M229 23.7c0-5.3-4.3-9.7-9.7-9.7H52.7a9.7 9.7 0 0 0-9.7 9.7V144h186V23.7z" fill="#30374E"/>
    <path d="M224 26.8v103.4c0 2.7-2.1 4.8-4.8 4.8H52.8a4.8 4.8 0 0 1-4.8-4.8V26.8c0-2.7 2.1-4.8 4.8-4.8h166.4a4.8 4.8 0 0 1 4.8 4.8z" fill="#DFE3EF"/>
    <circle fill="#FFF" cx="136.5" cy="17.5" r="2.5"/>
    <circle fill="#FFF" cx="135.5" cy="151.5" r="5.5"/>
    <path d="M224 27H48a5 5 0 0 1 1.4-3.5c.9-1 2.1-1.5 3.4-1.5h166.4c1.3 0 2.5.5 3.4 1.5A5 5 0 0 1 224 27z" fill="#FFF"/>
    <circle fill="#DFE3EF" cx="53" cy="24" r="1"/>
    <circle fill="#DFE3EF" cx="56" cy="24" r="1"/>
    <circle fill="#DFE3EF" cx="60" cy="24" r="1"/>
    <path fill="#FFF" d="M65 41h142v83H65z"/>
    <path d="M245.7 152c.1-.1-.3-1-.3-1l-.4-.7c0-.3-.5-.8-.5-.8s-.7-.3-.8-1c0-.6-.8-.6-.8-.6v-.1l-.1-.8-.5-.4c0-.2 0-.5-.2-.7a.8.8 0 0 1-.2-.7c0-.2 0-.8-.5-1l-.8-.1H240c-.1-.2-1.2-.5-1.4-.5a1 1 0 0 1-.7-.3l-.6-.4-.5-.7v-.3l.4-.7h.1c.2-.1.3-.3.3-.4V140.5l.1-.3.5-1.2v-1.5l-.4-.6-.3-1.2c-.3-.6-1-.8-1.6-.6-.3 0-.6.3-.8.4h-1.2c-.4-.1-.9-.1-1.2.1-.3.3-.4 1-.8 1.2l-.4.4-.3.3v.4l.2.4v.2l-.1.2c-.3.2-.5.6-.6 1h.7c0 1.2.7 2.3 1.7 2.8v.1s-.3 0-.5.3l-.6.5s-2.3.3-2.4.7h-1.1s-.4 0-.5.9c0 .8-.2.9-.2.9s-.5.8-.4 1.2c0 .3-.1.5-.4.6v.8h-.4l-.1.4-.4.8s-.7.6-.7 1l-.5.3s-1-.2-1.2-.6l-.5-.5v.2l-.2-.3s-1.5-1.8-2.4-1.9c-.2 0-.4.2-.5.4 0 .5-.2 1.2.1 1.5l1.5 1.7.4.4-.2.4v.5h-.2.1v.1c.5.2 2.8 1.2 2.9 1.4.5.4 1.2.5 1.7.2a2 2 0 0 0 1-1l.7-1.2c0-.2.6-.4.6-.4s0 1.8-.2 2.4a31 31 0 0 0-.7 3.5v.1l-.2 1.9-.2.9-.2 1.4-.2 1h.1l.6.8-.1.4-.1.7a8 8 0 0 0-.2 1.3l-.1 1-.3 2.2v2.5l-.1 1.3.1 1.7c0 .1-.2.9-.1 1.3v1.5l.2 1.9v1l-.1 1s-.4.8.3 1.4c.6.7.2.6.2.6s-.5-.3-.5.3c0 .5.2.4.2.4l-.1.4v.1l-.3.3-.1.3a10 10 0 0 1-1.9 1.6l-1 .7c-.2.2-.2.4.2.5.9.3 1.8.3 2.8 0 .5-.1 1-.5 1.3-.9a2 2 0 0 1 1.1-.2c.5.2 1.6-.6 1.6-.6v-.7c-.1 0-.2-.2-.1-.3v-.5l-.1-.1s0-.7.2-.8c.2-.2.1-1.9.1-1.9a2 2 0 0 0-.4-.4c-.2 0 0-.9 0-1l.3-3-.2-1.3.1-.3.1-1.6v-.9c0-.3.1-.7.3-1v-1.1l.3-1.2.3-1.5 1.2-3.2c.3.6.5 1.3.6 2v1.5l.2 1.8.3 5.2v2l-.2 1.8c0 .3-.2 1.5 0 2v.5s.5.5.2.5c-.2 0-.4.2-.5.4v.6l.5 1.4h.3v1.8l-.1 1v.2s0 .7 1.4.5c1.4-.2 1.7-.8 1.7-.8v-.7c.1-.2-.3-1.1-.3-1.1s0-.6-.2-.8l-.1-.3v-.1s0-.5.3-.6c.2-.1.2-.4.1-.6 0-.3 0-.5.2-.8v-.4c.2-.2.4-1.5.4-1.5v-6.1c-.1-.4-.2-1 0-1.2v-1l.1-2.3c.2-.5.2-3.2.2-3.2v-1.9s.4-.4.3-2.5h1c.2.1 1.1.7 1.6.4l.7-.5-.2-4 .2.4c0-.5 1.5-2.3 1.5-2.3s1.4-1.9 1.7-2l1-1.5.2-.6c.3-.2-.2-.9-.2-1zm-3.3 1.4c-.3 0-1.2.9-1.2 1l-.1.4v-.2c-.2-1.3-.2-2.7-.2-4 .3.8 1.1 1.8 1.1 1.8l.3.4c.2 0 .1.6.1.6z" fill="url(#a)" fill-rule="nonzero"/>
    <path d="M222 152.7s.5-2.7 2-2.7l1 2.4-.7.6s-1.6 0-2.3-.3z" fill="#65617D"/>
    <path d="M225 152.4l-.7.6c-.6 0-1.3 0-1.9-.2l-.4-.1c0-.5.2-1 .4-1.4a3 3 0 0 1 1-1.2l.5-.1.4.9.7 1.5z" fill="#000" opacity=".1"/>
    <path d="M237.2 163.6s1.7-.2 1.8 0c.2 0 1.1.7 1.7.3.6-.4.2-1.8.2-1.9v-2l-1-1.3-1.3-2.4-2.6-.3v5.8l1.2 1.8z" fill="#65617D"/>
    <path d="M237.2 163.6s1.7-.2 1.8 0c.2 0 1.1.7 1.7.3.6-.4.2-1.8.2-1.9v-2l-1-1.3-1.3-2.4-2.6-.3v5.8l1.2 1.8z" fill="#000" opacity=".1"/>
    <path d="M224 150.4s-.1 1.6-1.2 1.6l-.7-.4c-1-.7-2.4-2-2-3.1.6-1.7 3.4 1.4 3.4 1.4l.2.2.3.3z" fill="#FBBEBE"/>
    <path d="M224 150.1s0 .9-.6.9l-.4-.2v-.1h.3c.2 0 .3 0 .4-.2l.2-.5.1.1z" fill="#000" opacity=".1"/>
    <path d="M224 154l-.1-.4-.6-1.1-.3-.6.4.1c.3 0 .5-.2.6-.5l.2-.8v-.7l.4.5v.1l.4 1c0 .3.1 2.1-1 2.4z" fill="#E7EFFD"/>
    <path d="M231 186.1s-1 .7-1.4.6c-.3 0-.6 0-.9.2l-1.1 1c-.7.2-1.8.1-2.4-.1-.2-.1-.3-.3-.1-.5.2-.3.5-.5.9-.7l1.5-1.6.1-.4.2-.3.3-.3 2.6.1.2 1.3v.5l.1.2zm8 .5l-.1.5v.1s-.3.6-2.1.8c-1.8.2-1.8-.5-1.8-.5v-.2c0-.3 0-.6.2-1v-.8l-.1-.7v-.6l3-.2v.5c0 .1 0 .2.2.3l.2.7s.6 1 .5 1.1z" fill="#65617D" fill-rule="nonzero"/>
    <path d="M230.9 184.1l.1.6c-.4.1-2 .5-2.5.2l-1.5-.4.3-.5 3.6.1zm6.1.6c-.5-.1-1.6.2-2 .3v-.7l2-.3v.7z" fill="#000" fill-rule="nonzero" opacity=".1"/>
    <path d="M238.6 165v1.8s0 2.8-.2 3.3c-.2.4-.2 2.2-.2 2.2s.2.9 0 1c-.1.2 0 1 .1 1.3v6.2l-.3 1.4c-.2.2-.2.3-.2.5v.8c0 .2 0 .5-.3.6-.3.2-.2.6-.2.6-.7-.2-2.8.3-2.8.3l-.6-1.4v-.6l.5-.4c.3 0-.2-.5-.2-.5v-.5c-.2-.5 0-1.7 0-2l.3-1.9v-2s.3-.8.2-1c-.2-.3-.4-2-.4-2l-.2-2.3v-1.8l-.2-1.4a5 5 0 0 0-.6-2l-1.2 3.2-.4 1.5-.2 1.1v.2l-.1 1c-.2.3-.3.6-.3 1v2.5c-.2 0-.2.2-.2.3 0 0 .3 1 .2 1.3v1l-.3 2c0 .2-.2 1 0 1l.5.5s0 1.7-.2 1.9c-.2 0-.1.8-.1.8s-2 .3-2.4.1c-.4-.1-.9-.3-1.4-.3l.2-.4s-.1.1-.2-.4c0-.6.5-.3.5-.3s.4 0-.3-.6c-.7-.7-.3-1.4-.3-1.4l.2-2-.2-2v-1.5c-.2-.4 0-1.2 0-1.3v-5.5l.3-2.3.2-1c0-.5 0-.9.2-1.3v-.7c.2-.3.2-.7.3-1l1.2-3 .7-2.5 8.4-.1.5 4.7c.3 2.8-.3 3.2-.3 3.2v.1z" fill="#3F3D56"/>
    <path d="M238 143l-2.2 2s-2.8-1-2.5-1.3v-1c0-.6-.3-1.4-.3-1.4s5-.7 4.5 0a1 1 0 0 0 0 .8c0 .4.3.7.5 1v-.1z" fill="#FBBEBE"/>
    <path d="M238 142.3c-.2.2-.2.3-.1.5-.6.6-1.3 1.2-2.2 1.2-.5 0-1-.1-1.4-.3l-.3-1.4s4.3-.7 4 0z" fill="#000" opacity=".1"/>
    <path d="M239 141a3 3 0 1 1-6-.1 3 3 0 0 1 6 0v.1z" fill="#FBBEBE"/>
    <path d="M239 161h-3.9c-2 0-3.8-.2-4.5-.1-1.6 0 .5-.8.5-.8l3.6.2h.5l3.6-.3.2 1z" fill="#000" opacity=".1"/>
    <path d="M239 161h-3.9c-2 0-3.8-.2-4.5-.1-1.6 0 .5-.8.5-.8l3.6.2h.5l3.6-.3.2 1z" fill="#E3A79F"/>
    <path d="M234.4 144.4l-2.5 1.1L230 159s1.1-.5 1.8-.2c.6.3 2.6 0 2.6 0l1.6.1c.3.2 2.8-.6 2.8-.6s.4-1 0-1c-.3-.2.2-1.7.2-1.7l-.2-9.7-.5-1.3-1.1-.6-1.2.9h-.5l-1.1-.5z" fill="#000" opacity=".1"/>
    <path d="M234.3 144.4l-2.4 1.1L230 159s1.1-.5 1.8-.2c.6.3 2.6 0 2.6 0l1.6.1c.3.2 2.8-.6 2.8-.6s.4-1 0-1c-.3-.2.2-1.7.2-1.7l-.2-9.7-.5-1.3-1.1-.6-1.2.9h-.6l-1-.5h-.1z" fill="#E7EFFD"/>
    <path d="M234.8 145.2s.7.8.6 1v.6l-.5 1-.3 1.7-.4 2.7-.5 3.7-.7 4.9.7 1.2.8-.7 1-8.7.3-1.7.2-3.4-.1-1.1s.1-.8.8-1c.7-.2 0 0 0 0l-.4-.4-.4.1s-1-.3-1.1.1z" fill="#000" opacity=".1"/>
    <path d="M234.8 145.2s.7.8.6 1v.6l-.5 1-.3 1.7-.4 2.7-.5 3.7-.7 4.9.7 1.2.8-.7 1-8.7.3-1.7.2-3.4-.1-1.1s.1-.8.8-1c.7-.2 0 0 0 0l-.4-.4-.4.1s-1-.3-1.1.1z" fill="#3F3D56"/>
    <path d="M234.3 143l-.1.5-.2 1.5s.7-.8 1-.7l-.7-1.3z" fill="#000" opacity=".1"/>
    <path d="M234.3 143l-.1.5-.2 1.5s.7-.8 1-.7l-.7-1.3z" fill="#E7EFFD"/>
    <path d="M237.7 143l-1.7 2.3 1.6 1.7c.2.3.4-3.2.4-3.2l-.3-.8z" fill="#000" opacity=".1"/>
    <path d="M237.7 143l-1.7 2.3 1.6 1.7c.2.3.4-3.2.4-3.2l-.3-.8z" fill="#E7EFFD"/>
    <path d="M234 144s-.3 0-.5.2c-.1.3-.3.4-.6.5 0 0-2.3.4-2.3.7h-1.1s-.4.1-.4 1c0 .7-.3.8-.3.8s-.4.8-.4 1.2c0 .3 0 .5-.3.6l1.6 4.2s0 1.7-.3 2.3c-.3.6-.8 3.4-.8 3.4l.2.1-.3 1.9c0 .3 0 .6-.2.8l-.1 1.5-.2.9s.5 1 1.2.9c.7-.2 2-3 2-3l.9-3.2.6-3.1.2-2.1.3-4.6.4-3.1s.5-1.7.4-1.9z" fill="#000" opacity=".1"/>
    <path d="M234 144s-.3-.1-.5.2c-.1.3-.3.4-.6.5 0 0-2.3.4-2.3.7h-1.1s-.4.1-.4 1c0 .7-.3.8-.3.8s-.4.8-.4 1.2c0 .3 0 .5-.3.6l1.6 4.2s0 1.7-.3 2.3c-.3.6-.8 3.4-.8 3.4l.2.1-.5 2.8-.1 1.4-.2.9s.5 1 1.2.9c.7-.2 2-3 2-3l.9-3.2.6-3.1.2-2.1.3-4.6.4-3.1s.5-1.7.4-1.9z" fill="#65617D"/>
    <path d="M226 152.5l-1 .5c-.7 0-1.6 0-2.4-.2l-.5-.2h-.1.1c.4.1.9.2 1.3 0 1.3-.3 1.2-2.1 1.1-2.5v-.1l.1.1.5.8.9 1.6z" fill="#000" opacity=".1"/>
    <path d="M227.7 148h-.4v.7c-.3 0-.6.2-.6.4l-.3.6s-.7.5-.7 1l-.5.2s-1-.2-1.2-.6c0 0 .5 2.9-2 2.2 0 0 2.7 1 2.9 1.2a2 2 0 0 0 1.7.2 2 2 0 0 0 1-1s.7-.8.7-1l.6-.2 1.1-2.3-2.3-1.4z" fill="#65617D"/>
    <path d="M237.2 145.7l.4-1.7c0 .2.1.5.3.7l.5.4.7.3c.2 0 1.1.2 1.3.4h.5l.8.2c.3.1.5.7.4 1 0 .2 0 .5.2.7l.2.6c.2 0 .3.2.4.4v1l-1.7 2.6v1.3c-.1.2.2 4.1.2 4.1l.4 6.8a7 7 0 0 1-.6.5l-.2-2.5-3.1-5.2-.4-1.4-.5-2.6.2-7.6z" fill="#000" opacity=".1"/>
    <path d="M243 149.5v.1l-1.8 2.7v1.3l.1 2.6.1 1.5.2 3 .2 3.8-.6.5-.2-2.5-3.1-5.2-.4-1.4-.5-2.5.2-7.7.2-1.7.5.7.5.4.7.3c.2 0 1.1.2 1.2.4h.6l.8.2c.3.1.5.7.4 1 0 .2 0 .5.2.7l.2.6c.2 0 .3.2.4.4l.1.8z" fill="#65617D"/>
    <path d="M228 182s3 .2 3 .8c0 .7-3-.8-3-.8z" fill="#000" opacity=".1"/>
    <path d="M229 182s1.3.5 1 1c-.4.4-1-1-1-1zm6 0s3.5.3 3 .6c-.6.3-1.8.4-1.9.4l-1.1-1zm0 1s1 .4 1 .9-1-.9-1-.9zm1-8s1 .6 1 1l-1-1zm-5.5 1s-1.1.3 0 .9c1.1.5 0-.9 0-.9zm3.5-12s1.4-1.5 2-.8c.3.4.6.6 1 .7l-3 .1zm0 1.6v.2l-.7 2.8s0 .9-.2 1.4l-.1 1 .6-6 .4.6z" fill="#000" fill-rule="nonzero" opacity=".1"/>
    <path fill="#3F3D56" d="M236 159h-.6l-.4-1h.5z"/>
    <path d="M240 159.2l-.3.3-1 .8s-2.8 1.5-3.6 0c-.7-1.2 2.5-2 3.2-2.3h.2l1.5 1.2z" fill="#FBBEBE"/>
    <path d="M229 147s.8.4 1 .9c.2.5-1-.9-1-.9zm-2 3s-1.4.7-.9 1c.6.2.9-1 .9-1zm14-3s-1 .1-1 1l1-1zm-6 10s1.6-2.2 2-2l-2 2zm4-16.7c0 .5-.1 1-.4 1.5-.2 0-.3-.3-.4-.4a.5.5 0 0 0-.7-.1c-.2.1-.3.4-.3.7-.1-.4 0-1-.2-1.4 0-.4-.4-.9-.7-.9h-.5l-.2-.4c-.3-.5-1-.2-1.4 0a9 9 0 0 1-1.2 1c0-1.9 1.4-3.3 3-3.3s3 1.5 3 3.3z" fill="#000" fill-rule="nonzero" opacity=".1"/>
    <path d="M234.6 138.6l.1.3h.6c.4 0 .7.5.8.9l.1 1.2c0-.3.2-.5.4-.6h.7l.5.5c.2 0 .4-.2.4-.4l.2-.6c0-.4.3-.7.5-1v-1.4l-.4-.7-.4-1.1c-.3-.6-1-.8-1.6-.6l-.9.3c-.4.2-.8 0-1.2 0-.4 0-.9 0-1.2.2-.4.3-.5.8-.8 1.2-.2 0-.4.2-.5.3-.2.1-.3.3-.3.5s.3.5.2.7l-.2.2a2 2 0 0 0-.6 1c.7.2 1.5-.5 2-.8.4-.3 1.3-.5 1.6 0v-.1z" fill="#3F3D56"/>
    <path d="M240 158.8l-.2.2c-.1-.3-.8-1-.8-1h.1l.9.8z" fill="#000" opacity=".1"/>
    <path d="M240 158.1l-.1.6-.1.2c0-.3-.8-1.5-.8-1.5l.1-.2.1-.2.8 1.1z" fill="#E7EFFD"/>
    <path d="M239.8 155.7l.2 3.3c-.4-.7-1.3-2.5-2-2.5l1.6-2.2.1-.3.1 1.7z" fill="#000" opacity=".1"/>
    <path d="M240 157.7l-.1.3c-.3-.4-.6-.8-.9-.9l.1-.1.9.7z" fill="#000" opacity=".1"/>
    <path d="M241.8 147l.4.4s.7 0 .7.6c.1.7.7 1 .7 1s.5.5.5.8l.3.7s.4.9.3 1c0 .1.4.8.3 1l-.3.7s-.5 1.1-.8 1.4c-.3.2-1.5 2-1.5 2s-1.3 1.8-1.3 2.4c0 0-1.3-2.5-2.1-2.5l1.5-2s.3-.3.3-.5.7-1.1 1-1.1v-.6c-.2 0-.3-.4-.3-.4s-1-1.4-1-2.2c0-1 1.3-2.7 1.3-2.7z" fill="#65617D"/>
    <path d="M244 150s-1.2.7-1 1c.3.2 1-1 1-1zm-1 2.1s1.8-.6 2 0h-2zm-12 34.1s-1 .7-1.4.6c-.3 0-.6 0-.9.2-.3.4-.7.7-1.1.8a4 4 0 0 1-2.4 0c-.2-.1-.3-.3-.1-.4.6.1 2 .4 2.4.2l1.2-.9 1-.2 1.3-.5v.2zm7 1.8s-.2.7-1.6 1c-1.4.2-1.4-.6-1.4-.6v-.2c.4.2 1.4.4 3-.2zm-8-40s0 3.6-.8 4c-.8.3.8-4 .8-4zm10 2l1 1s.3-1-1-1zM231.9 138.9l-.2-.7v.2l.1.5h.1zm4.3 2.6l-.2-1.2c0-.3-.4-.7-.8-.7l-.5-.1-.1-.3c-.3-.4-1.2-.2-1.5 0-.6.3-1.3 1-2 .9v.2c.6.2 1.4-.5 2-.8.3-.3 1.2-.5 1.4 0l.2.2c.1.2.3.1.5.1.4 0 .7.4.8.8l.1 1.2v-.3h.1zm1.9-.5c0 .3-.2.4-.4.4s-.3-.3-.5-.4a.6.6 0 0 0-.7 0c-.2 0-.3.3-.3.5 0-.1.1-.3.3-.3.2-.2.5-.1.7 0 .1.2.2.4.4.4s.4-.1.5-.3v-.3zm.6-1.6l-.5 1v.3c0-.4.3-.7.5-1l.1-.6v.3h-.1z" fill="#000" fill-rule="nonzero" opacity=".1"/>
    <path d="M78 48h18v18H78V48zm24 0h18v18h-18V48z" fill="#DFE3EF" fill-rule="nonzero"/>
    <path d="M125 48h18v18h-18V48zm23 0h18v18h-18V48zm23 0h18v18h-18V48z" fill="#6C63FF" fill-rule="nonzero" opacity=".2"/>
    <path fill="#6C63FF" opacity=".1" d="M173.2 52l14.5-11L199 56l-14.4 11z"/>
    <path d="M87 50a3 3 0 1 0 0 6 3 3 0 0 0 0-6zm2 3.8l-.4-.1v-.3h.5v-.2c-.2-.2-.1-.6-.1-.9l-.3-.6a1 1 0 0 0-.5 0 1 1 0 0 0-.3 0c-.6.2-.3 1-.5 1.5v.1l.4.1v.2l-.2.2h-.2v.2h.1c.3 0 .5.2.7.4.2.1.3.4.3.6l-.1.2h-.1a1 1 0 0 0-.7-1H87l-.2-.2v-.5l.2-.5.1-.3v-1.1a.9.9 0 0 0-.8-.6 1 1 0 0 0-1 .6v.6l.1.2v.3s0 .4.1.3v.4l.2.2v.4l-.4.2a2 2 0 0 0-.5.1 2.6 2.6 0 1 1 4.6-.3l-.4-.2z" fill="#FFF" fill-rule="nonzero"/>
    <path d="M87.8 64v-3.8l1.8 1.8.4-.5-2.5-2.5-2.5 2.5.4.4 1.8-1.7V64h.6zm23 0v-3.8l1.8 1.8.4-.5-2.5-2.5-2.5 2.5.4.4 1.8-1.7V64h.6z" fill="#6C63FF" fill-rule="nonzero" opacity=".5"/>
    <path d="M110.6 52.3h-.1l-1.5 1.4 2.6.2h.1l-1.1-1.6zm1.7.7h-.1l-.5.3.4.6h.1l.7.1c.1 0 .1 0 0 0l-.6-1zm.1-.5c.2 0 .4 0 .4-.2 0 0 0-.2-.2-.3h-.4c-.1.1-.2.3-.1.4l.3.1z" fill="#FFF" fill-rule="nonzero"/>
    <path d="M112.7 51.3h-1v-1c0-.2-.2-.3-.4-.3l-4 .4c-.2 0-.3.2-.3.4l.4 4c0 .2.2.3.4.3h.2v.2c0 .2.1.4.3.4l4 .3c.2 0 .3-.1.3-.3l.4-4c0-.2-.1-.4-.3-.4zm-5 2.3l-.3-2.8 3.8-.4h.1v.8l-2.6-.2c-.2 0-.4.1-.4.3l-.2 2.3h-.4zm4.9-1.8l-.2 2.7h-.4l-3.5-.3v-.7l.2-2v-.1l2.7.2h.4l.7.1.1.1z" fill="#FFF" fill-rule="nonzero"/>
    <path fill="#DFE3EF" d="M78 86h42v31H78z"/>
    <path d="M103.4 94.8a15 15 0 0 0-13.2 1.8A13.9 13.9 0 0 0 84 108c0 .6-.5 1-1 1a1 1 0 0 1-1.1-1c0-5.2 2.6-10 7-13a17 17 0 0 1 15-2.1" fill="#6C63FF"/>
    <path d="M104.6 92a16.9 16.9 0 0 1 11.4 16 1 1 0 1 1-2 0c-.1-6.3-4-12-10-14" fill="#FFF"/>
    <path d="M99.4 101c-.6 0-1.1.3-1.4.8-.3-.5-.8-.8-1.4-.8-.9 0-1.6.8-1.6 1.7 0 .7.3 1.4.7 2 .9 1.2 2.3 2.3 2.3 2.3s1.4-1 2.3-2.3c.4-.6.7-1.3.7-2 0-1-.7-1.7-1.6-1.7z" fill="#6C63FF"/>
    <path fill="#DFE3EF" d="M131 73h63v46h-63z"/>
    <path d="M137 108h3v9h-3v-9zm4-10h3v19h-3V98z" fill="#FFF" fill-rule="nonzero"/>
    <path fill="#DFE3EF" d="M147 87h3v29h-3z"/>
    <path fill="#FFF" d="M152 81h3v36h-3z"/>
    <path d="M147 81h3v36h-3V81zm10 17h3v19h-3V98z" fill="#6C63FF" fill-rule="nonzero"/>
    <path d="M162 92h3v25h-3V92zm5-8h3v33h-3V84z" fill="#FFF" fill-rule="nonzero"/>
    <path fill="#65617D" d="M201 67.4l2.6-1.4 1.2.7 24.2 114-1.4.3-3-2.6z"/>
    <path fill="#000" opacity=".1" d="M203 66l23.6 115 1.4-.3-23.8-114z"/>
    <path d="M186 72l18 1.7V75l-17.9-1.5-.1-1.5zm1.2 18H206v2h-19l.2-2zm1.8 16.8l19.6-.8 2.4.8v1.3l-17.4.9h-4.4l-.2-2.2z" fill="#65617D" fill-rule="nonzero"/>
    <path d="M194.2 109l16.8-1v1.2l-17 .8.2-1zm-5.2-1l5 1-.3 1h-4.5l-.2-2z" fill="#000" fill-rule="nonzero" opacity=".1"/>
    <path fill="#65617D" d="M191 126.3l20.7-2.3 2.3.7v1.6l-18.5 2.2-4.5.5z"/>
    <path d="M197 127.6l16-2 2-.6v1.6l-18 2.4v-1.4zm-6 .6l5-.2v.7l-4.7.3-.3-.8z" fill="#000" fill-rule="nonzero" opacity=".1"/>
    <path fill="#65617D" d="M191 146.5l24-3.5 2 .9v1.7l-20.7 3.4h-4.8z"/>
    <path d="M198 147l20-4v1.7l-20 3.3v-1zm-5 1h5v1h-4.8l-.2-1z" fill="#000" fill-rule="nonzero" opacity=".1"/>
    <path fill="#65617D" d="M194 166.2l25.7-5.2 2.3 1.5v1.1l-22.6 6-4.6.4z"/>
    <path d="M200 167l22-5v1l-22 5v-1zm-6 .2l5-.2v.8l-4.7.2-.3-.8z" fill="#000" fill-rule="nonzero" opacity=".1"/>
    <path fill="#65617D" d="M187.2 65l-2.2.5 7.9 121.7 2.3.8h1.8z"/>
    <path fill="#000" opacity=".1" d="M185 65.2l9.2 122.8h1.8L186 65z"/>
    <path fill="#FFF" d="M175.4 51.2l14.5-11 11.3 15-14.4 11z"/>
    <path fill="#DFE3EF" d="M175.4 51.2l14.5-11 11.3 15-14.4 11z"/>
    <path fill="#6C63FF" opacity=".5" d="M192.8 58.6l-2.3-2.9 2.4.4.1-.6-3.5-.5-.5 3.4h.6l.4-2.3 2.3 2.9z"/>
    <path d="M187.9 53.4a3 3 0 0 1-4.9-2.9.3.3 0 0 1 .5 0 2.5 2.5 0 0 0 4 2.5 2.5 2.5 0 1 0-2.8-4.2l.6.8a.3.3 0 0 1-.4.3l-.8-1v-.3a3 3 0 0 1 3.8 4.8z" fill="#FFF"/>
    <path d="M184.1 49h1.5c.1 0 .3 0 .3.2v.5c0 .2-.1.3-.3.3h-.1l-1.4-.6v-.1c-.1 0-.1 0 0-.1V49z" fill="#FFF"/>
    <path d="M207 107.4l-.7-2.5v-1.5c0-.3.2-.5.3-.8.2-.4 0-2 0-2s-1-2-.9-3.5c.2-1.4-2-6-2-6v-1.4-.3c0-1-.8-2.6-.8-2.6v-3.3s.4-2-.5-4.5l-.6-2.1v-.2l2.7-.6s-1-3.7-1.7-4.3c-.6-.6-1.2-2.7-1.2-2.7s-.4-2.6 0-3.4c.5-.8.5-2.2.5-2.2s1.2-.8 1.3-1.2a5 5 0 0 0 .3-1.7v-1c0-.3-.5-1.2-.3-1.6v-1.5c-.4-.3-.8-.5-1.3-.6v-.4h-.2V55l.1-.9c.3-1.5-1.7-1.6-1.7-1.6a1 1 0 0 0-.6-.5c-.4-.1 0 2.2.2 2.4l.9 1.2v.7a2 2 0 0 0-.3.6c.3.2.4.5.4.8l.1 1-.5-.2-1 .4s-.5 0-.5.2l-.3.6-1.5-1.3v-.1l-.2-.6.5-.1.3-.3c.2-.2.2-.4.2-.6l.5-1.3c.3-.6.4-1.4.3-2 0-.3-.2-.5-.3-.7-.2-.3-.7-.4-1-.7-.3-.2-.5-.6-.9-.8h-1.1a6 6 0 0 0-2 .8 1 1 0 0 1-.7.2 1 1 0 0 1-.5-.3c-.2.4-.3.9-.2 1.3v.1l-.1.2-.1.2-.2.4s0 .2.2.3l.2.2v.4a3 3 0 0 0 1.4 2.4h.1c.2.6.3 1 .3 1.6v.2s-2.4.1-3-.4c-.6-.5-1.4 1.3-1.4 1.3s-.8.2-1 0h-1.2c-.4-.3-1-.4-1.5-.4-.3-.3-.7-.4-1.1-.6h-.6l-1.6-1.4-2-2.4v-.4h-.2l-.4-.8v-1.8s-1.2-2.5-2-.6c0 0-1.8 1.3-.3 2.6 0 0 .7.2.8.5l.4.8v.4c-.2.2-.4.4-.3.5l.1.6s2.2 2.5 2.5 3.6c0 0 5.7 3.1 7.6 3.3l-.3 1.6V67l-.1 2s-.3 2.3-.5 2.6c-.3.3-.2 1.8-.2 1.8l-.3 2a5 5 0 0 0 0 2s-.8 2.1 1.4.6l2.3-.2v.6l.2 4.2c.2 2.2 1 6.6 1 6.6l.1 2.2v.6c0 .8.3 1.6.7 2.2l.2 1.5s.5 1 .5 1.5v.4c0 .7.4 2.3.4 2.3s.1 1.6.4 1.7c.2 0-.3 1-.4 1.2v.4c-.1.2 0 .4.2.5.5.3.7.5.4.6l-.5.2v-.1c-.1 0-.2.2-.1.3l.1.5.7 1.2h.2v.2l-.4.2-.3.2a1 1 0 0 0-.7.3c-.2.3-.3.8.2 1.1l1.7.6s3 .2 2.9-.5l-.3-1.2-.3-1.2-.1-.1s.2-1.5.5-1.8v-.2c.1 0 0-.1 0-.1h-.4s-.1-.8.2-1v-.3-.3l-.8-1.8s0-.7.2-1c.1-.3-.2-3.8-.2-3.8s0-1.7-.3-2.5c-.2-.8.2-1.7.2-1.7v-.4l-.3-1.6v-3.1l.3-1.1.9 1.8 1 2.5.4 1.1v.2c0 .4 0 .7.3 1 0 0 .2 1.1.6 1.4l.4.9s.4 1.7.6 2c.2.3.3 1 .3 1.2V99.2 99v1c0 .7 0 1.4.5 1.9.7.7 1 .6 1 .6s-.2 1-.6 1.1c-.1.1-.2.2-.1.4 0 .5.2 1 .5 1.3l.3.2a1 1 0 0 1-.4.2 1 1 0 0 0-.6.3c-.3.4-.4.8.1 1.1l1.8.6s3 .2 2.8-.4v.1z" fill="url(#b)"/>
    <path d="M196.1 109l-1.8-.7c-.5-.4-.3-1 0-1.3 0-.2.3-.4.6-.4l.3-.2.3-.3.2-.7s1.9-.8 2.4-.2l.3.4.3 1.4.3 1.5c.2.7-2.9.4-2.9.4v.1zm8-1l-1.8-.7c-.5-.4-.3-1 0-1.3 0-.2.3-.4.6-.4h.2l.1-.2c.5-.3.5-1 .5-1s1.9-.8 2.4-.2l.2.3c.3.5.4 1 .4 1.5l.3 1.5c.2.7-2.9.4-2.9.4v.1z" fill="#2D293D" fill-rule="nonzero"/>
    <path d="M197.7 106.2l.3.4-3 .4.2-.7s2-.6 2.5 0v-.1zm8.3-1.9v.3c-.4.5-2.4.5-3 .2h.1c.5-.2.4-.6.4-.6s1.8-.4 2.3 0h.2v.1z" fill="#000" fill-rule="nonzero" opacity=".1"/>
    <path d="M205 103.3l-.4.7.1 1.8c-.4.8-2.7.7-3 .3-.3-.5-.7-1.5-.3-1.7.3-.2.6-1.2.6-1.2s-.4.1-1-.6-.5-2.4-.4-2.8l-.1-1.7s0-1-.2-1.3c-.2-.3-.6-2-.6-2l-.3-.9c-.4-.3-.6-1.5-.6-1.5-.2-.2-.3-.6-.3-1 0-.5-.4-1.1-.4-1.1l-.8-2.6-.8-1.8-.3 1.1v3.1l.4 2s-.4 1-.2 1.7c.2.8.2 2.5.2 2.5s.3 3.6.2 3.8c-.2.3-.1 1-.1 1s1 2 .6 2.4c-.2.2-.1 1-.1 1s.6 0 .3.3c-.2.3-.4 1.8-.4 1.8l-2.6.4-.6-1.2c-.4-.8 0-.7.4-.9.3 0 0-.3-.3-.6-.5-.2-.2-.9-.2-.9s.6-1.1.3-1.2c-.2-.1-.3-1.7-.3-1.7s-.5-2-.4-2.4c.1-.6-.4-1.8-.4-1.8l-.2-1.5c-.5-.8-.7-1.8-.6-2.7v-2.3s-.8-4.4-1-6.6l-.2-4.6v-1.1l9.4-1.5c.2 1.3.4 2.5.8 3.7.7 2.5.4 4.4.4 4.4v3.3s1 2.2.8 3l-.2 1.3s2 4.7 2 6a9 9 0 0 0 .7 3.6s.2 1.5 0 2h.1z" fill="#575988"/>
    <path d="M200 91.5l3-.5s-1.6 1.8-3 .5zm1.7-2.5s.2.7-.7 1c0 0 1.7-.2.7-1zm.3-5s-2.8 2.1-3.9 2c-1-.1 3.9-2 3.9-2zm-6 9s-1 .4-1 .9 1-.9 1-.9zm.4 9s-3.2.4-2.2.6l2.4.4s1 0-.2-1zM194.4 103.6a.5.5 0 0 1-.3-.4s-.2.7.2 1h.4c.4 0 .1-.3-.3-.6zm3.4-.3v-.5l-.1.7.1-.2zm-.8-11.7l-.2.9.2-.6v-.3zm6-1.5v-.3.3zm-5.8 9.9v-.6.6zm.8 4.4l-.3 1.4-2.7.5a6 6 0 0 1-.8-1.4c-.1 0-.2.3 0 .8l.7 1.1 2.7-.4s.2-1.5.4-1.8c.1-.1 0-.2 0-.2zm-3.8-4.1s0 1.6.3 1.7v-.6c-.2 0-.3-1.7-.3-1.7s-.5-1.9-.4-2.4a5 5 0 0 0-.4-1.8l-.2-1.4c-.6-.9-.8-1.9-.6-2.8l-.1-2.3s-.8-4.4-1-6.7l-.2-4.6v-.5a45.6 45.6 0 0 0 1.1 12.3v2.3c0 1 .2 2 .7 2.8l.2 1.5s.5 1.3.4 1.8c0 .5.5 2.4.5 2.4zm8.2 5l-.5-1c-.2.2.1 1.2.4 1.6.4.4 2.7.6 3.2-.2v-.5c-.6.7-2.8.5-3 .1h-.1zm3.4-2.8c-.2.3-.3.5-.3.8v.3l.2-.5v-.6h.1zm-3.3.5l.2-.5s-.4 0-1-.6c-.5-.6-.6-1.6-.5-2.3-.1.4-.2 2.1.4 2.8.4.5.7.6.9.7v-.1zm-1.4-5.1l.1 1.4v-2s0-1-.2-1.2l-.7-2c0-.4-.1-.7-.3-1-.4-.2-.6-1.4-.6-1.4a2 2 0 0 1-.3-1c0-.6-.4-1.2-.4-1.2l-.9-2.5-.8-2-.3 1.2v.3l.3-.9.8 2 .8 2.4s.5.6.5 1.2c0 .4 0 .7.2 1 0 0 .3 1.2.6 1.5l.4.9s.4 1.7.6 2c.2.3.2 1.3.2 1.3z" fill="#000" fill-rule="nonzero" opacity=".1"/>
    <path d="M201 55.2l-.1 1v.7l-.8.1-.1-.2-.7-1.3c-.1-.1-.5-2.6-.2-2.5.2 0 .4.3.5.5 0 0 1.6.2 1.4 1.7z" fill="#FFCDD3"/>
    <path d="M201 56.7l-.9.3-.1-.4c.2-.6.6-.8 1-.4v.5z" fill="#000" opacity=".1"/>
    <path d="M202 56.7l-1 .3v-.7c.2-.3.6-.4.9-.2v.3l.1.3z" fill="#DCE6F2"/>
    <path d="M181 55.2l-1.7.8-.2-.3-.5-.8c0-.2-.8-.5-.8-.5-1.9-1.4.2-2.7.2-2.7 1-1.9 2.4.6 2.4.6s.3 1.3.2 1.4c-.2.1-.1.5-.1.5l.5 1z" fill="#FFCDD3"/>
    <path fill="#000" opacity=".1" d="M180 56.2l-1 .8v-.2l.7-.8h.3z"/>
    <path d="M181 56.4l-1 .6v-.4s.5-.6.7-.6h.3v.4z" fill="#DCE6F2"/>
    <path d="M198 61.3s-7.2 1-5.8.6c.9-.3 1.2-1 1.3-1.6 0-.5-.1-1-.4-1.6l-.6-1.2s5.3-3 4.3-.4l-.2 1.3c0 .4 0 .8.2 1.2a3 3 0 0 0 1.2 1.7z" fill="#FFCDD3"/>
    <path d="M196.9 57.1a5 5 0 0 0-.2 1.4c-.5.4-1 .4-1.6.4-.5 0-1 .2-1.5 0l-.6-1.3s4.8-3.3 3.9-.5z" fill="#000" opacity=".1"/>
    <circle fill="#FFCDD3" cx="195" cy="56" r="3"/>
    <path d="M198 61.2s-7.2 1.2-5.8.7c.9-.4 1.2-1 1.3-1.8a4 4 0 0 1 1.5-1 2 2 0 0 1 1.3 0l.5.2c.2.7.6 1.4 1.2 2v-.1zm4-3.7l-1 .5v-.3c.2-.6.6-.8 1-.6v.4zm-21-1.3l-1 .8v-.3l1-.7v.2zm20 21c-3.3.6-6.6.9-10 .8v-.9l9.8-1.1c0 .4 0 .8.2 1.2z" fill="#000" fill-rule="nonzero" opacity=".1"/>
    <path d="M204 76.8s-8.6 1.7-9.5 1.5c-1-.3-5.7.2-5.7.2-2 1.4-1.2-.6-1.2-.6a3 3 0 0 1 0-1.9l.2-2s0-1.2.2-1.6c.2-.3.4-2.5.4-2.5l.2-1.9v-1.2l.2-1.6a37 37 0 0 1-7.2-3 16 16 0 0 0-2.4-3.5l-.2-.6c-.1-.3 2-1.1 2-1.1l2 2.2c.3.5 1.4 1.4 1.4 1.4h.6c.4.2.7.3 1 .6.6 0 1.1.1 1.5.4h1.1c.2.2 1 0 1 0s.8-1.7 1.3-1.2c.6.4 2.9.3 2.9.3.3-.4 1-.7 1.5-.8.4-.2.8-.2 1.2-.1l.5.2 1.4 1.2.4-.6.4-.2 1-.3.5.2-.2-1c0-.3 0-.6-.3-.8.7-1.9 2.7-.4 2.7-.4s.2 1 0 1.5c-.1.4.3 1.2.3 1.4v1c0 .6 0 1.1-.2 1.6-.1.4-1.2 1.3-1.2 1.3s0 1.2-.5 2c-.5.7 0 3.2 0 3.2s.5 2 1 2.6c.7.6 1.7 4 1.7 4v.1z" fill="#656691"/>
    <path d="M190 63l-.5-.6-.5-.2.1-.2s.7.1.8.3c.2.2 0 .7 0 .7h.1zm-5-2.5c0 .2-2 .5-2 .5l1-1 1 .5z" fill="#000" fill-rule="nonzero" opacity=".1"/>
    <circle fill="#575988" cx="180.5" cy="57.5" r="1"/>
    <circle fill="#575988" cx="180.5" cy="57.5" r="1"/>
    <circle fill="#575988" cx="180.5" cy="58.5" r="1"/>
    <circle fill="#575988" cx="180.5" cy="58.5" r="1"/>
    <circle fill="#575988" cx="202.5" cy="57.5" r="1"/>
    <circle fill="#575988" cx="202.5" cy="57.5" r="1"/>
    <circle fill="#575988" cx="202.5" cy="58.5" r="1"/>
    <path d="M190 69s5.8 6.9 10 2.6c0 0-6.8 1.2-10-2.6zm-2 3s3.5 0 4 .5v.5h-.7c-.3-.1-2.5-.6-3.2-.3l-.1-.7z" fill="#000" fill-rule="nonzero" opacity=".1"/>
    <path d="M188 72s3.5 0 4 .5v.5h-.7c-.3-.1-2.5-.6-3.2-.3l-.1-.7z" fill="#656691"/>
    <path d="M189 65c1 1.7 2.3 3 4 4 0 0-4-3.5-4-4zm0-3s.3 2.3 1 3l-1-3zm-2 0s-.2 2 1 3c0 0-.5-.3-1-3zm15-2l1 1s-.5-1-1-1z" fill="#000" fill-rule="nonzero" opacity=".1"/>
    <path d="M194.2 57.6c0 .2 0 .3.2.4h.2a5 5 0 0 0 2.2-.3l.4-.2.2-.6c0-.4.2-.7.4-1 .2-.7.3-1.3.1-2 0-.1 0-.3-.2-.5-.2-.3-.6-.4-.8-.6l-.8-.7h-1a5 5 0 0 0-1.6.7l-.6.2a.8.8 0 0 1-.5-.3l-.1 1v.2l-.1.2c-.2.2-.3.6-.1.8l.3.2.1.6v.3h.7c.1 0 .2 0 .3.2.3.4.6.9.7 1.4z" fill="#2D293D"/>
    <path d="M197 58a1 1 0 0 1-.4.3c-.9.3-1.8.4-2.7.3a.5.5 0 0 1-.2-.3 4 4 0 0 0-.8-1.6l-.3-.2a1 1 0 0 0-.4 0h-.3v-.2c0-.3 0-.5-.2-.7l-.3-.3a.5.5 0 0 1-.1-.5v.7l.3.3c.2.1.1.4.1.6l.1.3h.7l.3.2c.4.5.6 1 .8 1.5 0 .2 0 .3.2.4h.3c.8 0 1.6 0 2.4-.3.2 0 .3-.1.4-.3V58h.1zm-5.5-3.5v-.2c.1 0 .1 0 0-.1 0-.3 0-.7.2-1-.2.4-.3.9-.2 1.3zM194 59.7s3.7 1 4-.7m3-1s1.6-.1 2 1" opacity=".1" fill="#000" fill-rule="nonzero"/>
    <path fill="#FFF" d="M203.7 143.7H222v18.8h-18.2z"/>
    <path fill="#FFF" d="M203.7 143.7H222v18.8h-18.2z"/>
    <path fill="#6C63FF" opacity=".5" d="M212.8 160v-3.8l1.8 1.8.4-.5-2.5-2.5-2.5 2.5.4.4 1.8-1.7v3.8z"/>
    <path d="M209 149h3v-3h-.2a2.8 2.8 0 0 0-2.8 3z" fill="#DFE3EF"/>
    <path d="M210.7 149.9a3 3 0 1 0 2.5-4.9v3.2H210c0 .6.3 1.2.7 1.7z" fill="#DFE3EF"/>
    <path d="M53.3 17.5c-1.6 3-4.2 6.5-7.2 5.2-3-1.3-5.2-7-3.6-10a6.6 6.6 0 0 1 8.3-3.2c3 1.3 4 5 2.5 8z" fill="#6C63FF"/>
    <path d="M47.2 24s-.3 0-.2-.5v-.1l.2-.6v-.7l.8-.1-.3.7v.1h.2c.2.2 0 .4 0 .4 0 .6-.7.8-.7.8z" fill="#6C63FF"/>
    <path d="M47 9s-1.6-.2-2 .9h.6l.3.1c.3-.5.6-.8 1.1-1z" fill="#FFF" opacity=".1"/>
    <path d="M43.3 33c-.4.4-.8.8-1.3 1-2.7 1.4-7.4 1.4-9.7-.5a6.5 6.5 0 0 1-1.8-7.3l.8-1.4c1.7-2 4.5-2.3 7-1.1l.9.5.7.5.4.4c1 .9 2 2 2.7 3l.3.6c.4.7.7 1.6.7 2.4v.3c0 .6-.3 1-.7 1.5v.1z" fill="#6C63FF"/>
    <path d="M43.3 33c-.4.4-.8.8-1.3 1-2.7 1.4-7.4 1.4-9.7-.5a6.5 6.5 0 0 1-1.8-7.3l.8-1.4c1.7-2 4.5-2.3 7-1.1l.9.5.7.5.4.4c1 .9 2 2 2.7 3l.3.6c.4.7.7 1.6.7 2.4v.3c0 .6-.3 1-.7 1.5v.1z" fill="#000" opacity=".1"/>
    <path d="M45.3 32.9l-.6-.4-.7-.2.2-.9.1-.4.2.3c.1.2.3.3.4.3h.1l.2-.2c.2-.3.3 0 .3 0 .3 0 .4.3.5.6v.7s-.3.5-.7.2z" fill="#6C63FF"/>
    <path fill="#444053" d="M44.5 33H44l.6-.8V32h.4v.2z"/>
    <path d="M45.2 32.9l.3-.7-.1-.4c-.1-.3-.2-.5-.4-.6.3-.4.5-.1.5-.1.3 0 .4.4.5.7v.9s-.3.5-.8.2z" fill="#6C63FF"/>
    <path d="M45.2 32.9l.3-.7-.1-.4c-.1-.3-.2-.5-.4-.6.3-.4.5-.1.5-.1.3 0 .4.4.5.7v.9s-.3.5-.8.2z" fill="#000" opacity=".1"/>
    <path d="M31.2 27s-.7 1.3.4 2c0-.2 0-.3.2-.5l.2-.3a2 2 0 0 1-.8-1.2z" fill="#FFF" opacity=".1"/>
    <path d="M56.5 22.7c-1.4.8-3 1.6-4.6 2-1.2.3-2.4.4-3.3.1-.7-.2-1.3-.6-1.7-1.1-1.2-1.6-1.1-4.3-.3-6.7.5-1.6 1.6-3 3-3.9 3.4-1.9 7.6-1.3 9.5 1.4 1.9 2.6.7 6.3-2.6 8.2z" fill="#6C63FF"/>
    <path d="M56.5 22.7c-1.4.8-3 1.6-4.6 2-1.2.3-2.4.4-3.3.1-.7-.2-1.3-.6-1.7-1.1-1.2-1.6-1.1-4.3-.3-6.7.5-1.6 1.6-3 3-3.9 3.4-1.9 7.6-1.3 9.5 1.4 1.9 2.6.7 6.3-2.6 8.2z" fill="#000" opacity=".1"/>
    <path d="M55 13.7s-1.1-1.2-2-.4c.2 0 .3.2.4.4l.3.3c.4-.3.8-.4 1.3-.3z" fill="#FFF" opacity=".1"/>
    <path d="M41.3 25h-.1l-.9.7-.3.2a10.3 10.3 0 0 1-8.6.3l-1-.7c-2.7-2.4-3.2-6.3-1-8.7 1.6-2 4.4-2.3 6.9-1.1h.2l1.4 1c1.1 1 2.1 2 3 3.3v.2l.3.3.1.2c.4.7.7 1.6.7 2.4 0 .7-.3 1.3-.7 1.8v.1z" fill="#6C63FF"/>
    <path d="M28.2 19s-.7 1.3.4 2c0-.2 0-.3.2-.5l.2-.3a2 2 0 0 1-.8-1.2z" fill="#FFF" opacity=".1"/>
    <path d="M44 19.6a3 3 0 0 1-2 .4c-.6 0-1.1-.2-1.6-.5-1.8-.8-3.5-2.5-4.5-4.3-.6-1.2-1-2.5-.9-3.7A6.2 6.2 0 0 1 41.8 6a6 6 0 0 1 5.2 7c-.1 1.3-.4 2.5-.8 3.7a5.6 5.6 0 0 1-2.2 3v-.1z" fill="#6C63FF"/>
    <path d="M44 19.6a3 3 0 0 1-2 .4c-.6 0-1.1-.2-1.6-.5-1.8-.8-3.5-2.5-4.5-4.3-.6-1.2-1-2.5-.9-3.7A6.2 6.2 0 0 1 41.8 6a6 6 0 0 1 5.2 7c-.1 1.3-.4 2.5-.8 3.7a5.6 5.6 0 0 1-2.2 3v-.1z" fill="#000" opacity=".1"/>
    <path d="M43.4 21s-.3 0-.3-.3v-.1-.6l-.1-.5.8-.5-.1.3c0 .2-.1.3 0 .4h.1c.2 0 .2.3.2.3 0 .5-.6 1-.6 1z" fill="#6C63FF"/>
    <path d="M39 8s-1 .2-1 1l.3-.1h.3c0-.4.2-.7.4-.9z" fill="#FFF" opacity=".1"/>
    <path d="M62.7 35.1c-2 2.5-5.9 2.5-8.6.2a16.4 16.4 0 0 1-3.4-4c-.4-.7-.7-1.5-.7-2.3 0-.7.2-1.4.7-1.9.6-.6 1.3-1 2.1-1.4 2.8-1 6.8-1 8.8.8 2.7 2.3 3.2 6.2 1.1 8.6z" fill="#6C63FF"/>
    <path d="M63.8 32s.7-1.4-.4-2c0 .2 0 .3-.2.5l-.2.3c.4.3.7.7.8 1.2z" fill="#FFF" opacity=".1"/>
    <path d="M51 24.9c-.5 3.3-1.8 7.4-5 7-3.3-.3-7.4-5-7-8.4a6.2 6.2 0 0 1 6.8-5.5 6 6 0 0 1 5.2 7v-.1z" fill="#6C63FF"/>
    <path d="M48.4 33s-.3 0-.3-.3V32l-.1-.5.8-.5-.2.7h.2c.2 0 .2.3.2.3 0 .5-.6 1-.6 1z" fill="#6C63FF"/>
    <path fill="#444053" d="M49 32.1l-1 .9v-.3l1-.7z"/>
    <path d="M48.3 33s-.3 0-.3-.3l.4-.1c.2-.1.3-.4.4-.6.3 0 .2.2.2.2 0 .4-.7.8-.7.8z" fill="#6C63FF"/>
    <path d="M48.3 33s-.3 0-.3-.3l.4-.1c.2-.1.3-.4.4-.6.3 0 .2.2.2.2 0 .4-.7.8-.7.8z" fill="#000" opacity=".1"/>
    <path d="M43 18s-1 .2-1 1l.3-.1h.3c0-.4.2-.7.4-.9z" fill="#FFF" opacity=".1"/>
    <path d="M67.4 56l-.4.3.6 2.4c.6.8 1.4 1.5 2.2 2.1.6 1.1 3.5 4.2 3.2 2.9-.4-1.3-.6-1-.6-1s.7-2-1-2.8a19 19 0 0 1-3.6-3.4l-.4-.5z" fill="#EFB7B9"/>
    <path d="M75 62.2c.3.2.5.5.7.9.2.3.3.7.1 1 0 .3-.2.4-.3.6-.4 1 .7 2 .5 3-.1.6-.7 1-1.2 1.5-.5.4-1 1-.9 1.6l.4.8c.2.2.2.6 0 .8-.2.5-1 .4-1.2.9 0 .5.6 1 .3 1.3-.1.2-.4.3-.6.2l-.7-.2c-.3 0-.6.1-.7.4-.2.2-.2.5 0 .8 0 .2.3.4.3.7 0 .2-.1.3-.3.4-.5.3-1.2 0-1.5-.5-.2-.4-.2-.8-.2-1.3 0-.4 0-1-.3-1.3l-.5-.3-1.6-1c-.3-.4-.7-1-.7-1.5 0-.6.6-1.1.6-1.7 0-.7-.7-1.1-1.2-1.5-.6-.4-1.1-1-1-1.6.2-.6 1.1-.8 1.5-1.4l.4-.7.2-1.4c.1-.4.4-.8.7-1.1.5-.4 1.1-.3 1.7-.3.6.1 1.1.3 1.7.1.4 0 .8-.3 1.2-.4.5 0 1 .1 1.4.5.2.2.2.3.5.3s.5.2.7.4z" fill="#925978"/>
    <path d="M76 72.3c-.3.2-.5.3-.8.3l.8-.3zm-2.3 2.1h-.3l.6-.2c.3 0 .5 0 .7.2h.3c-.1.2-.4.3-.6.2l-.7-.2zm-5-12.2l-.2 1.4-.4.7c-.4.5-1.4.7-1.6 1.4-.2.6.4 1.2 1 1.6.6.4 1.2.8 1.3 1.5 0 .6-.5 1.1-.6 1.7 0 .6.4 1 .8 1.5.5.4 1 .8 1.6 1l.6.4c.3.3.4.8.3 1.3 0 .4 0 1 .2 1.3.2.5.8.7 1.4.5l-.2.2c-.6.3-1.3 0-1.6-.5-.3-.4-.2-.8-.2-1.3s0-1-.3-1.3l-.6-.3-1.6-1.1c-.4-.4-.8-.9-.8-1.4 0-.7.6-1.2.6-1.8 0-.6-.7-1.1-1.3-1.5-.6-.4-1.1-1-1-1.6.2-.6 1.2-.8 1.6-1.4l.4-.7.2-1.4c.1-.5.4-.9.8-1.2l.3-.1a2 2 0 0 0-.7 1v.1z" opacity=".1" fill="#000" fill-rule="nonzero"/>
    <path d="M56.6 69.6l-.4-.6s-.7 1.1.3 1.8c1 .8.1-1.2.1-1.2z" fill="#4C4981"/>
    <path d="M56.6 69.6l-.4-.6s-.7 1.1.3 1.8c1 .8.1-1.2.1-1.2z" fill="#000" opacity=".1"/>
    <path d="M53.1 91s0 1.3-.3 2.5a6 6 0 0 1-.6 2.1c-.7 1-.6 3.8-.6 3.8l-.8 3.3c0 .7-.5 1.6-.7 2l-.1.1.6 1 1 .2s1.6-.5 1.1-1.5l-.1-.7c0-1.3 1-3.5 1-3.5s2.2-4.1 2-5l-.1-.2c0-1 .5-2.6.5-2.6L53.1 91zm-14.4-6.5c-1.6 1-4.3 3.8-4.8 4.5-.6.9-2.2 1.9-2.2 1.9l-1.1.6-.4.4-.2.2 1.6 1.9 1-.8c.4-.4 1-1 1.2-1.4.3-.7 2-1.6 2-1.6l3.7-2.3 1.2-.8c.3 0 .5-.2.8-.3l2.5-1.5-1.5-2.3-2.9 1.1a2 2 0 0 0-1 .4h.1z" fill="#EFB7B9" fill-rule="nonzero"/>
    <path d="M49.1 104.8l-.1.1.6.9 1 .2s1.8-.5 1.3-1.4l-.1-.6c-.6.1-.7.7-.7.7s-.1.3-1 .5c-.5.1-.8-.2-1-.4z" fill="#000" opacity=".1"/>
    <path d="M50.3 104.8c-.2.2-.3 1.1-.3 1.7v.6c0 .2.8.5 1.2.3.5-.1 2.4.6 2.4.6.7 0 1.3-.1 2-.4.5-.3.5-.6.2-1a2 2 0 0 0-.7-.4c-.3-.1-.5-.4-.7-.7-.2-.4-.5-.8-.9-1-.3-.3-.6-.5-.8-.5-.5.1-.7 1-.7 1s0 .3-.7.6-1-.8-1-.8z" fill="#444053"/>
    <path d="M50 106v.4c0 .1.8.3 1.2.2l2.4.4c.7 0 1.3 0 2-.3.5-.2.5-.4.2-.6a8 8 0 0 1-2 .4c-.8 0-3.1-.4-3.8-.5zM30.2 92.2l-.2.2 1.3 1.6.7-.7c-.1-.8-1.7-1.3-1.7-1.3l-.1.2z" fill="#000" fill-rule="nonzero" opacity=".1"/>
    <path d="M28 92.7s.2 2.1.6 2.9c.4.6.7.5 1.3.2l.6-.4c1-.5 1.1-1 1.1-1 1.5-1.5-1.8-2.4-1.8-2.4l-.2.2c-.4 0-.7 0-1 .2l-.6.3z" fill="#444053"/>
    <path d="M29 92.3s0 2.4.3 3.2c.2.7.4.6.7.2-.3-.3-.5-.8-.6-1.4l-.1-2.3a2 2 0 0 0-.3.3z" fill="#000" opacity=".1"/>
    <path d="M66.5 66l-3 2-.5.3.4 1.3.4 1.3L65 72s1.7-.2 2.6-1c.3-.2.6-.5.6-.9l.1-.3c0-.2.1-.3.3-.4l.4-.3c.8-.4 2-.3 2-.3s-.3-3.2-.9-2.7c-.4.3-1.4.2-2 0h-1.6V66z" fill="#EFB7B9"/>
    <circle fill="#000" opacity=".1" cx="71" cy="67" r="3"/>
    <circle fill="#EFB7B9" cx="71" cy="67" r="3"/>
    <path d="M56.2 70.3c-.5.3-1.2 1.3-1.2 1.3l.7 4 4 1.4h.1c.2-.2 3.2-2.6 4.3-2.2 1.3.4 3.6-.9 3.6-.9l1.2-2.3c.3-.5-.2-2.3-.2-2.3l-.2.4-.8.8c-.3.2-.6.4-1 .4h-.3c-1.4.2-1.8-1.1-2-1.7V69l-.6-1.2-.4-.8s-6.3 3-6.9 3.1l-.3.2z" fill="#444053"/>
    <path fill="#925978" d="M68.3 70l-.3.2 1 .8v-.5z"/>
    <path fill="#FFF" d="M68.3 70l-.3.1.8.9.2-.2z"/>
    <path d="M68 70.2l.8 1.8.2-.4-.7-1.6-.3.2zm-1-.2l.9 2 .1-.3-.7-1.7H67zm1 3.9l-.3.1-1.7-4 .5.2 1.5 3.4v.3z" fill="#FFF" fill-rule="nonzero"/>
    <path fill="#925978" d="M63 67.1l1 1.9v-.3l-.5-1-.3-.7z"/>
    <path d="M63 68.2l4.6 5.8.4-.1-4.6-5.9-.4.2zm-1 0l4.6 5.8.4-.1-4.6-5.9-.4.2zm-1 0l4.6 5.8.4-.1-4.6-5.9-.4.2zm-1 0l4.5 5.8h.5l-4.6-6-.4.2z" fill="#FFF" fill-rule="nonzero"/>
    <path d="M61 68.2l3.5 5.7h.2l.3.1-3.7-6-.3.2zm-1 0l3.6 5.8.4-.1-3.6-5.9-.4.2z" fill="#FFF" fill-rule="nonzero"/>
    <path fill="#925978" d="M59 69.2l3.6 5.8.4-.2-3.6-5.8z"/>
    <path fill="#925978" d="M59 69.2l3.7 5.8.3-.2-3.6-5.8z"/>
    <path d="M59 69.1l3.7 5.9.3-.2-3.6-5.8-.4.1zm-1 1.1l3.7 5.8.3-.2-3.6-5.8-.4.2z" fill="#925978" fill-rule="nonzero"/>
    <path d="M57 70.1l3.7 5.9.3-.2-3.7-5.8-.2.1H57zm-.7-.1l-.3.3 3.6 5.6.2.1.2-.2-3.7-5.8zm0 1l-.3.3 3.4 5.5.6.2-3.7-6z" fill="#FFF" fill-rule="nonzero"/>
    <path fill="#FFF" d="M56 71l.2 1 2.2 3.8.6.2z"/>
    <path d="M56 72l.1 1.2.5 1.6.4.2-1-3zm0 3l.2.8.8.2-1-1z" fill="#925978" fill-rule="nonzero"/>
    <path d="M57 69.7l.4 1.2L59 74l3.3-1.4c.2-.5.3-1 .3-1.6 0-.7.3-1.6 1.8-2.1l.3-.1.6-.2a3 3 0 0 0 1.6-1.7v-.1l2.2-1.6-.7-.2h-1l-2.8 2-.4-.7-6.8 3.3-.3.1H57z" fill="#000" opacity=".1"/>
    <path d="M62.5 64.4a3 3 0 0 1-1 1.5c-1 .7-.8 1-.8 1L58 68.6s-.4.6-.9.5c-.4-.1.7 2.8.7 2.8l1.4 3.1 3.2-1.4c.2-.5.3-1 .3-1.6 0-.7.3-1.6 2-2.1a3 3 0 0 0 2.2-2l2.1-1.6c-.2-.3-.5-.5-.8-.6H68c-.3-.1-.5-.3-.5-.6 0-.4 0-2-.7-2.1-.7 0-4.2 1.4-4.2 1.4h-.1z" fill="#4C4981"/>
    <path d="M67 65l-1 1 .3 1 1.7-1.4a1 1 0 0 0-.6-.5L67 65z" fill="#4C4981"/>
    <path d="M67 65l-1 1 .3 1 1.7-1.4a1 1 0 0 0-.6-.5L67 65zm.4-9l-.4.3.6 2.4.4.3a36 36 0 0 1-.3-2.6l-.3-.4z" fill="#000" fill-rule="nonzero" opacity=".1"/>
    <path d="M62.5 55s-.8 3.5-.4 5.2c0 0 .3 2.6 0 3.8l3.8-.6.1-.8s-.7-.5-.8-1.2l-.3-1.4-.2-1.9c-.2-.4.4-.5.9-.2l.1.2c-.1.2 0 .6.2.8l.5.2.9.2-.4-2.2v-.5c.2 0 1.1 1 1.1 1s0-1.3-.5-1.6c0 0 0 .4-.3.2-.3 0-3.3-1.9-3.3-1.9s-1.1-1-1.4.7z" fill="#4C4981"/>
    <path d="M67 56l.2 1.6v.1c0 .3 0 .7.2.9l.2.3.4.1-.2-2.4-.8-.6z" fill="#000" opacity=".1"/>
    <path d="M67 56l.2 1.7v.9c.3.3.8.4.8.4l-.2-2.4-.8-.6z" fill="#4C4981"/>
    <path d="M67 56l.2 1.7v.9c.3.3.8.4.8.4l-.2-2.4-.8-.6z" fill="#FFF" opacity=".1"/>
    <path d="M55 93.5L52.3 92l-.3 2.5 2.5 1.5c0-1 .5-2.5.5-2.5zm-17-9c.3.6.7 1 1.2 1.5l.7 1 .8-.4 2.3-1.4-1.5-2.2-2.6 1.1a2 2 0 0 0-.9.4z" fill="#000" fill-rule="nonzero" opacity=".1"/>
    <path d="M47.4 75.3c-.5.8-3 3.5-3 3.5l-1 1.7c-.4.9-1.7 1.9-2.7 2.8-1 1-1 .3-1.6.7-.6.3 1.2 2.2 1.2 2.2s3 4.3 6.3 4.5c3.3.1 8.2 4.7 10.2 5.2s.8-.8 1.7-1c.8-.4 1.3-1.4 1.3-1.4s-.4-2.4-.1-3c.3-.5.6-2.6.6-2.6l.1-2.3c.2-.3 0-2.6 0-3.2-.1-.7.4-1.6.4-1.6s-.2-.3.1-1.1c.3-.8-.2-3.2-.2-3.2-4.3-2.7-5-5.5-5-5.5l-.6.2c-3.4-1-7.2 3.3-7.7 4.1z" fill="#444053"/>
    <path d="M55 72.2s.4 3.4 6 4.8c-4.6-2.4-5.4-5-5.4-5l-.6.2zm1 4.8s-4.9 7.6-5 8c-.1.4 5.2-7.8 5-8zm-1-1s-3.3 4.8-4 5c0 0 3.2-4.6 4-5zm-1-1s-2.3 1.1-4 1l4-1zm-1-2s-2.4 1-3 1l3-1zm4.8 7l.2 5-1-1.5.8-3.5zm13.4-15c0 .2-.3.5-.2.7l.5.4c.4.3.8.7.9 1.1 0 .6-.6 1.2-.5 1.8 0 .2 0 .4.2.6l.4.2c.3.2.7.2 1 .2.7-.1 1.2-.5 1.4-1v-1.3a9.2 9.2 0 0 0-2-3.4s0-.2-.2-.2h-1.5c-.4.2.3.8 0 1V65z" fill="#000" fill-rule="nonzero" opacity=".1"/>
    <path d="M72.2 65c0 .2-.3.5-.2.7l.5.4c.4.3.8.7.9 1.1 0 .6-.6 1.2-.5 1.8 0 .2 0 .4.2.6l.4.2c.3.2.7.2 1 .2.7-.1 1.2-.5 1.4-1v-1.3a9.2 9.2 0 0 0-2-3.4s0-.2-.2-.2h-1.5c-.4.2.3.8 0 1V65z" fill="#925978"/>
    <path d="M77.3 81L76 82l.5.4 2.5 2s1 2 2.5 1.5c1.5-.6-.9-2.3-1-2.4l-.6-.2-2.2-2-.4-.3z" fill="#EFB7B9"/>
    <path d="M76.8 81l-.8.7.3.3c.3-.3.7-.6.7-.8l-.2-.2zM61 72l-3 2 2.2 3c.2-.2 3-2.6 4-2.2 1.2.4 3.4-.9 3.4-.9l1.2-2.4c.2-.4-.2-2.2-.2-2.2l.4-.3a2 2 0 0 0-.4 0c-.6.3-1 .7-1 1.5v.5c.2 1.3-.3 1.8-.3 1.8-.3.6-.9 1-1.5 1.2-1.1.4-4.7-2.1-4.7-2.1l-.1.1z" fill="#000" fill-rule="nonzero" opacity=".1"/>
    <path d="M61 71.7l-3 1.9 2.3 3.1s1.2-.6 1.6-1c.4-.5 2.3-1.2 2.3-1.2 2.3.8 3.3-.6 3.3-.6s2.8 4 3 4l1.6 1.2a7 7 0 0 0 1.5 1.5l.4.2-1 .6.7.6c.4.2 3.3-1.5 3.3-2l-.9-.6s-1.8-1.7-2.3-2c-.6-.2-2.4-3-2.4-3s-1-1.2-.9-1.5c.2-.2-.5-2.5-.8-2.5-.4 0-.6-.5-.6-.5.2-.6 0-.7-.3-.8a2 2 0 0 0-.6 0c-.6.3-1 .7-.9 1.6v.4c.2 1-.3 1.6-.3 1.6-.3.5-.9 1-1.5 1.1-1 .3-4.5-2-4.5-2v-.1z" fill="#4C4981"/>
    <path d="M77 80.7v.1c0 .5-3 2.4-3.4 2.2l-.6-.6 1-.7a3 3 0 0 0 2-1.7l.9.7h.1z" fill="#000" opacity=".1"/>
    <path d="M74 81.7l-1 .6c.1.3.4.5.6.7.5.2 3.4-1.7 3.4-2.1 0-.4-.6-.8-.9-.9a3 3 0 0 1-2.1 1.7z" fill="#4C4981"/>
    <path d="M74 81.7l-1 .6c.1.3.4.5.6.7.5.2 3.4-1.7 3.4-2.1 0-.4-.6-.8-.9-.9a3 3 0 0 1-2.1 1.7z" fill="#FFF" opacity=".1"/>
    <path d="M69 70.7l.5.3.5-2h-.4c-.4.3-.6.8-.6 1.7z" fill="#4C4981"/>
    <path d="M69 70.7l.5.3.5-2h-.4c-.4.3-.6.8-.6 1.7zm3.3-5.8c0 .2-.2.5-.1.7l.2.4c.3.3.6.7.6 1.1 0 .6-.4 1.2-.3 1.8 0 .2 0 .4.2.6l.2.2c.3.2.6.2.9 0-.1.2-.2.3-.4.3-.3 0-.7-.1-.9-.4l-.2-.6c0-.6.4-1.2.4-1.8 0-.4-.3-.8-.6-1.1a1 1 0 0 1-.3-.4l.1-.7c.2-.2-.2-.7 0-1h.1c-.1.2.3.7 0 .9h.1zM66 69.5s-.9 0-1 .5c0 0 .9-.8.7-1l.3.5z" fill="#000" fill-rule="nonzero" opacity=".1"/>
    <path d="M82 85.3s-2.3-.8-2 .3c.3 1 2-.3 2-.3z" fill="#EFB7B9"/>
    <path fill="#6C63FF" d="M76.8 75.8l2.3-1 12 26.2-2.3 1z"/>
    <path d="M48.2 32c-.4 1-1.5 2-1.1 3 .1.6.6 1 1 1.2 1.1.8 2.2 1.5 3 2.6a4 4 0 0 1 .7 3.8c-.3.9-1 1.6-1.3 2.4-.5 1-.5 2.2-.3 3.4.3 1 .7 2.1 1.3 3.1.2.4.4.8.8 1h.9c1 0 1.8.7 2.4 1.6.5 1 .7 2 .8 3 0 .6.1 1.2.4 1.6.4.6 1.1.8 1.8 1 1.8.3 3.6.4 5.4.2" stroke="#444053"/>
    <rect fill="#444053" x="61" y="58" width="4" height="2" rx="1"/>
  </g>
</svg>
