<?xml version="1.0" encoding="UTF-8"?>
<svg xmlns="http://www.w3.org/2000/svg" width="578.39" height="99.54" viewBox="0 0 578.39 99.54"><title>mutesix-logo</title><path d="M40.68,45C49.36,33,57.85,21.28,66.22,9.49c2.45-3.44,5.33-5.65,9.66-4.33s5.42,4.71,5.41,9q-.15,38,0,75.94c0,5.3-1.93,9-7.57,9s-7.52-4-7.52-9.09c0-17.74,0-35.48,0-54.73-6.48,9-12.08,16.73-17.64,24.5-5.22,7.3-10.43,7.56-15.75.11C27.2,52,21.57,44.2,15.07,35.15c0,19-.06,36.71,0,54.4,0,5.39-1.58,9.51-7.57,9.52S0,94.89,0,89.54Q.12,51.82,0,14.1c0-4,.91-7.45,5-8.83,4.37-1.5,7.52.42,10.14,4.15C23.41,21.25,32,32.91,40.68,45Z" fill="#9FA6B2"></path><path d="M311.74,59.37V84.15c11.67,0,23.13,0,34.58,0,5.24,0,9,2.06,9,7.66s-3.84,7.47-9.11,7.43q-20.49-.18-41,0c-5.82,0-8.75-2.72-8.76-8.41q-.08-38.74,0-77.48c0-5.7,2.79-8.59,8.61-8.56,14,.05,28,0,42,0,4.89,0,8.22,2.1,8.3,7.22.09,5.33-3.29,7.78-8.35,7.82-11.65.09-23.29,0-35.25,0V44.3c10.09,0,19.9,0,29.71,0,5.19,0,8.91,2.19,8.73,7.92-.16,5.48-3.85,7.19-8.86,7.15C331.68,59.32,322,59.37,311.74,59.37Z" fill="#9FA6B2"></path><path d="M409.19,99.21C396.14,99,385,93.84,374.94,86c-3.51-2.76-4.14-6.59-1.2-10.11s6.58-3.27,10.18-.59c12,9,24.8,13.74,39.46,6.65,4.67-2.26,8.53-5.77,8.44-11.41s-4.37-8.6-9-10.18C416.06,58,409,56.64,402.18,54.66c-15.34-4.44-29.7-10.36-26.8-30.34,2.14-14.76,22.06-25,39.89-21.82,8.21,1.49,15.38,5.21,22.23,9.71,3.91,2.57,5.29,6.17,2.63,10.24s-6.61,4.07-10.42,1.42c-10.74-7.48-21.93-11.4-34.42-4.35-3.73,2.11-6.64,5.1-6.44,9.92.18,4.6,3.57,6.93,7.1,8.16,7,2.46,14.33,4.09,21.48,6.2,15,4.43,29.49,10.1,28.08,29.39C444.4,88.49,428.31,99.25,409.19,99.21Z" fill="#9FA6B2"></path><path d="M181.24,38.77c-.49,10.13.68,20.51-1.24,30.35-3.85,19.8-22.53,32.21-42.82,29.88-18.71-2.16-33.61-18.66-33.89-38-.23-15.83,0-31.67-.05-47.5,0-5,2-8.64,7.43-8.64,5.67,0,7.64,3.58,7.6,8.92-.1,15.17-.45,30.35.09,45.5.52,15,8.54,24.52,23.86,24.57s23.49-9.14,23.92-24.34.13-30.33.08-45.49c0-5.2,1.76-9,7.47-9.16s7.66,3.55,7.58,8.87c-.12,8.33,0,16.67,0,25Z" fill="#9FA6B2"></path><path d="M245.3,19.84c0,23.56,0,46.5,0,69.43,0,5.19-.93,9.68-7.16,9.81-6.43.14-7.83-4.34-7.82-9.78,0-23,0-45.89,0-69.45-7,0-13.55.07-20.15,0-5.05-.08-8.39-2.43-8.35-7.8,0-5.2,3.32-7.25,8.21-7.25q28,0,55.95,0c4.9,0,8.09,2.27,8.07,7.41s-3.26,7.48-8.06,7.6C259.4,20,252.75,19.84,245.3,19.84Z" fill="#9FA6B2"></path><path d="M540.85,65.88Q529.72,80.49,518.6,95.13c-2.86,3.79-6.36,5.79-10.56,2.57s-4-7.22-1-11.39C515.1,75,523.09,63.6,531.12,52.24q4.62-6.47,9.25-12.94c6-7.76,11.9-15.53,17.94-23.43-1.14-1.35-2.07-2.43-3.95-4.63L578.39,0c-.73,9.58-1.35,17.64-2,26.34l-5.8-1.78L550.07,53.1Z" fill="#9FA6B2"></path><path d="M467.45,52V14c0-5.08,1.58-9.11,7.43-9.15s7.71,3.67,7.71,8.9q0,38.22,0,76.42c0,5.21-2,8.94-7.71,8.9S467.45,95,467.45,90Z" fill="#9FA6B2"></path><path d="M540.37,39.3q-4.62,6.48-9.25,12.94Q519,35.47,506.83,18.7c-3.19-4.41-2.76-8.56,1.62-11.72s7.77-1,10.54,2.8Q529.67,24.56,540.37,39.3Z" fill="#9FA6B2"></path><path d="M540.85,65.88l9.22-12.78q12.33,17.16,24.64,34.32c2.66,3.73,3.15,7.6-.91,10.45s-7.88,2.07-10.86-2Q551.85,80.92,540.85,65.88Z" fill="#9FA6B2"></path></svg>
