<?xml version="1.0" encoding="UTF-8"?>
<svg width="162px" height="162px" viewBox="0 0 162 162" version="1.1" xmlns="http://www.w3.org/2000/svg" xmlns:xlink="http://www.w3.org/1999/xlink">
    <!-- Generator: Sketch 51.3 (57544) - http://www.bohemiancoding.com/sketch -->
    <title>crea icon</title>
    <desc>Created with Sketch.</desc>
    <defs></defs>
    <g id="Comp" stroke="none" stroke-width="1" fill="none" fill-rule="evenodd" opacity="0.32" stroke-linecap="round" stroke-linejoin="round">
        <g id="Creative" transform="translate(-974.000000, -213.000000)" stroke="#FFFFFF" stroke-width="3">
            <g id="expertise" transform="translate(869.000000, 215.000000)">
                <g id="crea-icon" transform="translate(107.000000, 0.000000)">
                    <path d="M26.3613148,0 L26.3613148,5.27226295" id="Stroke-1"></path>
                    <path d="M5.27226295,26.3613148 L0,26.3613148" id="Stroke-3"></path>
                    <path d="M26.3613148,158.167889 L26.3613148,152.895626" id="Stroke-5"></path>
                    <path d="M5.27226295,131.806574 L0,131.806574" id="Stroke-7"></path>
                    <path d="M131.806574,0 L131.806574,5.27226295" id="Stroke-9"></path>
                    <path d="M152.895626,26.3613148 L158.167889,26.3613148" id="Stroke-11"></path>
                    <path d="M131.806574,158.167889 L131.806574,152.895626" id="Stroke-13"></path>
                    <path d="M152.895626,131.806574 L158.167889,131.806574" id="Stroke-15"></path>
                    <polygon id="Stroke-18" points="26.3613148 131.806574 131.806574 131.806574 131.806574 26.3613148 26.3613148 26.3613148"></polygon>
                    <path d="M73.8116814,94.9007332 L57.9948925,94.9007332 C52.1672845,94.9007332 47.4503666,90.1767856 47.4503666,84.3562073 L47.4503666,57.9948925 C47.4503666,52.1672845 52.1672845,47.4503666 57.9948925,47.4503666 L73.8116814,47.4503666 C79.6392893,47.4503666 84.3562073,52.1672845 84.3562073,57.9948925 L84.3562073,63.2671554" id="Stroke-19"></path>
                    <path d="M80.8413653,63.2671554 L103.687838,63.2671554 C107.575253,63.2671554 110.717522,66.4164539 110.717522,70.2968394 L110.717522,103.687838 C110.717522,107.575253 107.575253,110.717522 103.687838,110.717522 L80.8413653,110.717522 C76.9609798,110.717522 73.8116814,107.575253 73.8116814,103.687838 L73.8116814,70.2968394 C73.8116814,66.4164539 76.9609798,63.2671554 80.8413653,63.2671554 Z" id="Stroke-21"></path>
                </g>
            </g>
        </g>
    </g>
</svg>