<svg width="123px" height="24px" viewBox="0 0 123 24" version="1.1" xmlns="http://www.w3.org/2000/svg" xmlns:xlink="http://www.w3.org/1999/xlink">
    <g id="Comp" stroke="none" stroke-width="1" fill="none" fill-rule="evenodd">
        <g id="Landing" transform="translate(-248.000000, -2986.000000)" fill="#7D3F98">
            <g id="company-we-keep" transform="translate(241.000000, 2769.000000)">
                <path d="M127.511399,221.391333 L128.198828,221.391333 L128.507239,222.458667 C128.602493,222.766 128.744375,223.382667 128.744375,223.382667 L128.767689,223.382667 C128.767689,223.382667 128.910238,222.766 129.004826,222.458667 L129.312571,221.391333 L130,221.391333 L130,223.832667 L129.573021,223.832667 L129.573021,222.956 C129.573021,222.505333 129.597667,221.841333 129.597667,221.841333 L129.573021,221.841333 C129.573021,221.841333 129.430473,222.386667 129.265276,222.908667 L128.980846,223.832667 L128.531219,223.832667 L128.246788,222.908667 C128.080926,222.386667 127.939044,221.841333 127.939044,221.841333 L127.915064,221.841333 C127.915064,221.841333 127.939044,222.505333 127.939044,222.956 L127.939044,223.832667 L127.511399,223.832667 L127.511399,221.391333 Z M125.07209,221.391333 L127.061772,221.391333 L127.061772,221.794 L126.303734,221.794 L126.303734,223.832667 L125.830127,223.832667 L125.830127,221.794 L125.07209,221.794 L125.07209,221.391333 Z M14.2260869,219.681333 C14.9927839,219.681333 15.7614793,219.976 16.3463272,220.562667 L19.8314347,224.050667 L23.3118794,220.567333 C23.8987257,219.978 24.6660889,219.682667 25.4347842,219.682667 C26.1994829,219.682667 26.9641815,219.976 27.5490295,220.564 L31.7808506,224.799333 C32.9498804,225.969333 32.9532109,227.868 31.7835151,229.037333 L19.8314347,241 L7.87935438,229.037333 C6.70766017,227.867333 6.70766017,225.967333 7.87469159,224.799333 L12.1098433,220.562 C12.693359,219.974 13.4607221,219.681333 14.2260869,219.681333 Z M85.546894,236.403333 L85.8026817,240.546 C85.3137541,240.687333 83.832317,240.977333 81.8213194,240.977333 C77.6900814,240.977333 75.4905736,239.236667 75.4905736,234.988 C75.4905736,231.658667 75.5538544,228.007333 75.586494,226.007333 L73.444938,226.007333 C73.4822404,225.104 73.4316158,223.814667 73.444938,222.866 C76.6589372,222.332 77.6727625,220.521333 78.1423727,217 L81.6754404,217 C81.5515433,218.450667 81.4423006,220.555333 81.4403023,221.980667 L85.1931875,221.980667 L85.1931875,226.008667 L81.3810181,226.008667 L81.3810181,233.255333 C81.3810181,236.064667 81.9485471,236.83 83.8782789,236.83 C84.4777813,236.83 85.1865264,236.644 85.546894,236.403333 Z M105.269192,231.904667 C105.269192,230.33 105.301832,228.235333 105.301832,228.235333 C105.301832,223.522 103.235547,221.405333 97.3970589,221.405333 C94.1197789,221.405333 91.7843838,221.980667 88.1240884,221.980667 C88.3292514,225.289333 88.3365787,229.376667 88.3212581,231.904667 C88.3372448,234.481333 88.2359955,239.091333 88.1240884,240.577333 L94.3975484,240.577333 C94.2543339,239.086 94.1284384,234.797333 94.1450912,231.904667 C94.1450912,230.258667 94.167073,228.264667 94.2303538,225.589333 C94.8538363,225.374 95.6485101,225.214667 96.5091292,225.214667 C98.7059726,225.214667 99.4133854,226.246 99.4133854,229.08 C99.4133854,229.08 99.446025,230.856667 99.446025,231.904667 C99.446025,234.481333 99.3614286,239.091333 99.2488553,240.577333 L105.524314,240.577333 C105.378435,239.086 105.252539,234.797333 105.269192,231.904667 Z M60.8953536,229.421333 C60.8953536,226.809333 61.7239992,224.891333 64.1186784,224.891333 C65.4748861,224.891333 66.3528242,225.603333 66.3528242,226.897333 C66.3528242,228.718 65.1424953,229.562667 62.6212545,229.562667 C62.0117604,229.562667 61.3676283,229.552667 60.8953536,229.514 L60.8953536,229.421333 Z M43.6190255,237.348 C41.6193518,237.348 40.76606,236.68 40.76606,235.005333 C40.76606,233.394667 41.8484949,232.477333 44.5795616,232.477333 C44.833351,232.477333 45.1404294,232.467333 45.360247,232.491333 C45.3455925,234.053333 45.3116207,235.874667 45.3995477,237.138667 C44.9266069,237.265333 44.2285196,237.348 43.6190255,237.348 Z M65.9091924,237.168 C62.6752097,237.168 60.9286593,235.479333 60.9286593,232.814 L60.9286593,232.686667 C61.5048477,232.716 62.6505635,232.730667 63.3240046,232.730667 C69.0985453,232.730667 72.0640841,230.92 72.0640841,227.019333 C72.0640841,223.651333 69.6207786,221.415333 64.3091869,221.415333 C57.8758596,221.415333 55.3006636,224.290667 54.7198123,229.435333 C53.7785935,229.376667 52.7547766,229.352667 51.3546053,229.348 C51.3546053,229.07 51.3592681,228.786667 51.3592681,228.498667 C51.3592681,223.28 49.199061,221.391333 43.4485003,221.391333 C40.6388322,221.391333 38.156226,221.810667 36.6441476,222.426 L36.868628,226.59 C38.185535,225.886667 40.1512369,225.213333 42.0196862,225.213333 C44.6535002,225.213333 45.4528368,226.296667 45.4528368,228.908667 L45.448174,229.294 C45.2676572,229.289333 44.804042,229.284667 44.5509187,229.284667 C37.9956926,229.284667 34.9615441,231.271333 34.9615441,234.952 C34.9615441,238.744667 36.8493107,240.975333 42.2195203,240.975333 C45.0525024,240.975333 47.8481821,240.575333 51.452524,240.575333 C51.188743,239.057333 51.1794174,236.870667 51.1794174,235.366667 C51.1794174,234.576 51.218052,233.628667 51.2620155,232.554667 C52.798074,232.57 53.9344641,232.608667 54.6811777,232.642667 C55.23272,238.744667 58.392764,241 64.9679735,241 C67.3966245,241 69.8545845,240.585333 71.1421825,239.984667 L70.9177022,235.820667 C69.6400959,236.562667 67.8602397,237.168 65.9091924,237.168 Z M116.331344,237.348 C114.327008,237.348 113.478379,236.68 113.478379,235.005333 C113.478379,233.394667 114.56148,232.477333 117.293213,232.477333 C117.541673,232.477333 117.848752,232.467333 118.068569,232.491333 C118.058577,234.053333 118.019277,235.874667 118.111867,237.138667 C117.638926,237.265333 116.936176,237.348 116.331344,237.348 Z M123.891736,235.366667 C123.891736,233.682667 124.066924,231.290667 124.066924,228.498667 C124.066924,223.28 121.91138,221.391333 116.160819,221.391333 C113.347154,221.391333 110.869211,221.810667 109.357133,222.426 L109.580947,226.59 C110.89852,225.886667 112.858893,225.213333 114.732005,225.213333 C117.365819,225.213333 118.160493,226.296667 118.160493,228.908667 L118.160493,229.294 C117.975313,229.289333 117.517027,229.284667 117.263904,229.284667 C110.703349,229.284667 107.674529,231.271333 107.674529,234.952 C107.674529,238.744667 109.56163,240.975333 114.932505,240.975333 C117.766154,240.975333 120.560501,240.575333 124.16018,240.575333 C123.901062,239.057333 123.891736,236.870667 123.891736,235.366667 Z" id="aetna-logo"></path>
            </g>
        </g>
    </g>
</svg>
