<svg width="124px" height="38px" viewBox="0 0 124 38" version="1.1" xmlns="http://www.w3.org/2000/svg" xmlns:xlink="http://www.w3.org/1999/xlink">
    <defs>
        <polygon id="path-1" points="0 37.8500403 123.801803 37.8500403 123.801803 0 0 0"></polygon>
    </defs>
    <g id="Comp" stroke="none" stroke-width="1" fill="none" fill-rule="evenodd">
        <g id="Landing" transform="translate(-795.000000, -2977.000000)">
            <g id="company-we-keep" transform="translate(241.000000, 2769.000000)">
                <g id="carefree-logo" transform="translate(554.000000, 208.000000)">
                    <path d="M44.859541,27.7951638 L44.2441148,29.1644389 C42.3625164,30.2026805 40.2580738,30.7219289 37.9305328,30.7219289 C33.2757049,30.7219289 30.0921066,29.0392174 28.3799918,25.6740497 C27.5861885,24.1165597 27.1892869,22.4295128 27.1892869,20.6123987 C27.1892869,17.6769624 28.1612131,15.3360094 30.1055738,13.5908148 C32.0938934,11.7918081 34.8091885,10.8923047 38.2517131,10.8923047 C40.4361967,10.8923047 42.5721475,11.2906671 44.6588033,12.0871369 L44.8328607,12.2886134 C44.5294672,13.5237409 44.3421967,14.9692711 44.2710492,16.624949 L44.1506066,16.7593517 L43.361377,16.7593517 L43.2274672,16.6114322 C43.2007869,15.5288148 43.1517459,14.7769758 43.0805984,14.3561705 C41.9656148,13.0940094 40.3559016,12.4630564 38.2517131,12.4630564 C36.0845082,12.4630564 34.3858607,13.1524121 33.1552623,14.5306134 C31.9246639,15.9090698 31.3092377,17.7797409 31.3092377,20.1423718 C31.3092377,23.3376872 32.4061803,25.790345 34.5998115,27.4998349 C35.7679016,28.412855 37.3328934,28.8691101 39.295041,28.8691101 C41.0783033,28.8691101 42.8216721,28.4082644 44.5251475,27.4863181 L44.859541,27.7951638 Z" id="Fill-1" fill="#9FA6B2"></path>
                    <path d="M52.4117762,27.2960631 L52.4117762,24.3639423 C51.1054566,24.6500899 50.2247516,24.9579154 49.7694074,25.2874188 C49.3140631,25.6174322 49.0866451,26.1201034 49.0866451,26.7951772 C49.0866451,27.8760094 49.5574893,28.4164255 50.4996861,28.4164255 C51.2993336,28.4164255 51.9366123,28.0430564 52.4117762,27.2960631 Z M56.7700713,30.0733785 L56.6392107,30.2042107 C55.9742352,30.1644255 55.2101615,30.1447879 54.3472434,30.1447879 C53.674391,30.1447879 53.0292352,30.1644255 52.4117762,30.2042107 L52.3048008,30.0733785 L52.4117762,28.4758483 L50.1078664,30.2399154 C49.9256779,30.3748282 49.6642107,30.4582242 49.324227,30.4901034 C49.1893008,30.5061705 49.0309975,30.5140765 48.8490631,30.5140765 C47.970391,30.5140765 47.2952516,30.2478215 46.8244074,29.7155664 C46.353309,29.1833114 46.1177598,28.4483047 46.1177598,27.5105463 C46.1177598,26.2708282 46.5095795,25.3930027 47.293473,24.8763047 C48.1403828,24.3124255 49.8466533,23.8036336 52.4117762,23.350694 C52.4117762,22.0872577 52.0791615,21.2410564 51.4141861,20.8118349 C51.0104238,20.5496604 50.5273828,20.4185732 49.9653172,20.4185732 C49.3478582,20.4185732 48.8607516,20.5455799 48.5047598,20.7998483 L48.0534811,21.9084792 L47.8989893,21.9918752 L47.293473,21.8490564 L47.2101287,21.6820094 L47.2695877,20.2754993 C48.5759074,19.3061168 49.5574893,18.7577946 50.2148418,18.6305329 C50.491809,18.5751906 50.8518664,18.5471369 51.295268,18.5471369 C52.8549238,18.5471369 53.9673664,18.9564658 54.6323418,19.7748685 C55.1151287,20.3708819 55.3567762,21.2849221 55.3567762,22.5164792 C55.3567762,22.8184389 55.3448336,23.3032577 55.3212025,23.9706805 C55.281309,25.0828819 55.2617434,25.8257946 55.2617434,26.1994188 C55.2617434,27.3990966 55.281309,28.1641973 55.3212025,28.4937007 C55.3605877,28.8234591 55.4535877,29.0323315 55.6002025,29.119553 C55.7465631,29.2070295 56.0969648,29.2585463 56.6511533,29.2746134 L56.7700713,29.4057007 L56.7700713,30.0733785 Z" id="Fill-3" fill="#9FA6B2"></path>
                    <path d="M66.2825992,18.6306349 L66.199509,20.7522591 C66.1918861,21.1019101 66.1758779,21.4992523 66.1517385,21.9440309 L65.6529434,22.0993463 C65.2811975,21.5589302 64.7663943,21.2885946 64.1092959,21.2885946 C63.5157221,21.2885946 63.0248041,21.527051 62.6367959,22.0039638 C62.399468,22.2980174 62.28055,22.7308094 62.28055,23.3031047 L62.28055,26.0921517 C62.28055,26.672098 62.3082467,27.4787691 62.3636402,28.511655 C62.3796484,28.8054537 62.4627385,28.9964738 62.6131648,29.0836953 C62.7633369,29.1711718 63.3134598,29.2308497 64.2637877,29.2624738 L64.3821975,29.369843 L64.3821975,30.0969436 L64.2637877,30.2160443 C63.1000172,30.168353 61.9441238,30.1446349 60.7961074,30.1446349 C59.3790008,30.1446349 58.2983205,30.1724336 57.5540664,30.2282859 L57.4354025,30.1089302 L57.4354025,29.3818295 L57.5540664,29.2624738 C58.3143287,29.2387557 58.785173,29.1790779 58.9673615,29.0836953 C59.1256648,29.0122859 59.2128205,28.8215208 59.2285746,28.511655 C59.283968,27.4787691 59.3116648,26.3703933 59.3116648,25.1862725 L59.3116648,23.4816282 C59.3116648,21.8927691 59.2524598,20.9787289 59.1337959,20.7402725 C59.0545172,20.5813866 58.8842713,20.4821785 58.6228041,20.4423933 C58.5280254,20.4265812 58.183468,20.4066886 57.5898943,20.3827154 L57.4709762,20.2636148 L57.4709762,19.5961919 L57.5898943,19.4648497 C59.0148779,19.3299369 60.5150746,19.0001785 62.0904844,18.4755745 L62.3516975,18.6306349 L62.3283205,20.9667423 C62.8189844,20.394702 63.4125582,19.7272792 64.1092959,18.9644738 C64.4340336,18.646702 64.8774352,18.4875611 65.4395008,18.4875611 C65.7721156,18.4875611 66.0531484,18.5352523 66.2825992,18.6306349" id="Fill-5" fill="#9FA6B2"></path>
                    <path d="M74.025891,23.1480188 C74.025891,21.0026765 73.3609156,19.9300054 72.0307107,19.9300054 C70.6296123,19.9300054 69.9290631,20.9947705 69.9290631,23.1243007 L69.9290631,23.3864752 C70.3882189,23.4581396 71.2036205,23.4935893 72.375268,23.4935893 C72.9845959,23.4935893 73.5311615,23.4581396 74.0139484,23.3864752 C74.0218254,23.2752805 74.025891,23.1957101 74.025891,23.1480188 M77.1253828,23.4581396 C77.1253828,23.5930523 77.1213172,23.795804 77.1134402,24.0661396 L76.9828336,24.2326765 C75.937727,24.5188242 74.5523828,24.661898 72.8262926,24.661898 C72.5175631,24.661898 72.0505303,24.6677638 71.4251943,24.6797503 C70.7998582,24.6917369 70.3285057,24.6976027 70.0121533,24.6976027 C70.0596697,25.8656564 70.419727,26.8309584 71.0925795,27.5940188 C71.7971943,28.4124215 72.7155057,28.8214953 73.8480221,28.8214953 C74.6077762,28.8214953 75.5103336,28.5593208 76.5554402,28.0349718 L76.8402844,28.3805423 L76.3178582,29.5608376 C75.1619648,30.2994148 73.907227,30.6689584 72.553391,30.6689584 C70.7719074,30.6689584 69.3885959,30.164502 68.4026943,29.1553342 C67.4173008,28.1464215 66.9246041,26.7080322 66.9246041,24.8406765 C66.9246041,22.6234148 67.4508418,21.1059651 68.5040795,20.2875624 C69.9605713,19.1590389 71.34185,18.5949047 72.6484238,18.5949047 C74.0655303,18.5949047 75.1619648,19.0042336 75.937727,19.8226362 C76.7294975,20.6650121 77.1253828,21.8769315 77.1253828,23.4581396" id="Fill-7" fill="#9FA6B2"></path>
                    <path d="M91.3876951,11.7914255 L91.2182115,13.2828617 C91.1834,13.6141503 91.1442689,14.0502577 91.100818,14.5909289 L91.0225557,15.6373315 L90.8924574,15.7811705 L90.1365148,15.7811705 L90.0061623,15.6503383 C89.9886295,14.4731034 89.9192607,13.8016 89.7975475,13.6358282 C89.5975721,13.3657477 88.385523,13.2303248 86.1614,13.2303248 C85.8049,13.2303248 85.244359,13.2565933 84.479777,13.3088752 C84.3842361,14.1984322 84.3367197,15.7944322 84.3367197,18.0966201 L84.3367197,19.8627275 L85.8094738,19.9017477 C86.2526213,19.9104188 87.0736131,19.8933315 88.2727033,19.8494658 C88.5072361,19.8410497 88.6635066,19.775506 88.742023,19.653345 C88.8723754,19.4439624 88.9503836,18.8686067 88.9765557,17.9265128 L89.1066541,17.7956805 L89.914941,17.7956805 L90.0452934,17.9265128 C90.010482,18.9032913 89.9932033,19.7971839 89.9932033,20.6084456 C89.9932033,21.4893315 90.010482,22.4528483 90.0452934,23.499506 L89.914941,23.6170765 L89.041859,23.6170765 L88.9112525,23.4862443 C88.9112525,22.5704188 88.8723754,22.0343383 88.7941131,21.8772376 C88.6462279,21.5719624 88.1987607,21.3888483 87.4517115,21.3278953 C86.9386869,21.2842846 86.4350639,21.2623517 85.9398262,21.2623517 C85.3401541,21.2623517 84.8057852,21.2756134 84.3367197,21.3018819 L84.3367197,24.4150765 C84.3367197,26.4818685 84.3931295,27.8338013 84.5059492,28.4701101 C84.5494,28.7231034 84.6970311,28.8845396 84.9490967,28.9541638 C85.0098262,28.9717611 85.6313508,29.0153718 86.8129082,29.084996 L86.9432607,29.2158282 L86.9432607,30.0921235 L86.7999492,30.2232107 L81.560441,30.1446604 C80.8131377,30.1359893 79.7792115,30.1620027 78.4584082,30.2232107 L78.3280557,30.1053852 L78.3280557,29.2158282 L78.4584082,29.084996 C79.3447033,29.0327141 79.8529,28.9891034 79.9835066,28.9541638 C80.235318,28.8845396 80.3829492,28.7231034 80.4266541,28.4701101 C80.5394738,27.8338013 80.5958836,26.4818685 80.5958836,24.4150765 L80.5958836,17.494996 C80.5958836,15.427949 80.5394738,14.0762711 80.4266541,13.4397074 C80.3829492,13.1869691 80.235318,13.0255329 79.9835066,12.9556537 C79.8529,12.9209691 79.3447033,12.8771034 78.4584082,12.8248215 L78.3280557,12.6939893 L78.3280557,11.8044322 L78.4584082,11.6868617 C79.2926131,11.7391436 80.6306951,11.765157 82.4729082,11.765157 C83.663359,11.765157 86.5913344,11.7391436 91.2573426,11.6868617 L91.3876951,11.7914255 Z" id="Fill-9" fill="#9FA6B2"></path>
                    <path d="M101.285385,18.6306349 L101.202041,20.7522591 C101.194418,21.1019101 101.17841,21.4992523 101.154525,21.9440309 L100.65573,22.0993463 C100.28373,21.5589302 99.7691803,21.2885946 99.112082,21.2885946 C98.5182541,21.2885946 98.0273361,21.527051 97.6393279,22.0039638 C97.402,22.2980174 97.2833361,22.7308094 97.2833361,23.3031047 L97.2833361,26.0921517 C97.2833361,26.672098 97.3107787,27.4787691 97.3664262,28.511655 C97.3821803,28.8054537 97.4652705,28.9964738 97.6159508,29.0836953 C97.7658689,29.1711718 98.3162459,29.2308497 99.2665738,29.2624738 L99.3849836,29.369843 L99.3849836,30.0969436 L99.2665738,30.2160443 C98.1028033,30.168353 96.9466557,30.1446349 95.7988934,30.1446349 C94.3815328,30.1446349 93.3008525,30.1724336 92.5568525,30.2282859 L92.4381885,30.1089302 L92.4381885,29.3818295 L92.5568525,29.2624738 C93.3171148,29.2387557 93.7877049,29.1790779 93.9698934,29.0836953 C94.1281967,29.0122859 94.2153525,28.8215208 94.2313607,28.511655 C94.2865,27.4787691 94.3144508,26.3703933 94.3144508,25.1862725 L94.3144508,23.4816282 C94.3144508,21.8927691 94.2549918,20.9787289 94.1363279,20.7402725 C94.0570492,20.5813866 93.8870574,20.4821785 93.6255902,20.4423933 C93.5305574,20.4265812 93.1862541,20.4066886 92.5924262,20.3827154 L92.4737623,20.2636148 L92.4737623,19.5961919 L92.5924262,19.4648497 C94.0174098,19.3299369 95.5178607,19.0001785 97.0932705,18.4755745 L97.3544836,18.6306349 L97.3308525,20.9667423 C97.8215164,20.394702 98.4153443,19.7272792 99.112082,18.9644738 C99.4365656,18.646702 99.8799672,18.4875611 100.442287,18.4875611 C100.774648,18.4875611 101.05568,18.5352523 101.285385,18.6306349" id="Fill-11" fill="#9FA6B2"></path>
                    <path d="M109.028448,23.1480188 C109.028448,21.0026765 108.363473,19.9300054 107.033522,19.9300054 C105.63217,19.9300054 104.93162,20.9947705 104.93162,23.1243007 L104.93162,23.3864752 C105.390776,23.4581396 106.206178,23.4935893 107.377825,23.4935893 C107.987153,23.4935893 108.533719,23.4581396 109.016506,23.3864752 C109.024383,23.2752805 109.028448,23.1957101 109.028448,23.1480188 M112.12794,23.4581396 C112.12794,23.5930523 112.123875,23.795804 112.115998,24.0661396 L111.985645,24.2326765 C110.940284,24.5188242 109.55494,24.661898 107.82885,24.661898 C107.52012,24.661898 107.053088,24.6677638 106.427752,24.6797503 C105.802416,24.6917369 105.331063,24.6976027 105.014711,24.6976027 C105.062227,25.8656564 105.422539,26.8309584 106.095137,27.5940188 C106.799752,28.4124215 107.718063,28.8214953 108.85058,28.8214953 C109.610588,28.8214953 110.512891,28.5593208 111.557998,28.0349718 L111.842842,28.3805423 L111.32067,29.5608376 C110.164522,30.2994148 108.909784,30.6689584 107.555948,30.6689584 C105.774465,30.6689584 104.391153,30.164502 103.405506,29.1553342 C102.419858,28.1464215 101.927161,26.7080322 101.927161,24.8406765 C101.927161,22.6234148 102.453399,21.1059651 103.506637,20.2875624 C104.963129,19.1590389 106.344407,18.5949047 107.650981,18.5949047 C109.068088,18.5949047 110.164522,19.0042336 110.940284,19.8226362 C111.732055,20.6650121 112.12794,21.8769315 112.12794,23.4581396" id="Fill-13" fill="#9FA6B2"></path>
                    <path d="M120.702311,23.1480188 C120.702311,21.0026765 120.037336,19.9300054 118.707385,19.9300054 C117.306033,19.9300054 116.605484,20.9947705 116.605484,23.1243007 L116.605484,23.3864752 C117.064639,23.4581396 117.880041,23.4935893 119.051689,23.4935893 C119.66127,23.4935893 120.207582,23.4581396 120.690623,23.3864752 C120.698246,23.2752805 120.702311,23.1957101 120.702311,23.1480188 M123.801803,23.4581396 C123.801803,23.5930523 123.797992,23.795804 123.789861,24.0661396 L123.659508,24.2326765 C122.614148,24.5188242 121.228803,24.661898 119.502967,24.661898 C119.194238,24.661898 118.726951,24.6677638 118.101869,24.6797503 C117.476279,24.6917369 117.004926,24.6976027 116.688574,24.6976027 C116.73609,25.8656564 117.096402,26.8309584 117.769254,27.5940188 C118.473615,28.4124215 119.391926,28.8214953 120.524443,28.8214953 C121.284451,28.8214953 122.186754,28.5593208 123.231861,28.0349718 L123.516705,28.3805423 L122.994533,29.5608376 C121.838385,30.2994148 120.583648,30.6689584 119.229811,30.6689584 C117.448328,30.6689584 116.065016,30.164502 115.079369,29.1553342 C114.093721,28.1464215 113.601025,26.7080322 113.601025,24.8406765 C113.601025,22.6234148 114.127516,21.1059651 115.1805,20.2875624 C116.636992,19.1590389 118.018525,18.5949047 119.324844,18.5949047 C120.741951,18.5949047 121.838385,19.0042336 122.614148,19.8226362 C123.405918,20.6650121 123.801803,21.8769315 123.801803,23.4581396" id="Fill-15" fill="#9FA6B2"></path>
                    <mask id="mask-2" fill="white">
                        <use xlink:href="#path-1"></use>
                    </mask>
                    <g id="Clip-18"></g>
                    <polygon id="Fill-17" fill="#9FA6B2" mask="url(#mask-2)" points="33.1168934 37.7895973 33.8037213 37.7895973 33.8037213 34.3759732 33.1168934 34.3759732"></polygon>
                    <polygon id="Fill-19" fill="#9FA6B2" mask="url(#mask-2)" points="36.4127525 37.7895463 36.4127525 34.3759221 37.080777 34.3759221 38.4727279 36.6556671 38.4727279 34.3759221 39.1107689 34.3759221 39.1107689 37.7895463 38.4216541 37.7895463 37.0505393 35.5633584 37.0505393 37.7895463"></polygon>
                    <path d="M41.6106139,36.6787477 L42.2788926,36.6137141 C42.3190402,36.8386537 42.4006057,37.0039154 42.5235893,37.1094993 C42.646573,37.2150832 42.8122451,37.2681302 43.0211139,37.2681302 C43.2421795,37.2681302 43.408868,37.220949 43.5211795,37.1270966 C43.6329828,37.0332443 43.6891385,36.9233248 43.6891385,36.7975933 C43.6891385,36.7167477 43.6655074,36.6481436 43.6184992,36.5915262 C43.5712369,36.5349087 43.488909,36.4856872 43.3715156,36.4436067 C43.2909664,36.4158081 43.1077615,36.3658215 42.8216467,36.2944121 C42.4534582,36.2031101 42.1952943,36.0903852 42.0466467,35.9570027 C41.838032,35.769298 41.7335975,35.5400228 41.7335975,35.2701973 C41.7335975,35.0962644 41.7826385,34.9338081 41.8809746,34.7820631 C41.9790566,34.6310832 42.1205893,34.5158081 42.3053189,34.4364926 C42.4903025,34.3574322 42.7134008,34.317902 42.974868,34.317902 C43.4014992,34.317902 43.7229336,34.4117544 43.9386631,34.5997141 C44.1543926,34.7874188 44.2677205,35.0378617 44.2786467,35.3518081 L43.5918189,35.381902 C43.5623434,35.206694 43.499327,35.0801973 43.4027697,35.0036872 C43.3062123,34.9266671 43.1611221,34.888157 42.9677533,34.888157 C42.7682861,34.888157 42.6120156,34.9294725 42.4991959,35.0118483 C42.4265238,35.0643852 42.3901877,35.1350295 42.3901877,35.2235262 C42.3901877,35.3043718 42.4242369,35.3734859 42.4923352,35.4306134 C42.5789828,35.5038081 42.7891221,35.579553 43.1232615,35.6588685 C43.4574008,35.7381839 43.7043844,35.8200497 43.8644664,35.9047208 C44.0245484,35.9891369 44.1498189,36.1049221 44.2402779,36.2515664 C44.3307369,36.3979557 44.3759664,36.5792846 44.3759664,36.795298 C44.3759664,36.9909087 44.3218434,37.1737678 44.2135975,37.3446403 C44.1053516,37.5152577 43.9521303,37.6422644 43.7541877,37.7254054 C43.5562451,37.8085463 43.3095156,37.8501168 43.0139992,37.8501168 C42.5843189,37.8501168 42.253991,37.7501436 42.0235238,37.5507074 C41.7930566,37.3515262 41.6555893,37.0605329 41.6106139,36.6787477" id="Fill-20" fill="#9FA6B2" mask="url(#mask-2)"></path>
                    <path d="M46.896927,34.3759732 L47.5835008,34.3759732 L47.5835008,36.2249664 C47.5835008,36.518 47.5921402,36.7085101 47.6091648,36.7952215 C47.6383861,36.9347248 47.7085172,37.0471946 47.81905,37.1316107 C47.9295828,37.2162819 48.0807713,37.2586174 48.2726156,37.2586174 C48.467509,37.2586174 48.6143779,37.2185772 48.7132221,37.1387517 C48.8123205,37.0589262 48.8717795,36.9604832 48.8921074,36.8441879 C48.911927,36.7276376 48.922091,36.5345772 48.922091,36.2644966 L48.922091,34.3759732 L49.6086648,34.3759732 L49.6086648,36.1688591 C49.6086648,36.578698 49.5903697,36.8681611 49.5532713,37.0375034 C49.5159189,37.2068456 49.4475664,37.3491544 49.3479598,37.4657047 C49.2480992,37.582255 49.1146975,37.6750872 48.9477549,37.7439463 C48.7805582,37.8130604 48.5625418,37.8474899 48.2934516,37.8474899 C47.9687139,37.8474899 47.7224926,37.81 47.5545336,37.7347651 C47.3868287,37.6595302 47.2541893,37.5615973 47.1566156,37.4414765 C47.0592959,37.3211007 46.995009,37.1951141 46.9642631,37.0627517 C46.9192877,36.867396 46.896927,36.578698 46.896927,36.1969128 L46.896927,34.3759732 Z" id="Fill-21" fill="#9FA6B2" mask="url(#mask-2)"></path>
                    <path d="M52.9693443,35.8197436 L53.477541,35.8197436 C53.8068525,35.8197436 54.012418,35.8057168 54.0944918,35.7776631 C54.1765656,35.7498644 54.2405984,35.7016631 54.2870984,35.6335691 C54.3335984,35.5649651 54.3567213,35.4797839 54.3567213,35.3775154 C54.3567213,35.2622403 54.3262295,35.1696631 54.2652459,35.0990188 C54.2040082,35.0283745 54.1178689,34.9837436 54.0065738,34.9648711 C53.9506721,34.9572201 53.7837295,34.9536497 53.5052377,34.9536497 L52.9693443,34.9536497 L52.9693443,35.8197436 Z M52.2827705,37.7896228 L52.2827705,34.3759987 L53.728082,34.3759987 C54.0914426,34.3759987 54.3557049,34.4066027 54.5203607,34.4678107 C54.6850164,34.5292738 54.8168934,34.6384282 54.9157377,34.7950188 C55.0148361,34.9521195 55.0643852,35.131153 55.0643852,35.3331396 C55.0643852,35.5891933 54.9891721,35.8006161 54.8392541,35.9674081 C54.6893361,36.1342 54.4649672,36.2395289 54.1664016,36.2828846 C54.3147951,36.369851 54.4375246,36.4654886 54.534082,36.5692872 C54.6308934,36.6733409 54.7612459,36.8579852 54.9251393,37.1234752 L55.3403361,37.7896228 L54.5190902,37.7896228 L54.022582,37.0469651 C53.8462377,36.7814752 53.7257951,36.6139181 53.6607459,36.5450591 C53.5956967,36.4756899 53.5270902,36.4285087 53.454418,36.4027503 C53.3817459,36.377502 53.2663852,36.3644953 53.1085902,36.3644953 L52.9693443,36.3644953 L52.9693443,37.7896228 L52.2827705,37.7896228 Z" id="Fill-22" fill="#9FA6B2" mask="url(#mask-2)"></path>
                    <path d="M59.4620148,36.4389141 L58.9934574,35.1721624 L58.5340475,36.4389141 L59.4620148,36.4389141 Z M60.7261541,37.7895718 L59.979359,37.7895718 L59.682318,37.0140148 L58.3228918,37.0140148 L58.0421131,37.7895718 L57.3138672,37.7895718 L58.638482,34.3759477 L59.3646951,34.3759477 L60.7261541,37.7895718 Z" id="Fill-23" fill="#9FA6B2" mask="url(#mask-2)"></path>
                    <polygon id="Fill-24" fill="#9FA6B2" mask="url(#mask-2)" points="63.0453098 37.7895463 63.0453098 34.3759221 63.7133344 34.3759221 65.1052852 36.6556671 65.1052852 34.3759221 65.7433262 34.3759221 65.7433262 37.7895463 65.0542115 37.7895463 63.6833508 35.5633584 63.6833508 37.7895463"></polygon>
                    <path d="M70.593327,36.5345517 L71.2590648,36.7464846 C71.1571713,37.1188336 70.9874336,37.395545 70.7498516,37.5763638 C70.5125238,37.7571826 70.2114172,37.8474644 69.846532,37.8474644 C69.3947451,37.8474644 69.0235074,37.6929141 68.7328189,37.3830483 C68.4421303,37.0734376 68.2967861,36.6500819 68.2967861,36.1129812 C68.2967861,35.5450215 68.4428926,35.1038134 68.7353598,34.789357 C69.0273189,34.4751557 69.4117697,34.318055 69.8882041,34.318055 C70.3041631,34.318055 70.6418598,34.4412362 70.9018025,34.6881087 C71.0565484,34.8339879 71.1724172,35.0436255 71.2499172,35.3167664 L70.5702041,35.4797329 C70.5298025,35.3027396 70.44595,35.1629812 70.3183926,35.0607128 C70.1908352,34.9581893 70.0358352,34.9069275 69.8533926,34.9069275 C69.601327,34.9069275 69.3965238,34.9979745 69.2397451,35.1795584 C69.0829664,35.3608872 69.0041959,35.655196 69.0041959,36.0617195 C69.0041959,36.4934913 69.0816959,36.8005517 69.2361877,36.9839208 C69.3909336,37.1670349 69.5921795,37.2585919 69.8394172,37.2585919 C70.0218598,37.2585919 70.1788926,37.2004443 70.3105156,37.083894 C70.4416303,36.9675987 70.5361549,36.7842295 70.593327,36.5345517" id="Fill-25" fill="#9FA6B2" mask="url(#mask-2)"></path>
                    <polygon id="Fill-26" fill="#9FA6B2" mask="url(#mask-2)" points="73.7963639 37.7895463 73.7963639 34.3759221 76.3180361 34.3759221 76.3180361 34.9535732 74.4829377 34.9535732 74.4829377 35.7102577 76.1904787 35.7102577 76.1904787 36.2853584 74.4829377 36.2853584 74.4829377 37.2144456 76.3830852 37.2144456 76.3830852 37.7895463"></polygon>
                    <path d="M82.0071713,36.6787477 L82.6751959,36.6137141 C82.7153434,36.8386537 82.796909,37.0039154 82.9198926,37.1094993 C83.0428762,37.2150832 83.2088025,37.2681302 83.4176713,37.2681302 C83.6387369,37.2681302 83.8051713,37.220949 83.9177369,37.1270966 C84.0297943,37.0332443 84.0856959,36.9233248 84.0856959,36.7975933 C84.0856959,36.7167477 84.0620648,36.6481436 84.0148025,36.5915262 C83.9677943,36.5349087 83.8854664,36.4856872 83.7678189,36.4436067 C83.6872697,36.4158081 83.5043189,36.3658215 83.21795,36.2944121 C82.8497615,36.2031101 82.5918516,36.0903852 82.4432041,35.9570027 C82.2345893,35.769298 82.1299008,35.5400228 82.1299008,35.2701973 C82.1299008,35.0962644 82.1791959,34.9338081 82.2772779,34.7820631 C82.3756139,34.6310832 82.5171467,34.5158081 82.7016221,34.4364926 C82.8866057,34.3574322 83.1097041,34.317902 83.3711713,34.317902 C83.7980566,34.317902 84.119491,34.4117544 84.3349664,34.5997141 C84.55095,34.7874188 84.6640238,35.0378617 84.67495,35.3518081 L83.9881221,35.381902 C83.9589008,35.206694 83.8958844,35.0801973 83.799327,35.0036872 C83.7025156,34.9266671 83.5576795,34.888157 83.3643107,34.888157 C83.1648434,34.888157 83.0083189,34.9294725 82.8954992,35.0118483 C82.822827,35.0643852 82.786491,35.1350295 82.786491,35.2235262 C82.786491,35.3043718 82.8205402,35.3734859 82.8886385,35.4306134 C82.9752861,35.5038081 83.1856795,35.579553 83.5195648,35.6588685 C83.8537041,35.7381839 84.1006877,35.8200497 84.2607697,35.9047208 C84.4208516,35.9891369 84.5461221,36.1049221 84.6365811,36.2515664 C84.7270402,36.3979557 84.7725238,36.5792846 84.7725238,36.795298 C84.7725238,36.9909087 84.7181467,37.1737678 84.6099008,37.3446403 C84.5014008,37.5152577 84.3486877,37.6422644 84.1507451,37.7254054 C83.9525484,37.8085463 83.706073,37.8501168 83.4105566,37.8501168 C82.9806221,37.8501168 82.6505484,37.7501436 82.4200811,37.5507074 C82.1896139,37.3515262 82.0518926,37.0605329 82.0071713,36.6787477" id="Fill-27" fill="#9FA6B2" mask="url(#mask-2)"></path>
                    <polygon id="Fill-28" fill="#9FA6B2" mask="url(#mask-2)" points="87.2978041 37.7895463 87.2978041 34.3759221 89.8194762 34.3759221 89.8194762 34.9535732 87.984632 34.9535732 87.984632 35.7102577 89.6919189 35.7102577 89.6919189 36.2853584 87.984632 36.2853584 87.984632 37.2144456 89.8845254 37.2144456 89.8845254 37.7895463"></polygon>
                    <path d="M93.1036213,35.8197436 L93.611818,35.8197436 C93.9411295,35.8197436 94.1466951,35.8057168 94.2287689,35.7776631 C94.3108426,35.7498644 94.3748754,35.7016631 94.4213754,35.6335691 C94.4676213,35.5649651 94.4909984,35.4797839 94.4909984,35.3775154 C94.4909984,35.2622403 94.4602525,35.1696631 94.3992689,35.0990188 C94.3380311,35.0283745 94.2518918,34.9837436 94.1405967,34.9648711 C94.0846951,34.9572201 93.9177525,34.9536497 93.6395148,34.9536497 L93.1036213,34.9536497 L93.1036213,35.8197436 Z M92.4170475,37.7896228 L92.4170475,34.3759987 L93.8621049,34.3759987 C94.2257197,34.3759987 94.4897279,34.4066027 94.6543836,34.4678107 C94.8192934,34.5292738 94.9511705,34.6384282 95.0500148,34.7950188 C95.1491131,34.9521195 95.1984082,35.131153 95.1984082,35.3331396 C95.1984082,35.5891933 95.1234492,35.8006161 94.973277,35.9674081 C94.8236131,36.1342 94.5992443,36.2395289 94.3006787,36.2828846 C94.4490721,36.369851 94.5715475,36.4654886 94.6681049,36.5692872 C94.7649164,36.6733409 94.895523,36.8579852 95.0591623,37.1234752 L95.474359,37.7896228 L94.6533672,37.7896228 L94.1571131,37.0469651 C93.9805148,36.7814752 93.8600721,36.6139181 93.795023,36.5450591 C93.7299738,36.4756899 93.6611131,36.4285087 93.588441,36.4027503 C93.5157689,36.377502 93.4006623,36.3644953 93.2428672,36.3644953 L93.1036213,36.3644953 L93.1036213,37.7896228 L92.4170475,37.7896228 Z" id="Fill-29" fill="#9FA6B2" mask="url(#mask-2)"></path>
                    <polygon id="Fill-30" fill="#9FA6B2" mask="url(#mask-2)" points="98.5754262 37.7895463 97.3598197 34.3759221 98.1043279 34.3759221 98.964959 36.9022846 99.7981475 34.3759221 100.526393 34.3759221 99.3085 37.7895463"></polygon>
                    <polygon id="Fill-31" fill="#9FA6B2" mask="url(#mask-2)" points="102.803877 37.7895973 103.490451 37.7895973 103.490451 34.3759732 102.803877 34.3759732"></polygon>
                    <path d="M108.268364,36.5345517 L108.934356,36.7464846 C108.832208,37.1188336 108.66247,37.395545 108.424889,37.5763638 C108.187815,37.7571826 107.886454,37.8474644 107.521569,37.8474644 C107.069782,37.8474644 106.698544,37.6929141 106.407856,37.3830483 C106.117167,37.0734376 105.971823,36.6500819 105.971823,36.1129812 C105.971823,35.5450215 106.11793,35.1038134 106.410397,34.789357 C106.70261,34.4751557 107.086807,34.318055 107.563241,34.318055 C107.9792,34.318055 108.316897,34.4412362 108.576839,34.6881087 C108.731585,34.8339879 108.847708,35.0436255 108.924954,35.3167664 L108.245241,35.4797329 C108.204839,35.3027396 108.120987,35.1629812 107.99343,35.0607128 C107.865872,34.9581893 107.710872,34.9069275 107.52843,34.9069275 C107.276364,34.9069275 107.071815,34.9979745 106.914782,35.1795584 C106.758003,35.3608872 106.679233,35.655196 106.679233,36.0617195 C106.679233,36.4934913 106.756733,36.8005517 106.911225,36.9839208 C107.06597,37.1670349 107.267216,37.2585919 107.514454,37.2585919 C107.696897,37.2585919 107.85393,37.2004443 107.985552,37.083894 C108.116667,36.9675987 108.211192,36.7842295 108.268364,36.5345517" id="Fill-32" fill="#9FA6B2" mask="url(#mask-2)"></path>
                    <polygon id="Fill-33" fill="#9FA6B2" mask="url(#mask-2)" points="111.471401 37.7895463 111.471401 34.3759221 113.993073 34.3759221 113.993073 34.9535732 112.158229 34.9535732 112.158229 35.7102577 113.865516 35.7102577 113.865516 36.2853584 112.158229 36.2853584 112.158229 37.2144456 114.058122 37.2144456 114.058122 37.7895463"></polygon>
                    <path d="M116.414173,36.6787477 L117.082452,36.6137141 C117.122599,36.8386537 117.204165,37.0039154 117.327148,37.1094993 C117.450132,37.2150832 117.615804,37.2681302 117.824927,37.2681302 C118.045739,37.2681302 118.212427,37.220949 118.324739,37.1270966 C118.436796,37.0332443 118.492952,36.9233248 118.492952,36.7975933 C118.492952,36.7167477 118.46932,36.6481436 118.422058,36.5915262 C118.37505,36.5349087 118.292722,36.4856872 118.175075,36.4436067 C118.094525,36.4158081 117.911575,36.3658215 117.625206,36.2944121 C117.257017,36.2031101 116.998853,36.0903852 116.85046,35.9570027 C116.641845,35.769298 116.537157,35.5400228 116.537157,35.2701973 C116.537157,35.0962644 116.586198,34.9338081 116.68428,34.7820631 C116.782616,34.6310832 116.924402,34.5158081 117.108878,34.4364926 C117.293861,34.3574322 117.51696,34.317902 117.778173,34.317902 C118.205058,34.317902 118.526493,34.4117544 118.742222,34.5997141 C118.957952,34.7874188 119.071025,35.0378617 119.082206,35.3518081 L118.395378,35.381902 C118.366157,35.206694 118.302886,35.0801973 118.206329,35.0036872 C118.109517,34.9266671 117.964681,34.888157 117.771566,34.888157 C117.571845,34.888157 117.415575,34.9294725 117.302755,35.0118483 C117.230083,35.0643852 117.193493,35.1350295 117.193493,35.2235262 C117.193493,35.3043718 117.227796,35.3734859 117.29564,35.4306134 C117.382542,35.5038081 117.592935,35.579553 117.92682,35.6588685 C118.26096,35.7381839 118.507943,35.8200497 118.668025,35.9047208 C118.828107,35.9891369 118.953378,36.1049221 119.043837,36.2515664 C119.134296,36.3979557 119.179525,36.5792846 119.179525,36.795298 C119.179525,36.9909087 119.125402,37.1737678 119.017157,37.3446403 C118.908657,37.5152577 118.755943,37.6422644 118.557747,37.7254054 C118.359804,37.8085463 118.113329,37.8501168 117.817558,37.8501168 C117.387878,37.8501168 117.05755,37.7501436 116.827083,37.5507074 C116.59687,37.3515262 116.459148,37.0605329 116.414173,36.6787477" id="Fill-34" fill="#9FA6B2" mask="url(#mask-2)"></path>
                    <path d="M2.54098361e-05,0.000127516779 C2.54098361e-05,0.000127516779 0.76105,5.52262416 3.57061557,8.46010067 C6.38043525,11.3978322 9.01467295,12.5727718 12.5852631,13.9241946 C16.1558533,15.2753624 21.0729107,16.8030134 22.8289844,18.859094 C22.8289844,18.859094 19.7264434,11.3389195 13.6387549,9.10661074 C7.55106639,6.87404698 6.49757459,6.9327047 2.54098361e-05,0.000127516779" id="Fill-35" fill="#9FA6B2" mask="url(#mask-2)"></path>
                    <path d="M2.54098361e-05,12.5728483 C2.54098361e-05,12.5728483 1.93218934,16.7531034 4.85864016,18.8048483 C7.78483689,20.8563383 10.2587385,21.4176671 13.5709107,21.9695597 C16.8828287,22.5217074 21.3869762,22.9940295 23.2535828,24.4665933 C23.2535828,24.4665933 20.3703287,18.5197208 13.463173,17.1552913 C7.86792705,16.0502309 6.7908041,17.4381235 2.54098361e-05,12.5728483" id="Fill-36" fill="#9FA6B2" mask="url(#mask-2)"></path>
                    <path d="M1.69755492,22.0317624 C1.69755492,22.0317624 3.81241557,25.6886886 6.43903033,27.143145 C9.83403852,29.0229973 11.3875959,29.3369436 14.1656533,29.2581383 C16.9434566,29.1793329 20.6787025,27.683306 22.4528172,28.6088228 C22.4528172,28.6088228 19.3492598,24.7858698 14.6339566,24.969494 C9.91865328,25.1528631 8.31198934,26.0857758 1.69755492,22.0317624" id="Fill-37" fill="#9FA6B2" mask="url(#mask-2)"></path>
                </g>
            </g>
        </g>
    </g>
</svg>
