<?xml version="1.0" encoding="UTF-8"?>
<svg width="87px" height="87px" viewBox="0 0 87 87" version="1.1" xmlns="http://www.w3.org/2000/svg" xmlns:xlink="http://www.w3.org/1999/xlink">
    <!-- Generator: Sketch 51.3 (57544) - http://www.bohemiancoding.com/sketch -->
    <title>Group 2</title>
    <desc>Created with Sketch.</desc>
    <defs></defs>
    <g id="Comp" stroke="none" stroke-width="1" fill="none" fill-rule="evenodd" opacity="0.32" stroke-linecap="round" stroke-linejoin="round">
        <g id="Digital" transform="translate(-1013.000000, -218.000000)" stroke="#FFFFFF" stroke-width="2.32137643">
            <g id="digital" transform="translate(864.000000, 210.000000)">
                <g id="digi-icon" transform="translate(85.000000, 0.000000)">
                    <g id="Group" transform="translate(56.000000, 0.000000)">
                        <g id="Group-2">
                            <path d="M46.1655041,17.9090321 C48.7055243,20.717574 53.03927,20.9341205 55.8411479,18.3946211 C56.0113554,18.2371328 56.1684701,18.0796445 56.3255847,17.9090321 L59.5988066,14.2605525 C62.1257339,11.4520106 66.4594796,11.2289022 69.2548111,13.7684015 C70.7866789,15.1529864 71.6115308,17.1478385 71.5002412,19.2083108 L71.2449299,24.1101351 C71.0485366,27.896417 73.9420647,31.1314898 77.7193628,31.3283502 C77.9615812,31.3414742 78.210346,31.3414742 78.4525645,31.3283502 L83.3427579,31.0789936 C87.1135095,30.8886952 90.3278133,33.7956673 90.5176602,37.5819492 C90.6224033,39.6358595 89.7975514,41.6372737 88.2787765,43.0152966 L84.6324073,46.2963034 C81.8305294,48.8423647 81.6144968,53.1798558 84.1545169,55.9949597 C84.3050851,56.15901 84.4687462,56.3230604 84.6324073,56.4739867 L88.2787765,59.7549935 C91.0741079,62.2944928 91.3032334,66.6319839 88.7632133,69.4405258 C87.3884601,70.969475 85.3917948,71.7962887 83.3427579,71.6912965 L78.4525645,71.4353779 C74.66872,71.2319555 71.4478697,74.1389276 71.2449299,77.9252095 C71.2318371,78.168004 71.2318371,78.4107985 71.2449299,78.653593 L71.5002412,83.5554173 C71.6900881,87.3416992 68.79656,90.5636479 65.019262,90.7539463 C62.9636787,90.8589385 60.9735598,90.0321248 59.5988066,88.5031756 L56.3255847,84.854696 C53.7855646,82.0461541 49.4518189,81.8296077 46.649941,84.369107 C46.4797334,84.5265953 46.3160723,84.6840836 46.1655041,84.854696 L42.8922823,88.5031756 C40.3588086,91.3182795 36.0381557,91.5348259 33.2297314,88.9953266 C31.70441,87.6107417 30.8795581,85.6158896 30.9908476,83.5554173 L31.2396125,78.653593 C31.4360058,74.8673111 28.5424777,71.6388004 24.7586332,71.4353779 C24.5164148,71.4222539 24.2741964,71.4222539 24.031978,71.4353779 L19.148331,71.6912965 C15.3710329,71.8619088 12.1763684,68.9286887 12.0061609,65.1424068 C11.9210571,63.1016205 12.745909,61.1264544 14.2515911,59.7549935 L17.8914138,56.4739867 C20.6998381,53.9279254 20.9158708,49.5904343 18.3758506,46.7818924 C18.218736,46.6112801 18.0616213,46.4537918 17.8914138,46.2963034 L14.2515911,43.0152966 C11.4497132,40.4757973 11.2336805,36.1383062 13.7671542,33.3297643 C15.1419074,31.8008152 17.1320263,30.9740014 19.1876096,31.0789936 L24.0778031,31.3283502 C27.8551011,31.5317726 31.0759514,28.6248005 31.2854376,24.8385186 C31.2985305,24.5957241 31.2985305,24.3529296 31.2854376,24.1101351 L31.0301263,19.2083108 C30.892651,15.428591 33.8385506,12.2394523 37.6093022,12.10165 C39.6059675,12.0294679 41.530622,12.8300335 42.8857358,14.2933626 L46.1655041,17.9090321 Z" id="Stroke-5" transform="translate(51.265346, 51.383008) rotate(22.000000) translate(-51.265346, -51.383008) "></path>
                            <path d="M51.8196656,42 C57.2401209,42 61.6393311,46.4031112 61.6393311,51.8430206 C61.6393311,57.2829299 57.2401209,61.6860411 51.8196656,61.6860411 C46.3992102,61.6860411 42,57.2829299 42,51.8430206 C42,46.4031112 46.3992102,42 51.8196656,42 Z" id="Stroke-7"></path>
                        </g>
                    </g>
                </g>
            </g>
        </g>
    </g>
</svg>